<svg xmlns="http://www.w3.org/2000/svg" width="266" height="399" viewBox="0 0 266 399" fill="none"><g opacity="0.24"><path d="M50.0897 189.004C50.7808 188.336 51.4439 187.646 52.1111 186.961C52.7823 186.281 53.4494 185.595 54.1113 184.908L58.103 180.807C60.7656 178.079 63.4523 175.375 66.1723 172.703C67.5403 171.376 68.9137 170.053 70.3286 168.777C71.0362 168.143 71.7465 167.51 72.4678 166.901L73.0105 166.449L73.5513 166.022C73.9278 165.749 74.2982 165.489 74.6961 165.238C74.8898 165.111 75.1172 164.98 75.3644 164.771C75.609 164.562 75.8108 164.313 75.9579 164.1C76.2608 163.661 76.4985 163.253 76.7514 162.84L77.4873 161.607C77.7328 161.203 77.9811 160.764 78.2185 160.439C78.4577 160.09 78.7491 159.793 79.053 159.525C79.3786 159.286 79.7136 159.06 80.0968 158.931C80.4734 158.796 80.8722 158.715 81.2795 158.7C81.4845 158.693 81.6871 158.697 81.8904 158.721C81.9919 158.73 82.0924 158.748 82.1902 158.765C82.2816 158.781 82.3967 158.809 82.4478 158.823L82.5314 158.843C82.6098 158.86 82.6917 158.863 82.768 158.851C82.8572 158.838 82.8803 158.829 82.9306 158.817C82.977 158.807 83.0105 158.797 83.0516 158.784C83.1316 158.764 83.1983 158.737 83.2704 158.713C83.4144 158.664 83.5386 158.604 83.6721 158.551C83.9258 158.432 84.1675 158.304 84.4011 158.166C84.8672 157.893 85.2906 157.581 85.7047 157.261C86.5263 156.616 87.2612 155.895 87.9551 155.145C88.6528 154.394 89.302 153.624 89.9227 152.811C90.5354 151.995 91.1014 151.176 91.6712 150.356C93.9335 147.071 96.1831 143.799 98.512 140.577C103.186 134.153 108.127 127.914 113.562 122.132C116.286 119.25 119.116 116.466 122.143 113.917C122.912 113.295 123.657 112.642 124.448 112.05L125.619 111.141L126.819 110.272C127.61 109.679 128.445 109.155 129.263 108.6C129.672 108.326 130.101 108.084 130.52 107.824C130.941 107.572 131.355 107.3 131.793 107.075C133.498 106.117 135.298 105.219 137.058 104.295L142.359 101.551C145.9 99.7435 149.454 97.9677 153.103 96.4372C156.749 94.9055 160.522 93.6921 164.385 92.9137C168.252 92.1469 172.183 91.7716 176.121 91.6169L179.079 91.5579C180.064 91.5387 181.056 91.5673 182.04 91.5702C184.013 91.5654 185.992 91.6592 187.969 91.7166C191.935 91.8662 195.916 92.0583 199.888 92.2493L211.818 92.8283C215.799 93.0074 219.796 93.1781 223.805 93.159C227.817 93.1346 231.824 92.913 235.807 92.5557C239.812 92.2147 243.809 91.5532 247.701 90.5546C248.671 90.3112 249.64 90.0444 250.583 89.82C251.05 89.7105 251.523 89.6073 251.931 89.5761C252.131 89.5599 252.308 89.5782 252.375 89.5997C252.415 89.6089 252.409 89.6156 252.41 89.6129C252.411 89.6103 252.409 89.622 252.418 89.6166C252.422 89.6282 252.427 89.6462 252.439 89.655C252.529 89.8952 252.516 90.2669 252.41 90.6595C252.3 91.0561 252.11 91.4705 251.9 91.8752C251.456 92.6865 250.89 93.4701 250.29 94.2248C249.688 94.9822 249.033 95.7113 248.361 96.4265C248.028 96.7867 247.681 97.1343 247.338 97.4869C246.989 97.8306 246.63 98.1629 246.276 98.5042C245.58 99.1955 244.822 99.8158 244.079 100.457C243.714 100.783 243.319 101.073 242.931 101.372L241.765 102.271C238.593 104.586 235.149 106.529 231.591 108.236C230.693 108.647 229.808 109.084 228.9 109.475L226.171 110.639L223.406 111.726C222.487 112.093 221.549 112.412 220.617 112.757L219.22 113.263L217.811 113.741C216.871 114.056 215.937 114.387 214.99 114.69C213.096 115.288 211.21 115.903 209.303 116.46C208.349 116.744 207.403 117.037 206.447 117.31L203.579 118.125C201.671 118.678 199.746 119.176 197.828 119.703C190.153 121.759 182.398 123.552 174.635 125.321L151.328 130.58C143.562 132.367 135.804 134.209 128.108 136.324C124.26 137.381 120.426 138.512 116.641 139.812C115.692 140.126 114.753 140.487 113.811 140.827C112.877 141.197 111.936 141.543 111.014 141.95C110.085 142.331 109.17 142.771 108.258 143.204L105.585 144.571C102.043 146.436 98.5722 148.452 95.2576 150.723L94.0188 151.578L92.7992 152.468C92.3882 152.76 91.996 153.074 91.5984 153.378C91.1981 153.682 90.8032 153.995 90.4139 154.316C90.0231 154.634 89.6323 154.952 89.2524 155.287L88.6798 155.783L88.1193 156.293C87.742 156.63 87.3797 156.99 87.0186 157.347C86.6552 157.716 86.3134 158.066 85.9518 158.493C85.6944 158.799 85.731 159.258 86.037 159.515C86.343 159.772 86.8016 159.736 87.059 159.43L87.0765 159.406C87.3565 159.072 87.7082 158.707 88.0425 158.367C88.3871 158.024 88.7317 157.682 89.0962 157.352L89.6364 156.857L90.19 156.375C90.5559 156.049 90.9365 155.74 91.3184 155.428C91.695 155.113 92.0809 154.806 92.4722 154.508C92.8622 154.206 93.2468 153.901 93.6462 153.613L94.839 152.74L96.0561 151.897C99.3079 149.658 102.732 147.661 106.231 145.805L108.874 144.447C109.759 144.023 110.642 143.598 111.553 143.221C112.452 142.823 113.379 142.479 114.296 142.112C115.226 141.776 116.147 141.42 117.087 141.104C120.831 139.81 124.635 138.675 128.465 137.616C136.13 135.519 143.877 133.688 151.633 131.912L174.944 126.681C182.713 124.92 190.484 123.132 198.195 121.076C200.12 120.549 202.049 120.054 203.965 119.498L206.844 118.681C207.803 118.407 208.756 118.113 209.712 117.831C211.628 117.275 213.528 116.657 215.433 116.057C216.384 115.753 217.327 115.424 218.275 115.105L219.695 114.626L221.106 114.117C222.045 113.769 222.99 113.45 223.921 113.079L226.717 111.984L229.484 110.809C230.405 110.411 231.308 109.97 232.219 109.551C235.837 107.818 239.362 105.836 242.631 103.457L243.834 102.535C244.234 102.224 244.641 101.927 245.018 101.59C245.785 100.932 246.569 100.292 247.287 99.5788C247.651 99.2295 248.026 98.885 248.385 98.5306C248.739 98.1699 249.093 97.813 249.438 97.4421C250.131 96.7081 250.808 95.9537 251.446 95.1524C252.084 94.3512 252.692 93.517 253.207 92.5816C253.454 92.1045 253.691 91.6095 253.846 91.048C253.991 90.4881 254.083 89.8206 253.825 89.1152C253.782 89.0152 253.735 88.9166 253.681 88.8207C253.61 88.7241 253.545 88.6234 253.453 88.539C253.274 88.3663 253.052 88.2376 252.854 88.1745C252.448 88.0433 252.118 88.0502 251.82 88.0653C251.233 88.1094 250.73 88.2213 250.227 88.3331C249.231 88.5617 248.278 88.8163 247.316 89.0478C243.484 89.9941 239.592 90.6084 235.66 90.9032C231.704 91.1934 227.752 91.3447 223.797 91.3025C219.842 91.2539 215.883 91.0339 211.911 90.7949L205.951 90.426L199.983 90.0885C196.003 89.8744 192.024 89.6901 188.035 89.549C186.031 89.517 184.031 89.4264 182.021 89.4972L180.517 89.5248C180.016 89.5353 179.514 89.5328 179.012 89.5746L176.002 89.7636C171.994 90.0904 167.994 90.6481 164.08 91.6007C160.162 92.5261 156.343 93.8304 152.647 95.3804C148.953 96.9382 145.38 98.734 141.836 100.556L136.534 103.316C134.77 104.247 133.007 105.13 131.242 106.125C130.797 106.359 130.375 106.634 129.944 106.894C129.516 107.16 129.079 107.411 128.662 107.691C127.83 108.255 126.981 108.794 126.18 109.395L124.963 110.279L123.775 111.203C122.976 111.808 122.221 112.468 121.446 113.103C118.394 115.698 115.515 118.486 112.761 121.382C107.258 127.187 102.273 133.447 97.5439 139.872C95.173 143.081 92.8805 146.348 90.5914 149.602C90.0173 150.41 89.4408 151.224 88.8526 151.994C88.2578 152.758 87.6185 153.507 86.949 154.204C86.281 154.905 85.5756 155.569 84.8248 156.145C84.4473 156.428 84.0643 156.701 83.6657 156.925C83.4664 157.037 83.268 157.14 83.0693 157.231C82.9717 157.268 82.8705 157.314 82.7766 157.344C82.7303 157.361 82.6815 157.377 82.6415 157.387C82.6234 157.391 82.5964 157.401 82.5796 157.403C82.5692 157.405 82.5332 157.414 82.5616 157.408L82.8817 157.435L82.8791 157.433C82.701 157.383 82.581 157.359 82.4373 157.331C82.3016 157.306 82.1634 157.286 82.0254 157.274C81.7506 157.245 81.4777 157.24 81.2028 157.253C80.6531 157.279 80.1045 157.392 79.5829 157.585C79.0573 157.773 78.5816 158.074 78.1419 158.407C77.7263 158.764 77.3442 159.16 77.0401 159.601C76.7169 160.055 76.4945 160.451 76.2427 160.862L75.5043 162.094C75.2601 162.495 75.0111 162.914 74.7666 163.261C74.6419 163.44 74.5364 163.564 74.4159 163.665C74.2981 163.767 74.1143 163.88 73.9052 164.013C73.4933 164.273 73.0757 164.559 72.6789 164.848L72.0816 165.3L71.5131 165.76C70.7581 166.372 70.0283 166.999 69.2998 167.631C67.8522 168.901 66.4139 170.178 64.9997 171.479C62.1726 174.086 59.4475 176.804 56.8555 179.642C55.5616 181.063 54.3024 182.519 53.0924 184.015C52.4867 184.761 51.905 185.531 51.3206 186.293C50.7521 187.069 50.1917 187.855 49.655 188.652C49.5716 188.776 49.605 188.945 49.7282 189.031C49.8381 189.105 49.9792 189.09 50.0688 189.001L50.0713 188.996L50.0897 189.004Z" fill="#83A642"></path><path d="M238.3 104.622L233.853 107.353L229.42 110.103L220.554 115.604L202.874 126.686L198.453 129.458C196.974 130.383 195.496 131.313 194.033 132.256L185.259 137.911C179.415 141.66 173.556 145.37 167.48 148.627C165.954 149.426 164.443 150.26 162.889 150.994L161.732 151.563C161.346 151.752 160.965 151.953 160.57 152.121L158.224 153.182C157.446 153.55 156.647 153.85 155.856 154.181L154.667 154.668C154.271 154.83 153.876 154.999 153.469 155.132L151.047 155.985L150.441 156.2C150.238 156.265 150.031 156.319 149.826 156.381L148.595 156.737L147.363 157.096C147.157 157.154 146.955 157.223 146.744 157.269L146.12 157.408L143.62 157.968C141.957 158.303 140.262 158.501 138.551 158.657C136.841 158.797 135.115 158.868 133.389 158.918C131.661 158.947 129.931 158.95 128.197 158.922C121.265 158.786 114.324 158.332 107.372 157.963C103.893 157.778 100.412 157.604 96.9118 157.568C95.1622 157.545 93.4093 157.544 91.6525 157.633C89.8933 157.728 88.1264 157.874 86.3508 158.258C85.9598 158.342 85.7099 158.729 85.7965 159.121C85.8804 159.512 86.2668 159.762 86.659 159.675C86.659 159.675 86.6655 159.675 86.6667 159.672L86.6848 159.668C88.3047 159.288 90.0177 159.12 91.7275 159.022C93.4411 158.922 95.1716 158.91 96.9014 158.92C100.361 158.959 103.831 159.138 107.299 159.325C114.239 159.727 121.182 160.267 128.163 160.483C131.654 160.595 135.153 160.646 138.675 160.477C140.433 160.385 142.206 160.246 143.967 159.963L146.583 159.483L147.238 159.361C147.458 159.323 147.668 159.257 147.883 159.206L149.169 158.883L150.457 158.556C150.672 158.499 150.888 158.449 151.1 158.391L151.734 158.192L154.263 157.396C154.69 157.271 155.099 157.112 155.513 156.959L156.754 156.499C157.58 156.188 158.418 155.899 159.218 155.535L161.648 154.491C162.459 154.144 163.242 153.747 164.039 153.368C165.635 152.625 167.179 151.79 168.737 150.978C169.519 150.576 170.269 150.125 171.039 149.701C171.8 149.268 172.572 148.852 173.323 148.401C174.827 147.506 176.345 146.627 177.822 145.701L180.052 144.324L182.262 142.922C183.74 141.993 185.194 141.033 186.659 140.084L195.381 134.357L204.129 128.69L221.638 117.314L230.367 111.586L234.731 108.721L239.083 105.837C239.416 105.614 239.507 105.164 239.287 104.831C239.072 104.504 238.635 104.41 238.304 104.614L238.295 104.62L238.3 104.622Z" fill="#83A642"></path><path d="M140.407 160.145C144.688 159.808 149.003 159.841 153.261 160.367C157.518 160.888 161.705 161.967 165.659 163.615L166.404 163.919L167.131 164.263L168.584 164.951L169.998 165.717L170.704 166.099L171.39 166.517C171.844 166.799 172.307 167.071 172.759 167.358L174.089 168.264C174.538 168.556 174.96 168.889 175.39 169.211C175.813 169.539 176.258 169.841 176.664 170.193C178.347 171.532 179.921 172.999 181.446 174.517C182.965 176.042 184.385 177.668 185.775 179.319C188.553 182.625 191.086 186.142 193.83 189.526C195.21 191.213 196.648 192.87 198.303 194.343L198.925 194.891L199.552 195.409L200.797 196.449C201.623 197.143 202.446 197.845 203.236 198.568C203.631 198.93 204.017 199.298 204.375 199.679C204.731 200.055 205.075 200.458 205.281 200.855C205.383 201.049 205.424 201.235 205.398 201.326C205.385 201.374 205.367 201.42 205.323 201.473C205.273 201.527 205.21 201.587 205.12 201.641C204.769 201.868 204.25 202.021 203.751 202.151C202.734 202.405 201.663 202.582 200.598 202.772C199.532 202.959 198.46 203.145 197.392 203.344C196.321 203.541 195.252 203.748 194.186 203.976L191.008 204.679C188.9 205.152 186.777 205.535 184.651 205.882C176.134 207.241 167.475 207.426 158.913 206.603L155.706 206.246C155.17 206.195 154.638 206.115 154.106 206.04L152.508 205.816C151.974 205.738 151.443 205.677 150.91 205.583L149.318 205.311C148.26 205.123 147.193 204.967 146.142 204.744L142.973 204.119L139.822 203.407C139.299 203.286 138.768 203.174 138.249 203.045L136.697 202.647C136.181 202.51 135.66 202.392 135.149 202.238L133.618 201.773C131.573 201.159 129.564 200.434 127.583 199.635C127.08 199.452 126.6 199.217 126.11 199.012C125.622 198.794 125.128 198.59 124.644 198.365L123.203 197.664L122.481 197.316L121.773 196.939L120.357 196.185L118.969 195.377L118.275 194.971L117.594 194.543L116.234 193.681C114.442 192.496 112.713 191.216 111.018 189.885C109.338 188.535 107.701 187.128 106.078 185.689C105.272 184.972 104.451 184.239 103.621 183.539C103.207 183.184 102.789 182.836 102.367 182.49C101.95 182.142 101.533 181.792 101.109 181.451C99.4233 180.072 97.7222 178.712 95.9998 177.378C95.1405 176.706 94.2697 176.046 93.389 175.4C92.5095 174.751 91.6198 174.111 90.7113 173.49C88.8867 172.259 87.0283 171.072 84.8769 170.172C83.7947 169.746 82.6307 169.407 81.3795 169.331C80.1368 169.237 78.8096 169.455 77.6468 169.974C76.4774 170.487 75.4888 171.237 74.6402 172.024C73.785 172.811 73.0374 173.635 72.3017 174.419C71.9338 174.812 71.5723 175.197 71.2051 175.567C70.8354 175.943 70.4797 176.261 70.043 176.698C69.9396 176.804 69.8333 176.901 69.7313 177.011L69.4319 177.345C69.3339 177.46 69.2305 177.565 69.1365 177.685L68.8549 178.05C68.6617 178.287 68.5009 178.564 68.3265 178.822C68.1722 179.099 68.0126 179.374 67.8884 179.662C67.7576 179.943 67.6502 180.23 67.5582 180.462C67.5341 180.528 67.5109 180.578 67.4927 180.624L67.432 180.768C67.4147 180.799 67.3974 180.829 67.3801 180.859L67.3581 180.907C67.3581 180.907 67.3416 180.921 67.3341 180.931C67.3202 180.947 67.3104 180.968 67.2993 180.985C67.2814 180.996 67.2662 181.008 67.2524 181.024C67.2461 181.031 67.2386 181.04 67.2323 181.047L67.1927 181.07C67.1659 181.086 67.1391 181.103 67.1149 181.12C66.9806 181.189 66.8113 181.264 66.591 181.325L66.4367 181.375L66.2612 181.415L65.9104 181.495L65.4757 181.597C65.3262 181.636 65.1853 181.657 65.0246 181.714L64.5603 181.866C64.3998 181.929 64.2319 182.008 64.0704 182.08C63.9076 182.155 63.7243 182.281 63.556 182.388C63.4695 182.451 63.3797 182.534 63.295 182.613C63.2076 182.691 63.1242 182.767 63.0493 182.873C62.9743 182.973 62.8953 183.073 62.8334 183.179C62.7768 183.287 62.7216 183.399 62.669 183.512C62.5868 183.724 62.5269 183.942 62.4991 184.105C62.4362 184.447 62.4055 184.644 62.3718 184.737C62.3416 184.816 62.3089 184.852 62.236 184.934C62.1813 184.975 62.1316 185.007 62.0566 185.065C61.9013 185.172 61.746 185.279 61.5999 185.393C61.032 185.872 60.6918 186.37 60.3532 186.83C60.0212 187.297 59.7262 187.739 59.4182 188.181C58.2106 189.94 56.9057 191.613 55.5004 193.225C54.1044 194.846 52.6263 196.409 51.1067 197.93L48.8088 200.245C48.4199 200.627 48.0512 201.035 47.6756 201.43C47.304 201.831 46.9179 202.221 46.5571 202.632C45.0831 204.248 43.6852 205.935 42.3335 207.653C41.0005 209.385 39.7299 211.17 38.5373 213C37.3581 214.842 36.2475 216.723 35.22 218.652C34.1859 220.575 33.273 222.56 32.4073 224.562C31.9686 225.561 31.568 226.575 31.17 227.59C30.7969 228.613 30.3963 229.627 30.0493 230.657C28.6236 234.766 27.3612 238.915 25.7995 242.945C24.2638 246.98 22.4379 250.897 20.3028 254.632C20.0345 255.099 19.7898 255.577 19.5069 256.035L18.6636 257.409C18.1004 258.325 17.553 259.249 16.9356 260.13L15.1415 262.807L13.2481 265.415C12.9294 265.846 12.6319 266.294 12.3 266.719L11.3109 267.994L9.33388 270.541L7.28383 273.032C6.60008 273.863 5.94018 274.711 5.21919 275.513C2.4211 278.766 -0.389262 282.088 -3.11084 285.473C-5.83648 288.853 -8.56883 292.227 -11.4091 295.503C-14.2547 298.776 -17.083 302.061 -19.962 305.303C-21.3955 306.928 -22.8356 308.547 -24.2944 310.151C-25.7479 311.757 -27.2095 313.353 -28.703 314.922C-30.1913 316.493 -31.7011 318.041 -33.2648 319.52C-34.0433 320.259 -34.846 320.974 -35.6683 321.635C-36.0796 321.962 -36.5004 322.276 -36.9241 322.533C-37.1359 322.665 -37.3469 322.775 -37.5383 322.85C-37.6332 322.889 -37.7247 322.913 -37.7816 322.919C-37.8512 322.938 -37.8534 322.908 -37.8113 322.927C-38.1878 322.794 -38.6028 322.992 -38.7387 323.367C-38.872 323.743 -38.6744 324.158 -38.2992 324.294C-38.1552 324.336 -37.9893 324.371 -37.8727 324.361C-37.8117 324.361 -37.7415 324.361 -37.6833 324.353L-37.5231 324.325C-37.3153 324.284 -37.147 324.218 -36.9944 324.152C-36.6868 324.013 -36.4252 323.856 -36.1831 323.693C-35.694 323.364 -35.2575 323.01 -34.833 322.647C-33.9851 321.924 -33.2008 321.159 -32.4205 320.389C-30.8743 318.845 -29.3892 317.253 -27.9146 315.656C-24.9748 312.456 -22.0987 309.206 -19.2118 305.968L-10.5645 296.247C-7.67893 293.012 -4.6841 289.872 -1.65997 286.759C-0.151845 285.2 1.35225 283.636 2.83772 282.058L3.94743 280.867L5.03678 279.645C5.76124 278.83 6.47496 278.003 7.19133 277.178C7.91438 276.358 8.57898 275.493 9.26603 274.641L11.3021 272.07L13.2279 269.412L14.1881 268.082C14.5091 267.639 14.8009 267.177 15.1059 266.72L16.9059 263.975L18.5933 261.156C19.1665 260.225 19.6734 259.251 20.1937 258.29L20.9702 256.846C21.2317 256.366 21.4549 255.864 21.7005 255.377C22.6792 253.422 23.5644 251.42 24.4155 249.409C24.8173 248.393 25.2364 247.387 25.6213 246.366C25.9944 245.343 26.395 244.329 26.7458 243.298C28.1845 239.189 29.4375 235.032 30.8903 230.961C32.3196 226.886 34.0324 222.917 36.1276 219.151C37.1746 217.269 38.289 215.428 39.5052 213.651C40.7281 211.88 42.0213 210.164 43.3757 208.495C44.7513 206.843 46.1815 205.239 47.6796 203.695C48.0475 203.302 48.4368 202.933 48.8154 202.552C49.1992 202.173 49.5699 201.789 49.967 201.423L52.326 199.197C55.5071 196.214 58.5679 193.022 61.1656 189.435C61.4879 188.996 61.8061 188.545 62.1177 188.136C62.428 187.73 62.735 187.345 63.0094 187.133C63.0794 187.085 63.1483 187.041 63.2169 186.989C63.3621 186.89 63.5406 186.775 63.6966 186.646C64.0234 186.362 64.33 185.964 64.4902 185.53C64.6405 185.11 64.6787 184.766 64.7252 184.576C64.7455 184.471 64.7664 184.432 64.7807 184.388C64.7909 184.38 64.7958 184.369 64.7966 184.354C64.8015 184.343 64.8145 184.343 64.8194 184.332C64.8178 184.322 64.8383 184.312 64.8535 184.3C64.8714 184.289 64.8775 184.276 64.9017 184.258C64.9696 184.229 65.0063 184.192 65.0897 184.157L65.3463 184.052L65.6579 183.96C65.7543 183.925 65.8836 183.908 65.9958 183.88L66.3545 183.804L66.7985 183.709L67.0191 183.661L67.2522 183.594C67.5563 183.511 67.8943 183.389 68.2397 183.211L68.5103 183.048L68.6428 182.963L68.7747 182.851C68.8608 182.776 68.9482 182.698 69.0302 182.618C69.1057 182.531 69.1758 182.442 69.246 182.353L69.3485 182.215L69.4252 182.085L69.5722 181.823C69.6395 181.679 69.7202 181.505 69.7699 181.384C69.8817 181.116 69.9714 180.895 70.0745 180.687C70.1685 180.478 70.2837 180.285 70.3923 180.086C70.5271 179.899 70.6318 179.701 70.7863 179.52L71.0016 179.243C71.0769 179.15 71.1627 179.061 71.2419 178.973L71.486 178.703C71.5692 178.613 71.6629 178.529 71.7512 178.442C72.0794 178.114 72.5338 177.708 72.9289 177.312C73.3304 176.916 73.7123 176.515 74.0879 176.119C74.8402 175.327 75.5593 174.55 76.3085 173.874C77.0552 173.197 77.8258 172.634 78.6436 172.265C79.0539 172.084 79.4732 171.946 79.907 171.86C80.3408 171.773 80.7907 171.749 81.2506 171.757C82.1691 171.778 83.1297 171.997 84.08 172.307C85.027 172.638 85.9876 173.037 86.9323 173.517C87.8855 173.973 88.8221 174.485 89.7564 175.008C93.4852 177.121 97.0668 179.579 100.447 182.263C102.143 183.608 103.762 185.019 105.372 186.471C106.982 187.923 108.591 189.394 110.262 190.797C111.924 192.213 113.646 193.563 115.412 194.858L116.76 195.8L117.434 196.271L118.126 196.717L119.51 197.609L120.927 198.45L121.638 198.87L122.365 199.262L123.821 200.041C124.308 200.293 124.809 200.523 125.305 200.765C125.805 200.998 126.289 201.258 126.8 201.466L128.322 202.11L129.082 202.431L129.856 202.72C130.89 203.098 131.915 203.51 132.97 203.815L134.545 204.309C135.069 204.476 135.607 204.598 136.138 204.745L137.733 205.17C138.264 205.308 138.798 205.412 139.33 205.534L142.526 206.238L145.743 206.856C146.811 207.077 147.896 207.229 148.975 207.401L150.595 207.654C151.133 207.741 151.678 207.796 152.22 207.868L153.846 208.073C154.388 208.14 154.929 208.215 155.476 208.258L158.741 208.552C163.103 208.86 167.486 208.925 171.851 208.704C176.218 208.48 180.567 207.969 184.857 207.174C186.999 206.765 189.134 206.323 191.251 205.816L194.412 205.06C195.462 204.818 196.518 204.592 197.576 204.38C198.636 204.171 199.699 203.977 200.766 203.782C201.835 203.581 202.904 203.396 203.988 203.115C204.53 202.961 205.078 202.822 205.641 202.463C205.783 202.371 205.925 202.252 206.052 202.103C206.178 201.947 206.286 201.744 206.326 201.526C206.407 201.077 206.256 200.719 206.118 200.438C205.818 199.872 205.437 199.452 205.052 199.04C204.665 198.633 204.266 198.252 203.862 197.882C203.051 197.141 202.223 196.436 201.389 195.738L200.136 194.695L199.51 194.177L198.912 193.653C197.321 192.242 195.907 190.615 194.54 188.949C191.819 185.602 189.273 182.074 186.469 178.742C183.675 175.402 180.653 172.222 177.258 169.452C176.847 169.091 176.396 168.779 175.966 168.438C175.531 168.108 175.101 167.765 174.646 167.464L173.295 166.529C172.834 166.231 172.365 165.946 171.901 165.657L171.203 165.224L170.483 164.825L169.039 164.033L167.557 163.319L166.817 162.962L166.057 162.648C162.017 160.944 157.749 159.77 153.403 159.172C149.058 158.571 144.656 158.478 140.288 158.714C139.887 158.736 139.581 159.077 139.603 159.478C139.625 159.878 139.966 160.184 140.367 160.162C140.369 160.163 140.377 160.16 140.38 160.162L140.385 160.164L140.407 160.145Z" fill="#83A642"></path><path d="M168.167 207.826C171.807 208.387 174.134 208.483 174.207 208.484C174.607 208.498 174.942 208.183 174.958 207.784C174.971 207.383 174.657 207.048 174.258 207.033C174.028 207.025 151.14 206.082 135.899 192.14C130.033 186.774 122.166 183.526 115.224 180.662C112.026 179.343 109.007 178.097 106.714 176.827C96.2618 171.037 85.257 169.521 80.4083 169.915C80.0093 169.947 79.7117 170.298 79.744 170.697C79.7762 171.096 80.1275 171.394 80.5265 171.362C85.019 170.997 95.9105 172.502 106.012 178.098C108.376 179.407 111.435 180.669 114.671 182.005C121.502 184.824 129.243 188.02 134.921 193.212C145.686 203.061 160.133 206.583 168.169 207.823L168.167 207.826Z" fill="#83A642"></path><path d="M-23.0067 326.399C-20.6788 324.405 -18.1983 322.524 -15.6719 320.75C-13.1391 318.977 -10.5305 317.309 -7.82722 315.816L-7.32114 315.532C-7.23811 315.484 -7.15755 315.442 -7.03758 315.37C-6.92776 315.305 -6.82985 315.233 -6.73196 315.16C-6.35359 314.862 -6.07871 314.532 -5.82444 314.253C-5.57157 313.971 -5.33937 313.739 -5.1059 313.595C-4.99871 313.53 -4.85787 313.461 -4.70104 313.405C-4.54948 313.348 -4.38335 313.3 -4.21459 313.254C-3.53025 313.076 -2.75351 312.995 -1.93332 312.8C-1.72827 312.751 -1.51706 312.689 -1.3075 312.617C-1.08006 312.534 -0.915923 312.463 -0.733712 312.388L0.347992 311.94C1.78763 311.342 3.22688 310.73 4.65609 310.085C6.08389 309.437 7.51674 308.784 8.90069 307.92C9.58952 307.491 10.267 306.983 10.8579 306.4C11.4541 305.819 11.9547 305.21 12.4679 304.636C12.7218 304.344 12.9811 304.062 13.2379 303.778L14.031 302.959L15.6847 301.314C17.9029 299.116 20.0669 296.841 22.1205 294.474C22.6279 293.877 23.1592 293.299 23.6466 292.683L25.1367 290.861C25.6268 290.247 26.0944 289.619 26.5751 288.998L27.2936 288.064L27.9842 287.108L29.3599 285.194C29.8049 284.546 30.2352 283.888 30.6735 283.234C31.5712 281.942 32.3512 280.574 33.1747 279.228C33.597 278.56 33.9494 277.857 34.3255 277.164L35.4446 275.079C36.1256 273.655 36.8144 272.234 37.4349 270.782L38.3037 268.574C38.5837 267.834 38.8952 267.108 39.1175 266.347L39.8381 264.087L40.1938 262.956L40.5296 261.854C41.4051 258.93 42.5125 256.078 43.8596 253.343C45.2014 250.607 46.8094 248.007 48.6243 245.554C50.4324 243.094 52.4872 240.814 54.6797 238.671C56.8734 236.525 59.2474 234.556 61.6954 232.676C66.6089 228.933 71.875 225.622 77.138 222.298C79.7663 220.635 82.4154 218.976 85.0145 217.246C87.6176 215.521 90.168 213.724 92.7339 211.968C94.0175 211.093 95.2999 210.22 96.6132 209.425C97.2693 209.032 97.9363 208.657 98.6134 208.364C98.9506 208.217 99.2925 208.094 99.6265 208.015C99.9605 207.937 100.286 207.912 100.55 207.977C100.815 208.04 101.026 208.185 101.203 208.431C101.381 208.674 101.516 208.989 101.618 209.328C101.816 210.012 101.904 210.766 101.959 211.522C102.054 213.041 102.025 214.589 101.95 216.135C101.83 219.231 101.572 222.321 101.142 225.389C100.716 228.455 100.177 231.51 99.4246 234.514L99.1558 235.644L98.8465 236.764C98.6381 237.509 98.4376 238.257 98.22 239.001L97.5123 241.213C97.3904 241.579 97.2869 241.953 97.1506 242.315L96.7522 243.407C96.4822 244.133 96.2292 244.863 95.9461 245.583L95.0559 247.726C94.9038 248.081 94.7648 248.442 94.6036 248.796L94.1145 249.849L93.1284 251.951C90.3621 257.485 86.9467 262.708 83.0037 267.462C81.0109 269.823 78.8186 272.014 76.5132 274.069C74.204 276.126 71.7686 278.041 69.2385 279.823C64.1826 283.397 58.7474 286.424 53.1286 289.026C50.3146 290.324 47.4589 291.525 44.554 292.598C43.1037 293.144 41.6406 293.648 40.1689 294.123C38.701 294.596 37.2091 295.052 35.7372 295.43L35.723 295.433C35.3338 295.534 35.1024 295.929 35.2031 296.318C35.3039 296.707 35.6988 296.939 36.088 296.838C36.088 296.838 36.0958 296.835 36.0984 296.836C37.6379 296.416 39.1173 295.938 40.6051 295.436C42.0903 294.932 43.5591 294.395 45.0205 293.833C47.945 292.718 50.8203 291.474 53.65 290.136C59.3055 287.455 64.7547 284.328 69.8637 280.702C72.4135 278.885 74.8739 276.937 77.2053 274.839C79.5355 272.744 81.7513 270.509 83.7661 268.101C87.7584 263.255 91.1548 257.962 93.9779 252.368L94.975 250.242L95.4755 249.179C95.6406 248.824 95.782 248.457 95.9327 248.099L96.8377 245.93C97.1271 245.204 97.3824 244.462 97.656 243.728L98.0593 242.626C98.1981 242.258 98.3028 241.881 98.4272 241.51L99.1459 239.274C99.3671 238.523 99.5674 237.768 99.7807 237.012L100.095 235.882L100.366 234.74C101.13 231.703 101.678 228.617 102.112 225.519C102.55 222.42 102.814 219.298 102.941 216.173C103.017 214.611 103.052 213.04 102.956 211.45C102.899 210.656 102.812 209.851 102.579 209.038C102.457 208.633 102.294 208.218 102.01 207.83C101.739 207.442 101.279 207.103 100.784 206.991C100.29 206.871 99.8172 206.923 99.3953 207.018C98.9696 207.115 98.5777 207.256 98.1992 207.416C97.445 207.738 96.7498 208.125 96.0679 208.525C94.7083 209.33 93.4102 210.203 92.116 211.073C89.5357 212.825 86.9616 214.564 84.3509 216.25C83.0454 217.09 81.7346 217.921 80.4101 218.733L76.4168 221.15C71.0884 224.367 65.7263 227.588 60.6534 231.295C55.5921 234.999 50.815 239.24 46.9469 244.294C45.0224 246.818 43.3041 249.511 41.8639 252.349C40.4328 255.188 39.2599 258.154 38.3251 261.185L37.972 262.317L37.6178 263.41L36.9146 265.599C36.7034 266.336 36.4016 267.041 36.1314 267.76L35.3155 269.909C35.1883 270.272 35.0242 270.618 34.8707 270.969L34.4076 272.022C34.1005 272.724 33.8028 273.433 33.4905 274.133L32.467 276.198C32.1219 276.886 31.8005 277.585 31.4119 278.249C28.4981 283.667 24.997 288.799 20.9411 293.465C18.9312 295.814 16.8146 298.07 14.625 300.268L12.977 301.928L12.15 302.792C11.8884 303.087 11.6203 303.381 11.3666 303.68C10.8487 304.271 10.3607 304.867 9.8417 305.378C9.32799 305.891 8.75493 306.325 8.12759 306.725C6.87274 307.518 5.47262 308.183 4.06654 308.819C2.65782 309.455 1.23016 310.062 -0.202988 310.66L-1.27819 311.108C-1.66169 311.272 -1.91981 311.373 -2.27961 311.458C-2.97327 311.629 -3.75263 311.708 -4.57753 311.92C-4.78503 311.974 -4.99231 312.035 -5.20413 312.119C-5.41228 312.195 -5.62761 312.293 -5.85092 312.43C-6.28071 312.7 -6.59165 313.039 -6.85852 313.331C-7.12784 313.628 -7.36039 313.895 -7.59659 314.08C-7.65508 314.123 -7.71218 314.17 -7.77104 314.2C-7.81693 314.23 -7.90766 314.281 -7.99453 314.33L-8.50827 314.616C-11.2507 316.145 -13.9112 317.815 -16.4853 319.601C-19.0645 321.392 -21.5622 323.262 -23.9769 325.305C-24.2824 325.563 -24.3199 326.022 -24.0618 326.328C-23.8037 326.634 -23.3443 326.671 -23.0388 326.413L-23.0223 326.398L-23.0067 326.399Z" fill="#83A642"></path><path d="M6.37178 309.511C9.26501 307.761 12.259 306.173 15.3193 304.724C18.3836 303.281 21.5144 301.983 24.6872 300.788C27.8529 299.574 31.0805 298.523 34.3185 297.519C35.9473 297.043 37.5677 296.545 39.2108 296.115C40.0303 295.894 40.8469 295.665 41.6679 295.454L44.1393 294.839L45.3757 294.534L46.618 294.25L49.1026 293.689C50.7605 293.323 52.4259 292.99 54.0881 292.636L59.0963 291.692C60.7605 291.409 62.4266 291.143 64.1062 290.944C70.8141 290.096 77.6021 289.957 84.4016 290.034C87.806 290.076 91.2178 290.103 94.61 290.22C96.3097 290.267 98.0014 290.352 99.6969 290.436C100.546 290.475 101.388 290.549 102.234 290.603L103.501 290.693C103.924 290.726 104.345 290.771 104.765 290.809C111.514 291.388 118.206 292.551 124.719 294.416L127.158 295.13C127.966 295.383 128.769 295.657 129.575 295.92L130.783 296.318L131.979 296.752L134.371 297.623L136.738 298.563C137.526 298.878 138.319 299.182 139.095 299.53C140.652 300.208 142.221 300.867 143.755 301.602C146.853 303.006 149.906 304.508 152.812 306.236C154.259 307.103 155.675 308.029 156.935 309.105C157.562 309.642 158.147 310.224 158.6 310.867C159.061 311.5 159.334 312.222 159.211 312.866C159.093 313.512 158.564 314.098 157.922 314.552C157.283 315.017 156.533 315.379 155.773 315.704C154.238 316.344 152.609 316.82 150.974 317.267C149.336 317.712 147.678 318.113 146.023 318.541C144.367 318.972 142.709 319.414 141.072 320.017C140.664 320.173 140.257 320.332 139.857 320.518C139.655 320.607 139.455 320.715 139.261 320.808L138.69 321.093L136.412 322.236C136.031 322.423 135.653 322.623 135.269 322.802L134.112 323.337L131.795 324.405C131.018 324.754 130.23 325.073 129.45 325.408C128.665 325.734 127.891 326.085 127.094 326.387L124.716 327.311C124.319 327.463 123.925 327.622 123.525 327.769L122.322 328.196C115.92 330.492 109.367 332.392 102.701 333.769C101.041 334.133 99.3612 334.422 97.6898 334.727C96.8513 334.872 96.0109 334.993 95.1708 335.128L93.9091 335.322L92.6453 335.487C91.8004 335.591 90.9615 335.723 90.1132 335.799L87.5758 336.06L85.0351 336.252C84.1879 336.32 83.3406 336.339 82.4914 336.383C79.1098 336.546 75.7247 336.317 72.3904 335.732C69.0563 335.152 65.7806 334.254 62.5781 333.151C56.1602 330.943 50.0439 327.935 43.972 324.846C40.9371 323.292 37.9166 321.7 34.8475 320.178C31.7934 318.631 28.682 317.172 25.4739 315.874C23.87 315.228 22.234 314.644 20.5689 314.13C18.9025 313.611 17.1958 313.186 15.4538 312.886C11.9777 312.247 8.31438 312.184 4.70892 312.87C4.32139 312.94 4.00038 313.155 3.79348 313.456L3.75606 313.509C3.15145 314.383 2.48251 315.279 1.80947 316.122C1.13644 316.964 0.422708 317.791 -0.289213 318.455L-0.551271 318.689L-0.796403 318.879C-0.824234 318.905 -0.910961 318.96 -0.969439 319.003L-1.16293 319.138C-1.29146 319.228 -1.4121 319.323 -1.538 319.415C-2.02967 319.791 -2.47541 320.185 -2.86986 320.511C-3.26939 320.841 -3.59646 321.069 -3.9418 321.207C-4.11366 321.28 -4.30068 321.325 -4.50083 321.363C-4.6002 321.384 -4.71052 321.387 -4.81393 321.403L-5.29403 321.458C-6.59104 321.598 -7.87553 322.083 -8.93209 322.773C-9.99919 323.458 -10.8568 324.292 -11.6684 325.102C-12.4786 325.916 -13.2382 326.731 -14.0329 327.498C-14.8223 328.267 -15.6428 328.993 -16.5049 329.671L-16.5151 329.679C-16.8286 329.927 -16.8844 330.384 -16.6364 330.698C-16.398 330.998 -15.9717 331.058 -15.6596 330.848C-14.7019 330.198 -13.7782 329.491 -12.8997 328.751C-12.0185 328.011 -11.1813 327.235 -10.349 326.512C-9.5141 325.789 -8.68457 325.106 -7.8112 324.638C-6.94063 324.162 -6.04045 323.905 -5.08972 323.87L-4.72662 323.853C-4.55026 323.846 -4.38015 323.845 -4.1989 323.826C-3.84287 323.79 -3.47344 323.725 -3.11317 323.611C-2.38594 323.389 -1.75858 322.989 -1.26353 322.64C-0.762175 322.284 -0.339199 321.959 0.0865588 321.683L0.405346 321.479L0.564881 321.384C0.623545 321.347 0.656859 321.33 0.743555 321.275L1.18962 320.983L1.5836 320.686C2.58107 319.882 3.39835 319.045 4.19812 318.185C4.99649 317.321 5.73912 316.459 6.48635 315.533L5.5347 316.169C6.29558 315.943 7.06478 315.734 7.84999 315.587L8.44151 315.478L9.03642 315.396C9.43325 315.334 9.83488 315.303 10.2363 315.265C11.8436 315.126 13.4813 315.182 15.1178 315.338C16.7523 315.512 18.3878 315.808 20.0104 316.2C21.6318 316.595 23.2353 317.09 24.8312 317.636C26.4245 318.181 28.0015 318.796 29.5616 319.453C31.123 320.108 32.6737 320.8 34.2185 321.511C37.297 322.957 40.3503 324.472 43.4151 325.982C49.5308 329.012 55.7291 331.981 62.2537 334.152C65.5113 335.233 68.8475 336.111 72.2472 336.667C75.6428 337.217 79.1034 337.455 82.5378 337.275C83.3921 337.227 84.2509 337.203 85.1059 337.133L87.667 336.931L90.2211 336.662C91.0718 336.58 91.9184 336.446 92.7684 336.338L94.0411 336.168L95.3079 335.969C96.1531 335.83 97 335.709 97.841 335.559C99.5225 335.245 101.208 334.95 102.879 334.578C104.556 334.24 106.217 333.834 107.886 333.444C108.722 333.257 109.543 333.018 110.371 332.807C111.195 332.582 112.031 332.388 112.85 332.141C114.492 331.659 116.142 331.206 117.766 330.665L120.209 329.877L122.63 329.027L123.842 328.601C124.245 328.456 124.642 328.298 125.043 328.145L127.439 327.223C128.241 326.923 129.02 326.568 129.813 326.246C130.602 325.911 131.397 325.592 132.176 325.244L134.511 324.178L135.68 323.646C136.068 323.465 136.448 323.267 136.832 323.081L139.133 321.938L139.708 321.652C139.897 321.561 140.072 321.466 140.263 321.385C140.635 321.212 141.025 321.061 141.416 320.916C142.987 320.343 144.632 319.911 146.278 319.488C147.926 319.067 149.589 318.671 151.244 318.227C152.899 317.78 154.559 317.306 156.175 316.637C156.981 316.294 157.783 315.918 158.528 315.381C158.9 315.112 159.263 314.813 159.57 314.428C159.877 314.049 160.131 313.585 160.228 313.066C160.33 312.551 160.268 312.016 160.113 311.551C160.042 311.31 159.932 311.099 159.831 310.882C159.71 310.682 159.601 310.468 159.461 310.288C158.929 309.532 158.293 308.903 157.63 308.326C156.297 307.179 154.856 306.218 153.383 305.323C151.91 304.431 150.402 303.605 148.877 302.817C148.117 302.422 147.351 302.038 146.583 301.658L144.27 300.549C141.188 299.062 138.043 297.697 134.875 296.388L132.473 295.461L131.273 295L130.06 294.574C129.249 294.293 128.441 294.001 127.627 293.728L125.169 292.958C118.597 290.944 111.802 289.624 104.967 288.922C98.129 288.197 91.2593 288.071 84.436 287.976C77.5978 287.907 70.7035 288.054 63.8638 288.924C62.1531 289.128 60.4484 289.402 58.7506 289.695L53.7001 290.654L51.1847 291.184C50.3459 291.364 49.5053 291.527 48.6737 291.733L46.1704 292.321L44.9194 292.616L43.6731 292.936L41.1829 293.578C40.3544 293.798 39.529 294.038 38.7059 294.267C37.0516 294.715 35.4135 295.23 33.771 295.728C32.9497 295.974 32.1386 296.259 31.3229 296.52C30.5073 296.788 29.6917 297.049 28.8848 297.346L26.4594 298.207L24.0539 299.127C17.6679 301.646 11.4201 304.589 5.61651 308.306C5.27867 308.524 5.17984 308.97 5.3973 309.308C5.61072 309.641 6.04725 309.741 6.38159 309.538L6.37178 309.511Z" fill="#83A642"></path><path d="M2.22217 270.117C5.79993 266.252 8.47265 261.753 11.2809 257.362C14.0308 252.93 16.7051 248.441 19.1007 243.788L19.9958 242.04C20.2946 241.459 20.5683 240.863 20.8552 240.273C21.4302 239.091 21.9729 237.916 22.5233 236.738C23.6309 234.388 24.7411 232.04 25.8749 229.703C28.1388 225.03 30.4671 220.383 32.8826 215.79C33.1843 215.216 33.4884 214.638 33.7956 214.08L34.7358 212.366C35.3559 211.217 35.9733 210.067 36.5724 208.909C37.7769 206.592 38.9394 204.255 40.061 201.896C42.2923 197.175 44.3485 192.364 46.1235 187.441C47.0203 184.988 47.7652 182.447 48.6104 180.049C49.4903 177.639 50.565 175.319 51.8704 173.122C52.5376 172.031 53.2339 170.959 53.9744 169.888L55.073 168.268C55.4257 167.708 55.8049 167.168 56.1335 166.584C56.8359 165.451 57.4004 164.222 57.9206 162.986L58.2556 162.037C58.362 161.719 58.4933 161.408 58.5736 161.084L58.8419 160.121C58.9313 159.797 59.0286 159.478 59.0868 159.153C59.6878 156.571 60.0551 153.9 59.9349 151.211C59.8369 148.522 59.2556 145.868 58.4199 143.355C57.5828 140.838 56.5705 138.415 55.5537 136.017C54.5292 133.621 53.5323 131.234 52.5956 128.821C48.7198 119.241 46.5681 109.112 45.482 98.879L45.2956 96.9588C45.2318 96.3179 45.1966 95.6775 45.1392 95.0364L45.0609 94.0752L45.0021 93.1135C44.9642 92.4719 44.9133 91.8306 44.8884 91.1886C44.7535 88.6203 44.729 86.0489 44.7383 83.4803C44.7867 78.3411 45.1741 73.209 45.9466 68.1437C46.0517 67.5109 46.1322 66.8763 46.2544 66.2482L46.6038 64.3594C46.8717 63.1078 47.1279 61.854 47.4494 60.6177C48.0755 58.1405 48.7866 55.6868 49.6761 53.2968C50.5618 50.9082 51.6265 48.6028 52.7911 46.2958C53.9509 43.9993 55.1855 41.7345 56.4993 39.5128C59.123 35.0708 61.9841 30.7583 65.0866 26.622C68.1879 22.4883 71.4985 18.4966 75.1032 14.8016C76.9082 12.9553 78.7801 11.1785 80.7611 9.53877C81.2517 9.12346 81.7652 8.74125 82.2705 8.3424C82.7896 7.96911 83.2963 7.57412 83.8331 7.23149C84.8863 6.51436 85.9841 5.85956 87.1255 5.36582C87.6961 5.1157 88.2798 4.91326 88.8628 4.78094C89.1515 4.70383 89.4726 4.67385 89.7748 4.61583C90.0781 4.59673 90.3867 4.53851 90.6818 4.55081C90.83 4.55564 90.9826 4.53695 91.1273 4.55617L91.5596 4.59697L91.9674 4.69045C92.1009 4.72686 92.2195 4.78836 92.3493 4.83268C92.8386 5.05363 93.2326 5.43184 93.5335 5.92048C93.8319 6.40791 94.0624 6.97259 94.2238 7.57561C94.3993 8.16914 94.5147 8.79555 94.6274 9.42075C94.8337 10.6782 94.9615 11.9664 95.0726 13.2565C95.2948 15.8365 95.4527 18.4379 95.6454 21.0331C95.8369 23.631 96.0544 26.2281 96.3002 28.8192C96.5475 31.4141 96.8387 34.0039 97.1649 36.5874C97.4872 39.1724 97.8652 41.7545 98.2935 44.3248C99.1256 49.4699 100.148 54.5783 101.17 59.6777C102.2 64.7769 103.193 69.8784 103.942 75.0103C104.679 80.14 105.152 85.3136 105.077 90.4822C105.058 93.0653 104.871 95.6441 104.562 98.2044C104.255 100.766 103.807 103.307 103.221 105.815C102.627 108.32 101.939 110.807 101.112 113.233C100.265 115.655 99.2947 118.027 98.2057 120.343C95.9855 124.957 93.3016 129.336 90.2199 133.427C87.1381 137.519 83.6863 141.339 79.9836 144.922C78.1423 146.722 76.241 148.472 74.3121 150.207C72.39 151.954 70.4196 153.647 68.5388 155.566C68.0696 156.046 67.6076 156.551 67.1623 157.097C66.7416 157.637 66.347 158.183 65.9498 158.728L64.8472 160.392L63.8102 162.08C62.4718 164.348 61.2305 166.655 60.0274 168.976C57.6488 173.634 55.429 178.35 53.3634 183.147C53.2052 183.515 53.3746 183.943 53.7427 184.101C54.0976 184.253 54.5074 184.101 54.6794 183.759L54.6843 183.748C56.9828 179.104 59.336 174.466 61.8298 169.931C63.0747 167.665 64.3553 165.418 65.7118 163.236L66.7482 161.618L67.8262 160.048C68.2041 159.552 68.5791 159.048 68.9653 158.568C69.3521 158.114 69.7741 157.66 70.2211 157.222C71.1123 156.336 72.068 155.478 73.0313 154.617L75.9473 152.032C77.8997 150.302 79.8476 148.548 81.7351 146.724C85.5018 143.066 89.0772 139.165 92.2234 134.921C93.7946 132.8 95.2634 130.596 96.5895 128.306C97.9196 126.022 99.1322 123.667 100.186 121.241C101.236 118.814 102.136 116.326 102.905 113.803C103.657 111.269 104.258 108.713 104.762 106.135C105.738 100.969 106.209 95.7186 106.191 90.4813C106.158 85.2431 105.678 80.0217 104.88 74.8639C104.091 69.7033 103.03 64.6024 102 59.5032C100.967 54.4055 99.9287 49.3117 99.0971 44.1861C98.6819 41.6219 98.3161 39.0551 98.007 36.4762C97.694 33.8988 97.4146 31.3177 97.1793 28.7316C96.9401 26.1468 96.7527 23.554 96.5847 20.9607C96.4141 18.3662 96.2784 15.7719 96.0803 13.1678C95.9779 11.8658 95.8612 10.5604 95.66 9.25085C95.5489 8.59445 95.434 7.93946 95.2464 7.28266C95.0769 6.62793 94.8242 5.9665 94.4506 5.3449C94.0796 4.72453 93.5112 4.15008 92.8113 3.8313C92.6353 3.76235 92.4602 3.6778 92.2822 3.62708L91.7409 3.49723L91.2029 3.43607C91.0218 3.41271 90.8494 3.42544 90.6727 3.42013C90.3178 3.40566 89.9818 3.46077 89.6343 3.47855C89.2983 3.53365 88.9655 3.5614 88.6263 3.64385C87.9384 3.78827 87.2864 4.00697 86.6643 4.27155C85.4134 4.7944 84.2563 5.46645 83.1515 6.19804C82.5878 6.55054 82.063 6.94996 81.5194 7.32784C80.9973 7.72848 80.4619 8.11652 79.9545 8.53361C77.8982 10.1768 75.9534 11.9453 74.0884 13.7829C70.3654 17.4709 66.9133 21.4161 63.6698 25.5253C60.4262 29.6345 57.4165 33.9292 54.6426 38.3846C53.2562 40.6109 51.9479 42.8896 50.711 45.2078C50.3951 45.7843 50.0951 46.3681 49.7991 46.957C49.499 47.5408 49.1978 48.1273 48.9218 48.7351C48.3395 49.9334 47.8281 51.1582 47.3245 52.3867C46.3476 54.8545 45.5348 57.3825 44.8552 59.9405C44.5049 61.2178 44.2187 62.5088 43.9273 63.7975L43.5391 65.742C43.4045 66.3899 43.309 67.0431 43.1927 67.6931C42.7598 70.2985 42.4169 72.9168 42.2107 75.5443C41.9979 78.1719 41.8515 80.8015 41.8181 83.4357C41.7461 88.7015 42.0195 93.9679 42.6396 99.1905C42.9588 101.803 43.3439 104.404 43.8259 106.99C44.3182 109.574 44.8841 112.144 45.5481 114.689C46.2081 117.236 46.9727 119.758 47.8362 122.245C48.045 122.87 48.2732 123.488 48.5051 124.105L48.8498 125.03L49.2123 125.944L49.9413 127.771L50.7035 129.581C51.7246 131.991 52.8121 134.368 53.8787 136.736C54.9375 139.106 56.0075 141.459 56.8313 143.874C57.6613 146.282 58.2375 148.755 58.3578 151.272C58.4859 153.786 58.1524 156.322 57.5888 158.803C57.5328 159.116 57.4429 159.42 57.3582 159.726L57.108 160.643C57.035 160.952 56.9123 161.243 56.8144 161.544L56.5051 162.437C56.023 163.598 55.5067 164.744 54.8432 165.828C54.5384 166.381 54.1705 166.911 53.8329 167.451L52.7431 169.06C52.0026 170.131 51.2853 171.241 50.5971 172.371C49.2434 174.651 48.1288 177.07 47.2275 179.548C46.801 180.79 46.3764 182.055 45.9803 183.272C45.7759 183.885 45.5884 184.502 45.3696 185.11L44.7223 186.938C42.9533 191.799 40.901 196.561 38.6736 201.238C37.5553 203.576 36.3923 205.894 35.191 208.19C34.593 209.34 33.9766 210.48 33.3561 211.616L32.4132 213.322C32.0896 213.901 31.7879 214.475 31.4812 215.052C29.0428 219.661 26.6953 224.314 24.4109 228.997C23.2667 231.336 22.1449 233.688 21.0416 236.049C20.4925 237.231 19.9449 238.417 19.3848 239.574C19.1028 240.153 18.8354 240.743 18.5403 241.316L17.6602 243.045C15.2929 247.644 12.6768 252.125 9.96295 256.548C7.27823 260.99 4.23741 265.194 1.83655 269.845C1.77626 269.961 1.82051 270.1 1.93388 270.159C2.0274 270.205 2.13968 270.184 2.209 270.111L2.22217 270.117Z" fill="#83A642"></path><path d="M11.681 256.597C11.8789 255.848 12.0925 255.105 12.2748 254.355L12.5175 253.22C12.6001 252.842 12.6828 252.464 12.7366 252.08L12.9193 250.936C12.9811 250.555 13.0102 250.168 13.0564 249.787C13.1564 249.02 13.1966 248.252 13.2525 247.484C13.4408 244.413 13.3171 241.373 13.6658 238.418C13.8572 236.946 14.1896 235.5 14.6687 234.097L15.0805 233.066C15.1535 232.895 15.2095 232.719 15.293 232.553L15.541 232.054L16.0354 231.052L16.2976 230.508C16.3404 230.416 16.3846 230.328 16.4248 230.234L16.5297 229.953C17.0958 228.46 17.3352 226.897 17.4534 225.362C17.5728 223.823 17.5833 222.292 17.6086 220.778C17.6232 220.023 17.6417 219.267 17.6931 218.522C17.7391 217.776 17.8154 217.04 17.965 216.326C18.2588 214.894 18.8044 213.499 19.4355 212.148C20.7199 209.445 22.3567 206.9 24.0826 204.425C24.5167 203.807 24.9588 203.194 25.4022 202.584L26.0772 201.675L26.7672 200.789C27.2148 200.19 27.7195 199.634 28.1989 199.057C28.6983 198.499 29.187 197.929 29.7077 197.387C30.729 196.284 31.8088 195.227 32.8815 194.151C33.9624 193.085 35.0385 191.995 36.0703 190.848C37.1128 189.713 38.0761 188.487 38.9546 187.203C39.8436 185.923 40.5577 184.523 41.1973 183.105C41.8155 181.664 42.2981 180.205 42.7404 178.744C43.1866 177.28 43.5937 175.812 43.9916 174.342C44.7875 171.403 45.5339 168.46 46.3131 165.529C47.095 162.6 47.8965 159.676 48.8517 156.814C49.3353 155.388 49.8423 153.966 50.4763 152.622C50.7841 151.945 51.142 151.299 51.5511 150.715C51.6561 150.571 51.7556 150.419 51.8742 150.301C51.9874 150.175 52.0991 150.038 52.2262 149.943L52.4125 149.784C52.4952 149.723 52.5805 149.663 52.6591 149.597C52.823 149.472 52.9771 149.326 53.1234 149.176C53.4145 148.867 53.6862 148.516 53.8349 148.044C53.9022 147.81 53.9448 147.532 53.8584 147.236C53.7797 146.937 53.5477 146.679 53.2999 146.551C52.7964 146.291 52.3342 146.336 51.9178 146.392C51.5002 146.457 51.1089 146.576 50.7339 146.722C49.2513 147.316 47.9707 148.206 46.7538 149.145C44.3337 151.048 42.1974 153.249 40.1777 155.53C39.1692 156.674 38.1887 157.841 37.2321 159.026C36.2873 160.219 35.3734 161.442 34.4446 162.649L33.1325 164.523C32.7026 165.152 32.2436 165.761 31.8455 166.411C31.0294 167.699 30.1869 168.969 29.4356 170.297C29.0547 170.958 28.654 171.607 28.2863 172.275L27.2054 174.291C26.8298 174.955 26.5083 175.647 26.1709 176.332C25.8414 177.021 25.4829 177.696 25.1797 178.396C22.6017 183.932 20.7005 189.794 19.3707 195.749L18.3934 200.195C18.063 201.664 17.6763 203.116 17.2748 204.552C16.868 205.985 16.4612 207.419 15.8411 208.747C15.521 209.401 15.1523 210.036 14.6726 210.559C14.4348 210.823 14.1715 211.059 13.8824 211.254C13.5919 211.446 13.2793 211.595 12.9497 211.691C12.7876 211.744 12.6159 211.776 12.4478 211.801L12.3197 211.815C12.2795 211.819 12.2201 211.829 12.2173 211.822C12.2015 211.814 12.1863 211.826 12.1652 211.817C12.1468 211.808 12.1309 211.801 12.1101 211.797C11.9332 211.696 11.7284 211.393 11.5896 211.079C11.3009 210.433 11.1047 209.705 10.9332 208.979C10.5965 207.52 10.3587 206.02 10.1352 204.525C9.7011 201.526 9.34306 198.508 8.94483 195.494C8.16012 189.469 7.31383 183.424 5.77119 177.501C4.98261 174.549 4.03975 171.606 2.56757 168.858C0.99592 166.172 -0.850101 163.698 -2.94908 161.459C-3.20781 161.176 -3.45393 160.879 -3.72527 160.609L-4.53182 159.789L-5.33832 158.97C-5.60844 158.697 -5.87346 158.421 -6.1574 158.164C-7.27549 157.12 -8.37976 156.059 -9.53913 155.069C-10.1158 154.568 -10.6798 154.053 -11.2663 153.566L-13.0237 152.1C-14.1894 151.117 -15.3951 150.186 -16.5807 149.232C-21.3722 145.473 -26.2606 141.861 -31.1188 138.218C-35.9858 134.587 -40.8375 130.944 -45.6129 127.199C-48.0134 125.313 -50.5407 123.576 -53.2123 122.059C-54.5516 121.312 -55.9262 120.606 -57.3977 120.095C-58.1346 119.843 -58.8988 119.641 -59.7054 119.587C-60.5006 119.521 -61.3731 119.657 -62.0987 120.116C-62.8296 120.574 -63.3136 121.306 -63.6209 122.043C-63.9372 122.785 -64.1057 123.562 -64.2238 124.332C-64.4482 125.876 -64.4766 127.418 -64.4585 128.95C-64.4366 130.48 -64.3604 132.003 -64.2791 133.523L-64.0459 138.07C-63.7674 144.193 -62.5638 150.288 -60.5121 156.08C-60.3822 156.441 -60.2806 156.815 -60.1276 157.167L-59.6931 158.236L-58.8255 160.371L-57.8373 162.452C-57.5058 163.144 -57.1883 163.845 -56.803 164.51L-55.6959 166.529L-55.4191 167.035L-55.1155 167.525L-54.5082 168.505C-54.0988 169.152 -53.7096 169.816 -53.2823 170.453L-51.9686 172.344C-48.4443 177.37 -44.281 181.909 -39.8456 186.111C-39.2891 186.635 -38.7376 187.163 -38.1736 187.678L-36.4563 189.196C-35.3232 190.221 -34.1374 191.182 -32.9693 192.16L-31.2108 193.623L-29.4145 195.04C-28.2137 195.982 -27.0255 196.937 -25.7846 197.827C-20.8938 201.475 -15.7748 204.839 -10.4209 207.794C-7.73296 209.247 -5.00021 210.632 -2.19921 211.863C0.594281 213.103 3.45135 214.207 6.28436 215.286C6.98561 215.561 7.6958 215.83 8.382 216.123L8.89973 216.338C8.94185 216.358 8.98903 216.373 9.02588 216.39L9.12348 216.442C9.18683 216.478 9.25772 216.504 9.31863 216.545C9.56716 216.699 9.77783 216.893 9.96353 217.12C10.3134 217.593 10.5492 218.208 10.6531 218.887C10.7647 219.563 10.7828 220.282 10.7543 221.005C10.6947 222.455 10.4463 223.934 10.1507 225.396C9.85397 226.862 9.48445 228.325 9.09789 229.784C8.7087 231.242 8.2948 232.697 7.86791 234.153C7.44628 235.612 6.97707 237.042 6.58815 238.554C5.83288 241.551 5.36924 244.574 4.89853 247.577C4.43431 250.581 3.99056 253.575 3.35159 256.507C3.03009 257.97 2.64966 259.416 2.17305 260.814C1.68451 262.203 1.09353 263.551 0.294809 264.719C-0.587327 266.012 -1.35687 267.337 -2.11464 268.665C-2.86978 269.995 -3.59881 271.33 -4.32518 272.666C-5.77267 275.341 -7.21238 278.013 -8.69972 280.656C-10.1844 283.301 -11.726 285.909 -13.3248 288.469C-14.9236 291.029 -16.5913 293.544 -18.3973 295.895C-19.3013 297.062 -20.241 298.203 -21.2639 299.159L-22.9346 300.709C-23.4839 301.251 -24.0503 301.781 -24.5838 302.33C-25.6638 303.422 -26.7095 304.536 -27.7473 305.654C-28.7903 306.769 -29.8109 307.898 -30.8222 309.035C-32.854 311.301 -34.8474 313.594 -36.8329 315.891L-39.8116 319.32C-40.805 320.446 -41.805 321.613 -42.8319 322.611L-42.8559 322.635C-43.1426 322.915 -43.1476 323.373 -42.8693 323.663C-42.607 323.932 -42.1871 323.951 -41.9002 323.726C-40.6371 322.722 -39.5678 321.66 -38.4717 320.582C-37.3834 319.507 -36.3228 318.416 -35.2688 317.318C-33.1609 315.123 -31.0849 312.907 -29.0112 310.696C-26.9294 308.495 -24.8717 306.27 -22.7502 304.142C-22.2284 303.597 -21.6899 303.086 -21.1598 302.557C-20.892 302.298 -20.6212 302.052 -20.3506 301.801L-19.9446 301.423L-19.4998 300.996C-18.3333 299.842 -17.3611 298.61 -16.4482 297.348C-14.6383 294.816 -13.0755 292.175 -11.5705 289.515C-10.0655 286.854 -8.6512 284.154 -7.22091 281.468C-5.79326 278.781 -4.37731 276.091 -2.93613 273.423C-2.21624 272.087 -1.49237 270.756 -0.75105 269.443C-0.00710525 268.131 0.747422 266.824 1.57201 265.607C2.48508 264.261 3.11427 262.797 3.62897 261.324C4.12788 259.844 4.51718 258.345 4.84142 256.841C5.48726 253.832 5.92374 250.812 6.38024 247.811C6.83816 244.815 7.29099 241.822 8.014 238.922C8.37798 237.491 8.85031 236.034 9.26789 234.57C9.69722 233.109 10.1187 231.644 10.5125 230.169C10.9038 228.693 11.2805 227.208 11.5877 225.699C11.8923 224.189 12.1548 222.66 12.2261 221.074C12.2578 220.282 12.2437 219.472 12.1071 218.651C11.9784 217.832 11.6901 216.972 11.1311 216.226C10.8389 215.863 10.4868 215.539 10.0863 215.292C9.98713 215.23 9.88187 215.181 9.77904 215.127L9.6236 215.049C9.57359 215.025 9.53289 215.01 9.48692 214.992L8.95337 214.769C8.24084 214.464 7.53063 214.195 6.81886 213.915C3.97513 212.824 1.16525 211.737 -1.5928 210.51C-4.35189 209.292 -7.0451 207.925 -9.69498 206.486C-14.974 203.563 -20.0284 200.233 -24.8665 196.609C-26.0916 195.726 -27.2693 194.776 -28.4582 193.843L-30.2373 192.437L-31.9774 190.982C-33.135 190.009 -34.3115 189.056 -35.4274 188.042L-37.1235 186.54C-37.6796 186.029 -38.2231 185.504 -38.7754 184.992C-43.1635 180.854 -47.2673 176.4 -50.7287 171.48L-52.0193 169.629C-52.4409 169.007 -52.8206 168.357 -53.2244 167.725L-53.8205 166.77L-54.1174 166.293L-54.3873 165.799L-55.4736 163.826C-55.8533 163.176 -56.1625 162.491 -56.4884 161.815L-57.4582 159.783L-58.3114 157.701L-58.7361 156.659C-58.8862 156.314 -58.9863 155.95 -59.1145 155.599C-61.126 149.942 -62.3028 144.009 -62.7985 138.009L-63.1901 133.466C-63.3231 131.954 -63.4508 130.445 -63.5239 128.942C-63.5904 127.439 -63.626 125.932 -63.4423 124.462C-63.349 123.731 -63.2037 123.005 -62.9384 122.344C-62.6821 121.682 -62.2837 121.086 -61.7163 120.726C-61.1568 120.362 -60.4529 120.231 -59.7425 120.28C-59.0287 120.314 -58.3116 120.506 -57.6152 120.75C-56.2182 121.242 -54.8997 121.986 -53.6316 122.783C-51.101 124.41 -48.7419 126.302 -46.3779 128.185L-42.8062 131.022L-39.2095 133.826C-36.8021 135.683 -34.376 137.514 -31.9486 139.343C-27.0852 142.988 -22.1896 146.578 -17.4145 150.31C-15.0402 152.191 -12.6583 154.062 -10.386 156.052C-9.22845 157.025 -8.13137 158.06 -7.02174 159.081C-6.7392 159.334 -6.47579 159.6 -6.20971 159.868L-5.40905 160.665L-4.60834 161.463C-4.33982 161.725 -4.10039 162.016 -3.84325 162.289C-1.77209 164.464 0.0706907 166.869 1.59895 169.4C3.03563 171.997 4.00498 174.869 4.81923 177.766C5.62211 180.674 6.23836 183.638 6.77328 186.62C7.30436 189.603 7.75416 192.602 8.16903 195.608C8.58267 198.616 8.9588 201.629 9.40629 204.64C9.63398 206.148 9.8732 207.651 10.2189 209.152C10.3988 209.902 10.5917 210.65 10.9247 211.394C11.0118 211.578 11.108 211.764 11.2353 211.945C11.3625 212.125 11.5224 212.312 11.7706 212.452C11.9074 212.516 12.0516 212.564 12.2138 212.559C12.3036 212.566 12.3382 212.553 12.394 212.55L12.5494 212.533C12.755 212.503 12.959 212.464 13.1584 212.4C13.9618 212.165 14.6633 211.681 15.2392 211.117C15.8189 210.551 16.2925 209.904 16.7147 209.236C17.5473 207.891 18.1746 206.451 18.6583 204.983C19.5902 202.034 20.1199 199.006 20.7219 196.051C20.8707 195.31 21.026 194.569 21.1918 193.834C21.3433 193.094 21.5156 192.359 21.6932 191.625C21.859 190.889 22.0536 190.16 22.2456 189.43C22.3442 189.067 22.4322 188.698 22.5361 188.337L22.8543 187.252L23.1736 186.165L23.5258 185.091C23.7675 184.377 23.983 183.652 24.2535 182.945L25.0391 180.821L25.8981 178.724C28.2635 173.157 31.3812 167.92 34.9477 163.033C35.8754 161.835 36.7807 160.624 37.7244 159.44C38.68 158.265 39.649 157.102 40.6673 155.985C42.6934 153.745 44.8363 151.592 47.2156 149.763C48.4051 148.863 49.6675 148.019 51.02 147.505C51.3566 147.379 51.698 147.285 52.0303 147.238C52.3562 147.191 52.6968 147.208 52.8739 147.316C52.9612 147.37 52.9963 147.418 53.0166 147.491C53.0407 147.563 53.0285 147.679 52.9893 147.805C52.9084 148.062 52.7084 148.334 52.4776 148.569C52.3563 148.685 52.2324 148.801 52.0939 148.906C52.0266 148.961 51.9539 149.007 51.8853 149.059L51.6328 149.264C51.4523 149.398 51.3218 149.555 51.1795 149.71C51.0293 149.861 50.9172 150.026 50.7946 150.187C50.3251 150.839 49.9359 151.526 49.6015 152.225C48.9183 153.619 48.3818 155.057 47.8741 156.501C46.873 159.393 46.0287 162.319 45.2092 165.247L42.7841 174.028C42.3728 175.485 41.9472 176.938 41.4938 178.376C41.043 179.814 40.5437 181.233 39.9553 182.583C38.7581 185.29 37.0414 187.725 35.0328 189.941C33.0242 192.156 30.8055 194.246 28.7333 196.509C28.2079 197.068 27.7133 197.657 27.2053 198.234C26.7266 198.837 26.2213 199.415 25.7706 200.041L25.0791 200.965L24.4151 201.898C23.9773 202.523 23.5422 203.15 23.1164 203.784C21.4156 206.322 19.7989 208.934 18.5137 211.742C17.8749 213.144 17.3235 214.607 17.0083 216.153C16.8474 216.926 16.7725 217.708 16.727 218.474C16.6726 219.245 16.6633 220.009 16.6424 220.77C16.6069 222.293 16.5906 223.802 16.4646 225.293C16.3437 226.779 16.1043 228.252 15.5808 229.599L15.4854 229.852C15.4502 229.935 15.4096 230.015 15.3729 230.094L15.1388 230.578L14.6182 231.616L14.3566 232.138C14.2694 232.311 14.2059 232.496 14.1292 232.675L13.6903 233.758C13.1821 235.23 12.8064 236.749 12.5856 238.285C12.1782 241.366 12.266 244.421 12.0298 247.409C11.7846 250.396 11.2446 253.342 10.2923 256.17L10.2838 256.188C10.1584 256.569 10.3637 256.981 10.7426 257.109C11.1215 257.237 11.5337 257.031 11.6618 256.653C11.6679 256.639 11.6726 256.622 11.6761 256.608L11.681 256.597Z" fill="#83A642"></path><path d="M120.281 322.001C119.612 321.677 118.969 321.298 118.337 320.909C118.019 320.719 117.717 320.502 117.403 320.308C117.099 320.096 116.789 319.895 116.493 319.678C115.892 319.251 115.3 318.809 114.726 318.351L113.865 317.663C113.58 317.428 113.307 317.183 113.027 316.944C112.745 316.711 112.473 316.463 112.201 316.215C111.934 315.963 111.648 315.731 111.388 315.472C110.862 314.959 110.316 314.465 109.797 313.943L109 313.179L108.213 312.4C107.695 311.891 107.117 311.357 106.567 310.839C106.03 310.301 105.41 309.844 104.844 309.334C104.563 309.079 104.25 308.856 103.952 308.622L103.056 307.914C101.818 307.023 100.536 306.181 99.1436 305.527C97.7537 304.875 96.2824 304.371 94.7613 304.077C93.9999 303.925 93.2275 303.838 92.457 303.774C92.0719 303.749 91.6871 303.73 91.3077 303.72C90.9282 303.711 90.5614 303.687 90.2398 303.656L90.1942 303.651C89.7932 303.612 89.4367 303.904 89.3988 304.303C89.3597 304.704 89.6517 305.06 90.0501 305.098C90.0774 305.101 90.1099 305.1 90.1384 305.101C90.3422 305.096 90.5617 305.099 90.7496 305.087L91.3162 305.059C91.687 305.039 92.0517 305.033 92.4151 305.029C92.7773 305.027 93.1385 305.035 93.5001 305.056C93.8594 305.088 94.2221 305.107 94.5771 305.169C96.0085 305.367 97.4113 305.791 98.7425 306.391L99.7274 306.867C100.052 307.037 100.359 307.238 100.677 307.421C100.834 307.516 100.994 307.606 101.147 307.703L101.599 308.019L102.503 308.65L103.353 309.355C103.637 309.59 103.917 309.828 104.171 310.094C104.434 310.353 104.694 310.615 104.949 310.878C105.077 311.01 105.21 311.136 105.331 311.276L105.688 311.698L107.128 313.4L107.872 314.264C108.128 314.546 108.396 314.818 108.663 315.089C109.728 316.179 110.904 317.161 112.117 318.083C112.426 318.306 112.733 318.535 113.045 318.751L113.997 319.388C114.646 319.789 115.303 320.181 115.98 320.534C116.317 320.712 116.665 320.871 117.006 321.039C117.355 321.198 117.703 321.35 118.059 321.487C118.766 321.77 119.491 322.008 120.244 322.156C120.289 322.164 120.333 322.137 120.341 322.092C120.349 322.055 120.327 322.019 120.297 322.002L120.292 321.999L120.281 322.001Z" fill="#83A642"></path><path d="M123.992 309.153C121.901 308.604 119.803 308.134 117.693 307.689C115.586 307.244 113.473 306.813 111.35 306.435C107.107 305.676 102.849 305.013 98.5738 304.441C90.0207 303.345 81.4108 302.618 72.7799 302.426C68.4644 302.306 64.144 302.334 59.8279 302.463L56.5917 302.582L53.3562 302.769C52.2775 302.824 51.2017 302.936 50.1252 303.021C49.0503 303.117 47.9722 303.192 46.8969 303.323L43.6728 303.678L40.46 304.112C39.9259 304.187 39.389 304.254 38.8551 304.336L37.2539 304.6C36.1879 304.78 35.1174 304.942 34.0588 305.154L30.8779 305.795L30.0828 305.956L29.2922 306.143L27.7136 306.517C25.6 306.975 23.5277 307.606 21.4419 308.176C21.0541 308.28 20.8267 308.68 20.9325 309.065C21.037 309.447 21.4266 309.676 21.8081 309.578L21.8339 309.571C25.9796 308.527 30.1492 307.591 34.367 306.888C38.5869 306.208 42.8203 305.596 47.0815 305.226C55.6005 304.461 64.168 304.163 72.7318 304.369C73.8034 304.383 74.8731 304.423 75.9429 304.462C77.0126 304.501 78.0834 304.532 79.1537 304.59L82.3626 304.744L85.5702 304.941C89.8453 305.238 94.1168 305.59 98.3812 306.054C102.646 306.49 106.905 307.022 111.15 307.644C115.397 308.251 119.638 308.944 123.845 309.759L123.85 309.762C124.018 309.792 124.181 309.682 124.215 309.512C124.246 309.351 124.145 309.195 123.989 309.151L123.992 309.153Z" fill="#83A642"></path><path d="M83.2413 304.098C85.9146 303.055 88.6072 302.095 91.3121 301.156C92.6659 300.688 94.0171 300.218 95.3807 299.776L99.4744 298.459C102.128 297.644 104.888 297.089 107.683 296.646C110.479 296.214 113.308 295.89 116.156 295.581C116.223 295.574 116.271 295.513 116.263 295.446C116.258 295.389 116.211 295.344 116.154 295.337C114.717 295.178 113.28 295.131 111.839 295.134C110.399 295.14 108.955 295.202 107.517 295.337C107.155 295.364 106.797 295.412 106.438 295.454C106.077 295.494 105.72 295.539 105.361 295.597C105.003 295.651 104.642 295.698 104.284 295.759L103.214 295.969C101.79 296.277 100.377 296.673 99.0177 297.251C97.6962 297.802 96.3918 298.364 95.052 298.865C93.7176 299.375 92.3634 299.83 91.0091 300.279C88.2964 301.173 85.5599 302.007 82.7913 302.718C82.4021 302.818 82.1668 303.215 82.2675 303.604C82.3683 303.993 82.762 304.227 83.1512 304.127C83.1796 304.121 83.2104 304.109 83.2348 304.098L83.2413 304.098Z" fill="#83A642"></path><path d="M85.0948 332.724C84.0787 332.383 83.0812 331.92 82.1302 331.405C81.1766 330.888 80.2403 330.341 79.3512 329.72C77.562 328.501 75.8701 327.143 74.2865 325.668C73.884 325.308 73.499 324.924 73.1104 324.548L72.5281 323.984L71.9697 323.395L70.8501 322.209L69.7016 321.01C68.1488 319.434 66.5443 317.907 64.8692 316.457C64.4611 316.082 64.0304 315.735 63.6085 315.376C63.1803 315.023 62.7697 314.653 62.3277 314.316C61.8907 313.976 61.4625 313.623 61.0319 313.276C60.5974 312.93 60.1504 312.604 59.7096 312.265C59.2687 311.926 58.8242 311.594 58.371 311.275C57.919 310.953 57.4707 310.623 57.0123 310.308C56.0833 309.697 55.159 309.069 54.1899 308.51C53.2407 307.922 52.2343 307.422 51.2367 306.911L49.6977 306.221L49.3125 306.052L48.9174 305.904L48.1259 305.61C46.007 304.846 43.7814 304.298 41.5042 304.172C41.105 304.149 40.7606 304.457 40.7384 304.856C40.7192 305.228 40.9817 305.551 41.3405 305.612L41.351 305.617C43.444 305.975 45.4797 306.601 47.4688 307.368L48.2122 307.663L48.5865 307.808L48.9521 307.971L50.4149 308.632C51.3728 309.118 52.3455 309.573 53.2814 310.107C54.2383 310.603 55.1571 311.174 56.0895 311.722C56.5496 312.006 57.0022 312.306 57.4586 312.598L58.14 313.04L58.8053 313.509C60.5985 314.732 62.287 316.106 63.9403 317.52L65.1632 318.6L66.3547 319.714L66.9486 320.275L67.5273 320.847C67.9122 321.231 68.3074 321.607 68.6822 321.998L69.8119 323.176L70.982 324.356L71.5715 324.947L72.1851 325.514C72.5958 325.89 72.9913 326.279 73.4285 326.626C75.1228 328.069 76.9292 329.388 78.8656 330.49C80.8007 331.587 82.8303 332.543 85.0324 332.996C85.1108 333.013 85.186 332.962 85.2032 332.884C85.218 332.81 85.177 332.74 85.1075 332.717L85.0944 332.711L85.0948 332.724Z" fill="#83A642"></path><path d="M68.8281 292.368C68.3858 292.928 67.9281 293.493 67.4501 294.026C66.9774 294.568 66.49 295.094 65.9972 295.61C65.0063 296.641 63.9603 297.611 62.8724 298.52C62.3365 298.985 61.7615 299.396 61.2026 299.828C60.9191 300.038 60.6207 300.226 60.3317 300.428L59.8976 300.729L59.4471 301.002L58.5488 301.552C58.2381 301.718 57.9271 301.877 57.6204 302.048C57.4657 302.133 57.3137 302.219 57.1577 302.3L56.6783 302.519C56.3591 302.662 56.0415 302.816 55.7239 302.969L55.6701 302.995C55.3103 303.17 55.1605 303.603 55.3357 303.963C55.5013 304.302 55.8977 304.454 56.2432 304.324C56.5926 304.192 56.9445 304.054 57.2923 303.912L57.8159 303.701C57.9864 303.623 58.154 303.538 58.3243 303.454C58.6624 303.291 58.9949 303.112 59.3316 302.946C59.656 302.757 59.9749 302.56 60.2964 302.363C61.5708 301.57 62.7637 300.655 63.8523 299.635C64.9516 298.625 65.9575 297.528 66.8651 296.353C67.7674 295.175 68.5665 293.93 69.2122 292.589C69.2636 292.478 69.2183 292.348 69.1104 292.298C69.0157 292.254 68.9074 292.28 68.8447 292.36L68.8386 292.373L68.8281 292.368Z" fill="#83A642"></path><path d="M85.3021 242.384C83.6147 244.528 81.966 246.706 80.3249 248.881L75.3964 255.398C73.7407 257.557 72.0983 259.728 70.4091 261.856C68.7214 263.987 67.0256 266.108 65.2373 268.173L65.2348 268.178C65.1594 268.265 65.1684 268.397 65.255 268.472C65.3322 268.54 65.4413 268.54 65.5201 268.48C66.0623 268.057 66.5963 267.617 67.1303 267.177C67.6536 266.726 68.1516 266.253 68.6627 265.787C69.6612 264.836 70.6315 263.857 71.5606 262.842C73.4333 260.822 75.1877 258.706 76.8731 256.539C78.5637 254.374 80.1842 252.16 81.7318 249.896C83.2794 247.633 84.7806 245.338 86.1467 242.949C86.2864 242.703 86.2022 242.396 85.9579 242.253C85.7348 242.127 85.4587 242.184 85.3045 242.378L85.3021 242.384Z" fill="#83A642"></path><path d="M80.4115 263.565C78.0554 266.204 75.63 268.78 73.1629 271.308C72.5488 271.941 71.9213 272.561 71.2952 273.186L70.3586 274.12L69.4047 275.037C68.7651 275.642 68.1483 276.274 67.4939 276.863L65.551 278.655C64.2316 279.821 62.9296 281.005 61.5643 282.111C60.2367 283.267 58.8241 284.31 57.4494 285.403C54.6295 287.491 51.7133 289.436 48.6448 291.143L48.632 291.15C48.3866 291.286 48.2995 291.597 48.4363 291.84C48.565 292.072 48.8533 292.162 49.0917 292.055C52.36 290.572 55.4259 288.684 58.341 286.611C61.2317 284.501 63.9595 282.191 66.583 279.774C67.868 278.537 69.1584 277.31 70.3926 276.024L71.3219 275.064L72.2312 274.084L73.1405 273.105C73.4428 272.778 73.7317 272.439 74.0272 272.106C76.3826 269.44 78.6432 266.689 80.6929 263.779C80.7491 263.699 80.7303 263.588 80.6508 263.532C80.5765 263.478 80.4743 263.491 80.4178 263.558L80.4115 263.565Z" fill="#83A642"></path><path d="M60.24 271.132C60.0217 271.354 59.8113 271.621 59.6096 271.876L59.0113 272.654C58.8124 272.917 58.6028 273.168 58.3895 273.428C58.1736 273.686 57.9429 273.927 57.6961 274.197L57.6937 274.202C57.6559 274.242 57.6602 274.302 57.6976 274.338C57.7202 274.358 57.749 274.365 57.7762 274.362C58.146 274.31 58.5074 274.186 58.84 274.015C59.1727 273.843 59.4862 273.636 59.7701 273.397C60.0541 273.158 60.3166 272.896 60.5434 272.608C60.7699 272.313 60.9652 272.016 61.1091 271.645C61.2131 271.379 61.0825 271.082 60.8173 270.978C60.6202 270.899 60.4024 270.955 60.2636 271.095L60.2333 271.126L60.24 271.132Z" fill="#83A642"></path><path d="M52.5203 278.841C52.2949 278.858 52.0953 278.916 51.9078 278.989C51.7151 279.059 51.5385 279.15 51.3662 279.252C51.1964 279.356 51.0309 279.471 50.8802 279.603C50.7269 279.733 50.5818 279.88 50.4624 280.061C50.3641 280.211 50.4061 280.41 50.5518 280.509C50.6206 280.554 50.699 280.571 50.7714 280.56C50.99 280.531 51.1815 280.463 51.3661 280.382C51.5522 280.305 51.7259 280.207 51.8955 280.097C52.0638 279.989 52.2226 279.868 52.3691 279.725C52.5171 279.586 52.6554 279.432 52.7692 279.235C52.8435 279.11 52.8012 278.946 52.6731 278.871C52.6255 278.842 52.5706 278.83 52.5201 278.835L52.5203 278.841Z" fill="#83A642"></path><path d="M45.944 278.717C45.1057 279.818 44.2437 280.909 43.3603 281.977C42.9318 282.521 42.4676 283.038 42.0299 283.574C41.5855 284.103 41.1197 284.616 40.6715 285.147C38.846 287.231 36.9379 289.237 34.9119 291.118L33.3782 292.511L31.7908 293.841C31.2716 294.297 30.7172 294.705 30.1697 295.126L29.349 295.756L28.9373 296.071L28.5107 296.362C26.2691 297.97 23.8778 299.336 21.4162 300.564L21.3879 300.576C21.1371 300.703 21.0342 301.007 21.1608 301.258C21.2849 301.508 21.5864 301.609 21.8348 301.488L23.7404 300.568C24.054 300.41 24.3797 300.267 24.6876 300.093L25.6021 299.564L26.5178 299.033C26.8203 298.85 27.1377 298.691 27.4226 298.484L29.1752 297.301C31.4639 295.66 33.6781 293.911 35.6914 291.947C37.7208 290.004 39.6607 287.971 41.4514 285.811C43.2329 283.643 44.8907 281.376 46.2878 278.934C46.3421 278.838 46.31 278.714 46.2111 278.658C46.1226 278.608 46.009 278.632 45.949 278.713L45.9466 278.718L45.944 278.717Z" fill="#83A642"></path><path d="M80.4721 218.849C78.2938 220.266 76.2279 221.799 74.2018 223.405C73.1899 224.206 72.1849 225.019 71.2135 225.87C70.2259 226.701 69.2773 227.578 68.3247 228.451C66.4368 230.214 64.6389 232.079 62.9342 234.027C61.2588 236 59.71 238.087 58.3765 240.303C58.3171 240.404 58.3482 240.536 58.4486 240.596C58.5437 240.653 58.6638 240.629 58.7289 240.544L58.7313 240.538C60.2855 238.502 61.9478 236.57 63.6899 234.708C65.4522 232.864 67.2825 231.087 69.1624 229.362C70.1157 228.515 71.0637 227.659 72.0397 226.833C72.5224 226.414 73.0105 226.004 73.5039 225.596C73.9946 225.187 74.4786 224.772 74.9801 224.375C75.9697 223.567 76.9754 222.78 77.9852 221.998C78.9883 221.21 80.0193 220.444 81.0391 219.695L81.0493 219.687C81.2743 219.52 81.3223 219.203 81.1561 218.975C80.9953 218.756 80.6926 218.705 80.4708 218.852L80.4721 218.849Z" fill="#83A642"></path><path d="M55.1056 245.27C53.9658 246.091 53.053 247.085 52.1778 248.121C51.7421 248.639 51.337 249.18 50.9357 249.72C50.5478 250.273 50.1625 250.827 49.8035 251.393C49.0882 252.526 48.4025 253.651 47.7173 254.795C47.028 255.927 46.3614 257.086 45.6625 258.205L45.6564 258.218C45.6141 258.282 45.636 258.365 45.6981 258.404C45.7497 258.437 45.817 258.43 45.8613 258.39C46.8814 257.469 47.7213 256.425 48.5492 255.367C49.3731 254.31 50.1332 253.197 50.8742 252.098C51.2414 251.549 51.6048 251.001 51.988 250.465C52.35 249.913 52.7414 249.388 53.1153 248.845C53.8807 247.783 54.6599 246.705 55.4793 245.712L55.4955 245.691C55.5984 245.566 55.5814 245.382 55.4564 245.279C55.3527 245.193 55.2059 245.192 55.1004 245.268L55.1056 245.27Z" fill="#83A642"></path><path d="M171.891 188.186C168.49 186.462 165.042 184.847 161.576 183.269C158.113 181.686 154.627 180.166 151.13 178.663L140.621 174.206C138.868 173.468 137.122 172.715 135.36 171.989L132.68 170.945L131.342 170.423C130.897 170.245 130.438 170.109 129.986 169.946L127.268 169.019L126.588 168.787C126.36 168.713 126.131 168.648 125.901 168.58L124.526 168.171C123.608 167.902 122.693 167.618 121.772 167.362L118.992 166.65L117.603 166.293L116.203 165.978L113.405 165.354C112.469 165.159 111.532 164.986 110.592 164.805L109.183 164.538C108.714 164.451 108.241 164.382 107.77 164.3C104.007 163.637 100.209 163.182 96.4102 162.818C92.6075 162.469 88.8036 162.212 84.9732 162.212C84.7746 162.212 84.6104 162.373 84.6096 162.574C84.6088 162.769 84.7626 162.927 84.9538 162.936L84.9667 162.935C92.5312 163.294 100.086 164.267 107.529 165.645C114.98 167.02 122.324 168.95 129.446 171.465C129.891 171.624 130.344 171.764 130.781 171.941L132.097 172.463L134.73 173.504L139.99 175.711L150.513 180.129C154.028 181.587 157.549 183.024 161.1 184.398C164.648 185.778 168.209 187.122 171.819 188.354C171.866 188.37 171.916 188.345 171.934 188.299C171.948 188.254 171.928 188.21 171.889 188.189L171.891 188.186Z" fill="#83A642"></path><path d="M159.444 190.249C159.456 190.271 159.467 190.289 159.482 190.311C159.494 190.327 159.509 190.343 159.522 190.356L159.533 190.367C159.533 190.367 159.556 190.381 159.568 190.39C159.594 190.402 159.62 190.414 159.646 190.42C159.935 190.432 159.941 190.179 159.946 190.194C159.957 190.145 159.957 190.123 159.959 190.098C159.965 190.002 159.965 189.934 159.96 189.861C159.952 189.72 159.937 189.588 159.919 189.455C159.878 189.19 159.831 188.934 159.77 188.679C159.648 188.171 159.5 187.67 159.32 187.183C158.964 186.205 158.508 185.267 157.966 184.372C157.42 183.481 156.798 182.623 156.041 181.877C155.291 181.135 154.394 180.469 153.359 180.19C153.284 180.171 153.206 180.215 153.188 180.289C153.174 180.347 153.195 180.405 153.24 180.438L153.243 180.44C154.054 181.028 154.698 181.756 155.279 182.538C155.854 183.326 156.375 184.161 156.857 185.018C157.34 185.879 157.795 186.759 158.245 187.644C158.467 188.089 158.7 188.53 158.918 188.977C159.026 189.2 159.143 189.424 159.244 189.647C159.298 189.758 159.351 189.87 159.395 189.976L159.455 190.116C159.455 190.116 159.46 190.132 159.465 190.115C159.47 190.159 159.46 189.946 159.715 189.956C159.733 189.958 159.755 189.965 159.773 189.976C159.78 189.98 159.791 189.985 159.796 189.993L159.799 189.995C159.799 189.995 159.804 190.004 159.806 190.007C159.803 190.006 159.793 190.001 159.785 189.998L159.695 189.956C159.592 189.918 159.474 189.965 159.428 190.069C159.402 190.127 159.411 190.195 159.441 190.248L159.444 190.249Z" fill="#83A642"></path><path d="M158.86 169.906C156.319 169.347 153.757 168.931 151.183 168.596C148.607 168.266 146.015 168.038 143.414 167.921C140.81 167.828 138.2 167.854 135.587 168.051C132.977 168.288 130.373 168.701 127.816 169.41C127.429 169.519 127.203 169.916 127.31 170.305C127.419 170.691 127.816 170.918 128.205 170.81C128.213 170.808 128.219 170.807 128.227 170.805L128.249 170.799C130.66 170.037 133.169 169.542 135.706 169.22C138.25 168.936 140.821 168.818 143.398 168.816C145.973 168.838 148.551 168.973 151.12 169.207C153.69 169.447 156.258 169.769 158.795 170.231L158.798 170.233C158.889 170.249 158.975 170.187 158.991 170.098C159.007 170.01 158.95 169.926 158.862 169.907L158.86 169.906Z" fill="#83A642"></path><path d="M128.185 180.663C126.396 179.156 124.662 177.576 122.982 175.964C121.303 174.345 119.657 172.7 118.079 170.985C117.692 170.565 117.273 170.111 116.841 169.683C116.414 169.252 115.967 168.836 115.509 168.431C114.595 167.622 113.6 166.898 112.557 166.244C111.502 165.609 110.397 165.045 109.222 164.633C108.637 164.425 108.036 164.252 107.42 164.125C107.113 164.063 106.802 164.008 106.485 163.973C106.327 163.957 106.168 163.941 106.005 163.932C105.836 163.924 105.696 163.917 105.483 163.92C105.082 163.929 104.766 164.259 104.774 164.66C104.784 165.032 105.07 165.332 105.432 165.365L105.497 165.37C105.578 165.376 105.733 165.393 105.854 165.414C105.986 165.434 106.118 165.46 106.25 165.486C106.515 165.542 106.78 165.604 107.047 165.677C107.576 165.827 108.102 166.011 108.616 166.22C109.643 166.647 110.636 167.175 111.58 167.789C112.526 168.399 113.425 169.088 114.276 169.839C114.705 170.211 115.121 170.596 115.525 171.001C115.931 171.401 116.308 171.816 116.734 172.248C118.389 173.961 120.117 175.609 121.983 177.096L122.68 177.654L123.394 178.19C123.872 178.547 124.356 178.896 124.852 179.226C125.842 179.894 126.852 180.523 127.932 181.057C128.046 181.113 128.186 181.066 128.243 180.952C128.289 180.852 128.265 180.738 128.184 180.672L128.176 180.668L128.185 180.663Z" fill="#83A642"></path><path d="M194.499 105.384C190.45 106.344 186.441 107.416 182.432 108.517C178.427 109.616 174.438 110.784 170.463 111.99C166.485 113.189 162.525 114.446 158.574 115.731C156.6 116.378 154.63 117.038 152.664 117.715C151.682 118.058 150.695 118.371 149.719 118.737L146.783 119.821C144.812 120.509 142.903 121.353 140.967 122.137C139.996 122.521 139.051 122.962 138.102 123.394L135.253 124.692L132.448 126.08C131.513 126.548 130.57 126.993 129.662 127.509L126.912 129.006C125.997 129.508 125.106 130.055 124.202 130.575L122.85 131.365C122.402 131.633 121.963 131.916 121.519 132.19C120.637 132.746 119.742 133.287 118.868 133.861L116.267 135.609L113.711 137.424C110.326 139.883 107.071 142.48 104.02 145.411C103.73 145.689 103.723 146.146 104.001 146.436C104.273 146.719 104.717 146.733 105.007 146.474L105.034 146.452C106.538 145.102 108.149 143.79 109.768 142.523L112.231 140.659C113.068 140.056 113.887 139.435 114.734 138.846L117.278 137.09L119.862 135.391C120.724 134.825 121.605 134.291 122.476 133.739C122.913 133.468 123.347 133.186 123.79 132.922L125.123 132.14C128.66 130.016 132.331 128.128 136.011 126.269L138.813 124.957C139.745 124.52 140.676 124.072 141.631 123.684C143.534 122.888 145.413 122.033 147.355 121.331L150.247 120.23C151.21 119.859 152.197 119.533 153.171 119.179C155.122 118.479 157.083 117.812 159.039 117.128C162.959 115.778 166.887 114.453 170.835 113.187C178.728 110.655 186.663 108.22 194.66 106.05L194.662 106.052C194.847 106 194.957 105.811 194.906 105.624C194.858 105.445 194.672 105.336 194.492 105.377L194.499 105.384Z" fill="#83A642"></path><path d="M167.28 99.5304C165.582 101.436 163.837 103.31 162.077 105.158C160.311 107.003 158.523 108.832 156.693 110.609C154.86 112.385 153.012 114.144 151.09 115.814C149.173 117.483 147.21 119.103 145.148 120.545L145.146 120.55C144.814 120.777 144.735 121.23 144.962 121.559C145.191 121.886 145.643 121.968 145.974 121.738C145.979 121.734 145.988 121.729 145.993 121.725C148.077 120.165 150.011 118.455 151.896 116.704C153.785 114.954 155.585 113.125 157.368 111.278C159.148 109.43 160.88 107.54 162.589 105.633C164.296 103.722 165.979 101.793 167.622 99.8205C167.702 99.7235 167.688 99.5823 167.593 99.5032C167.499 99.4242 167.362 99.4372 167.279 99.5266L167.28 99.5304Z" fill="#83A642"></path><path d="M127.971 114.268C126.577 116.152 125.23 118.067 123.904 119.998C122.58 121.931 121.283 123.882 120.022 125.859C117.513 129.82 115.116 133.865 113.119 138.163C112.95 138.526 113.108 138.958 113.471 139.126C113.835 139.295 114.266 139.137 114.435 138.774C114.439 138.766 114.442 138.758 114.446 138.751L114.451 138.74C116.231 134.475 118.455 130.363 120.793 126.329C121.968 124.315 123.184 122.32 124.428 120.344C125.675 118.37 126.945 116.406 128.258 114.476C128.313 114.392 128.293 114.284 128.214 114.228C128.133 114.174 128.028 114.193 127.971 114.268Z" fill="#83A642"></path><path d="M67.5337 143.614C68.5569 142.803 69.5001 141.916 70.4121 140.987C71.3189 140.054 72.1882 139.085 73.007 138.074C73.8337 137.066 74.6113 136.019 75.3449 134.936C75.7164 134.398 76.0654 133.846 76.4182 133.293C76.7553 132.733 77.0898 132.172 77.4082 131.597C78.0401 130.45 78.6507 129.287 79.1677 128.078C79.4415 127.482 79.6731 126.866 79.9243 126.257C80.1454 125.636 80.3928 125.028 80.5864 124.398C80.6877 124.083 80.7969 123.772 80.8891 123.457L81.1526 122.504C81.337 121.873 81.4625 121.224 81.622 120.584L81.7992 119.611C81.86 119.287 81.9155 118.961 81.9554 118.634L82.0909 117.653C82.1334 117.327 82.1525 116.997 82.1833 116.669C82.2501 116.009 82.2691 115.362 82.2959 114.712L82.3632 112.762C82.3713 111.463 82.3653 110.168 82.3606 108.876C82.3339 107.584 82.3006 106.291 82.2895 105L82.2351 103.064L82.2056 101.13C82.1646 99.8407 82.1393 98.5521 82.1528 97.2624C82.1573 95.9716 82.1735 94.6831 82.2143 93.39C82.2842 90.8081 82.3462 88.2224 82.2333 85.6483C82.0074 80.5 81.6184 75.3656 81.2346 70.2335C80.8625 65.1038 80.5603 59.9616 80.7246 54.8346L80.7979 52.9135C80.8171 52.2728 80.8779 51.6322 80.9166 50.991C80.9941 49.7085 81.1118 48.4288 81.2204 47.148C81.4585 44.5898 81.7382 42.0316 82.1078 39.4865C82.8237 34.3982 83.7243 29.3188 84.9745 24.3411L84.9769 24.3359C85.013 24.1894 84.923 24.0388 84.7765 24.0027C84.63 23.9667 84.4806 24.0541 84.4434 24.2032C83.8367 26.7214 83.308 29.2438 82.8315 31.7778C82.3525 34.3105 81.914 36.8524 81.5316 39.4044C80.7915 44.5103 80.1425 49.6265 79.8587 54.7972C79.8111 55.4439 79.7959 56.0896 79.7807 56.7354L79.7221 58.673L79.6634 62.5466L79.6396 66.4205L79.6431 70.291C79.6577 75.4531 79.8006 80.6076 80.0587 85.7484C80.1962 88.3179 80.4841 90.8806 80.7563 93.4423C80.8867 94.7253 81.0079 96.0072 81.0902 97.2903C81.1725 98.5734 81.2147 99.8602 81.2387 101.145C81.3342 106.277 81.1011 111.449 80.4639 116.478C79.8022 121.464 78.268 126.316 76.0026 130.847C75.4379 131.98 74.8258 133.091 74.1821 134.187C73.5344 135.279 72.8472 136.351 72.1282 137.403C70.6783 139.497 69.1086 141.533 67.3682 143.412L67.3658 143.418C67.3154 143.471 67.319 143.553 67.3724 143.603C67.4218 143.649 67.4945 143.65 67.5452 143.61L67.5337 143.614Z" fill="#83A642"></path><path d="M76.6684 132.574C76.7274 128.845 75.6673 125.3 74.1463 121.982L73.5435 120.751C73.3357 120.344 73.0985 119.952 72.8768 119.555L72.539 118.96C72.4217 118.764 72.2878 118.577 72.1654 118.386L71.4068 117.243L70.5667 116.159L70.146 115.617C70.0007 115.441 69.8402 115.277 69.6886 115.107L68.7624 114.098C68.4503 113.764 68.0965 113.472 67.7667 113.155C67.4281 112.851 67.1006 112.523 66.7536 112.243L65.7178 111.394C65.0276 110.827 64.3161 110.285 63.6109 109.736C62.1904 108.654 60.716 107.633 59.2095 106.674C57.7067 105.707 56.1422 104.852 54.6435 103.938C53.1412 103.032 51.7514 101.974 50.4727 100.765C50.3846 100.68 50.2418 100.684 50.1587 100.773C50.078 100.857 50.0767 100.991 50.1558 101.076C51.3546 102.401 52.7326 103.588 54.2081 104.6C55.6788 105.623 57.1666 106.567 58.6007 107.585C60.0335 108.599 61.4238 109.671 62.7752 110.791C63.4459 111.359 64.1203 111.919 64.7747 112.508L65.7582 113.387C66.0911 113.676 66.3779 113.988 66.6877 114.286C66.9873 114.592 67.3098 114.876 67.5905 115.201L68.425 116.181C68.5622 116.347 68.7069 116.504 68.8364 116.673L69.2149 117.195L69.9667 118.235C70.8886 119.681 71.7456 121.17 72.4117 122.753C73.0856 124.334 73.6271 125.965 74.0837 127.62C74.3062 128.45 74.521 129.282 74.7074 130.121C74.9001 130.953 75.0677 131.818 75.2169 132.627L75.2278 132.686C75.3001 133.081 75.6789 133.34 76.0742 133.268C76.4203 133.205 76.6623 132.904 76.6694 132.565L76.6684 132.574Z" fill="#83A642"></path><path d="M82.2064 94.2921C81.4266 90.7841 79.3031 88.0119 77.1679 85.3687L76.3413 84.3927L75.4794 83.4514C74.9094 82.8186 74.2926 82.2312 73.6911 81.6318L72.7548 80.768L72.2867 80.3361L71.8034 79.9228C71.1554 79.3753 70.5071 78.8213 69.8665 78.3061C68.5757 77.2616 67.29 76.213 66.0258 75.1457C64.7629 74.0757 63.5127 72.9989 62.3156 71.8699C61.1223 70.7395 59.967 69.5756 58.9348 68.312C57.9026 67.0485 57.0038 65.6837 56.2593 64.221C56.1807 64.0596 55.9855 63.9977 55.8268 64.0776C55.677 64.152 55.6133 64.3304 55.6723 64.4858C56.2965 66.0559 57.1252 67.5577 58.1014 68.9488C59.0915 70.3305 60.1907 71.622 61.3528 72.8403C62.5136 74.0612 63.7146 75.2368 64.9456 76.3687C66.1741 77.5059 67.4138 78.6258 68.6686 79.7272C69.3063 80.2763 69.9052 80.8265 70.5078 81.3753L70.9586 81.7895L71.3929 82.2185L72.2603 83.0791C73.376 84.2662 74.489 85.4522 75.4804 86.7416C76.4869 88.0124 77.4082 89.3493 78.2655 90.7139L80.8402 94.7806L80.881 94.8444C81.0972 95.1848 81.5468 95.2849 81.886 95.0713C82.1526 94.9039 82.2707 94.5876 82.2078 94.2959L82.2064 94.2921Z" fill="#83A642"></path><path d="M98.1049 95.1788C97.8335 96.3072 97.3881 97.4379 96.8734 98.5044C96.3563 99.5762 95.7495 100.6 95.0777 101.577C93.7568 103.553 92.1082 105.283 90.3245 106.828L89.6529 107.406L88.9479 107.994L88.239 108.583L87.5436 109.191C86.6165 110.002 85.7231 110.857 84.847 111.73C83.9765 112.612 83.1249 113.522 82.3667 114.521C82.1752 114.768 81.9877 115.02 81.8135 115.284C81.6339 115.54 81.4664 115.811 81.3015 116.083C81.1393 116.357 80.9837 116.636 80.8427 116.926C80.6968 117.226 80.5786 117.495 80.4516 117.864C80.3236 118.243 80.5263 118.654 80.9052 118.782C81.2094 118.885 81.5333 118.773 81.716 118.532L81.7772 118.448L82.2673 117.793L82.7981 117.105C83.1655 116.652 83.5289 116.193 83.9081 115.742C84.6637 114.839 85.4245 113.931 86.2316 113.055C87.0454 112.185 87.879 111.328 88.7527 110.508L89.4008 109.884L90.0664 109.278L90.7343 108.667L91.4171 108.024C91.642 107.809 91.875 107.603 92.0904 107.374L92.729 106.688C93.1641 106.241 93.5472 105.746 93.9504 105.271C94.1553 105.037 94.3349 104.781 94.5212 104.532C94.7049 104.281 94.8938 104.033 95.0761 103.778C95.4155 103.254 95.7775 102.751 96.0825 102.204C96.7298 101.142 97.2647 100.011 97.7131 98.8529C98.1575 97.6898 98.5223 96.512 98.682 95.2453C98.702 95.085 98.5901 94.9403 98.4298 94.9202C98.2813 94.9024 98.145 94.9959 98.1102 95.1397L98.1045 95.1659L98.1049 95.1788Z" fill="#83A642"></path><path d="M187.748 122.427C185.215 121.371 182.701 120.479 180.125 119.672C177.555 118.875 174.95 118.193 172.307 117.676L171.315 117.483C170.985 117.416 170.654 117.356 170.321 117.309L168.324 116.999C167.656 116.9 166.985 116.844 166.315 116.764L165.311 116.652C164.975 116.624 164.637 116.608 164.301 116.586L162.279 116.463L160.25 116.442L159.236 116.435L158.22 116.485L156.19 116.578C155.79 116.597 155.479 116.936 155.499 117.335C155.518 117.735 155.857 118.046 156.256 118.026C156.263 118.026 156.269 118.026 156.276 118.026L156.325 118.023L158.293 117.865L159.278 117.789L160.266 117.771L162.243 117.739L164.221 117.826C164.55 117.841 164.882 117.851 165.211 117.873L166.198 117.967C166.854 118.035 167.515 118.079 168.169 118.166L170.134 118.448L170.624 118.522L171.113 118.615L172.089 118.8C174.686 119.306 177.267 119.929 179.786 120.747L181.669 121.385C182.29 121.612 182.911 121.846 183.522 122.095C184.743 122.586 185.969 123.13 187.107 123.732L187.131 123.743C187.484 123.933 187.925 123.795 188.113 123.441C188.3 123.086 188.165 122.646 187.81 122.459C187.789 122.449 187.768 122.439 187.75 122.431L187.748 122.427Z" fill="#83A642"></path></g></svg>