<svg xmlns="http://www.w3.org/2000/svg" width="391" height="214" viewBox="0 0 391 214" fill="none"><g clip-path="url(#clip0_581_38290)"><path d="M247.414 90.2016C231.326 78.0369 218.275 60.8378 223.965 39.6044" stroke="#AECD63" stroke-opacity="0.4" stroke-width="1.40947" stroke-linecap="round" stroke-linejoin="round"></path><path d="M177.935 106.351C178.11 103.929 179.74 98.7648 184.852 97.4893" stroke="#AECD63" stroke-opacity="0.4" stroke-width="1.40947" stroke-linecap="round" stroke-linejoin="round"></path><path d="M202.208 91.6373C218.268 94.319 249.512 102.47 257.195 100.81C268.948 98.2695 259.851 89.9413 249.081 72.1039C238.615 54.77 239.351 50.3545 239.613 32.3929" stroke="#AECD63" stroke-opacity="0.4" stroke-width="1.40947" stroke-linecap="round" stroke-linejoin="round"></path><path d="M246.604 146.445C237.379 147.447 213.943 146.75 194.001 135.953C169.074 122.458 152.329 103.545 169.01 91.48C182.399 81.7959 205.333 85.0573 207.912 85.0268" stroke="#AECD63" stroke-opacity="0.4" stroke-width="1.40947" stroke-linecap="round" stroke-linejoin="round"></path><path d="M228.236 119.074C253.892 122.776 308.834 133.155 337.468 170.317C366.101 207.479 391.202 216.739 400.173 216.724" stroke="#AECD63" stroke-opacity="0.4" stroke-width="1.40942" stroke-linecap="round" stroke-linejoin="round"></path><path d="M356.833 209.876C346.572 209.282 337.127 203.244 335.608 194.771" stroke="#AECD63" stroke-opacity="0.4" stroke-width="1.40942" stroke-linecap="round" stroke-linejoin="round"></path><path d="M332.689 183.899C323.997 173.265 300.503 150.106 276.059 142.547C245.504 133.099 186.84 127.711 191.342 110.908C195.135 96.7531 260.567 115.406 273.42 114.567C289.066 113.545 288.025 105.493 274.377 86.5348C256.879 62.2287 255.308 54.3041 254.852 38.8235" stroke="#AECD63" stroke-opacity="0.4" stroke-width="1.40947" stroke-linecap="round" stroke-linejoin="round"></path><path d="M289.781 124.829C297.906 124.097 311.068 115.845 303.117 103.697C293.179 88.5112 259.519 59.9509 283.589 25.4395" stroke="#AECD63" stroke-opacity="0.4" stroke-width="1.40947" stroke-linecap="round" stroke-linejoin="round"></path><path d="M369.962 63.1611C383.267 58.3505 411.215 54.6641 415.932 74.2431C420.574 93.5099 375.058 92.2617 410.652 133.973" stroke="#AECD63" stroke-opacity="0.4" stroke-width="1.40947" stroke-linecap="round" stroke-linejoin="round"></path><path d="M62.5439 -18.7717C72.9684 -22.7013 113.196 -32.307 111.178 -11.7905C109.346 6.82973 66.2204 9.5207 101.815 51.2317M155.892 79.6166C140.018 75.3633 128.938 66.4391 125.329 62.9007C97.7579 35.8686 108.152 -9.44962 175.007 -10.7572" stroke="#AECD63" stroke-opacity="0.4" stroke-width="1.40946" stroke-linecap="round" stroke-linejoin="round"></path><path d="M209.991 38.4766C211.559 46.4131 206.096 60.6629 187.688 61.78C164.678 63.1763 142.972 47.2266 151.034 28.538C157.485 13.5871 174.805 17.7952 191.496 12.7874C203.864 9.07652 216.526 8.02622 217.527 -9.36303" stroke="#AECD63" stroke-opacity="0.4" stroke-width="1.40948" stroke-linecap="round" stroke-linejoin="round"></path><path d="M342.573 55.7726C356.807 42.074 331.557 19.7604 318.06 6.95297C304.564 -5.85441 265.229 -37.8792 317.518 -48.1594" stroke="#AECD63" stroke-opacity="0.4" stroke-width="1.40947" stroke-linecap="round" stroke-linejoin="round"></path><path d="M285.901 267.26C300.136 253.562 274.885 231.248 261.389 218.441C247.892 205.633 208.557 173.609 260.846 163.328" stroke="#AECD63" stroke-opacity="0.4" stroke-width="1.40947" stroke-linecap="round" stroke-linejoin="round"></path><path d="M361.657 46.606C356.577 22.8838 341.29 6.39004 328.162 -0.723602C311.531 -9.73561 302.961 -22.5147 308.131 -29.2021C319.32 -43.6735 353.319 -36.0305 360.418 -14.4653C367.516 7.0998 350.114 1.29576 391.272 50.3479" stroke="#AECD63" stroke-opacity="0.4" stroke-width="1.40947" stroke-linecap="round" stroke-linejoin="round"></path><path d="M304.981 258.097C299.901 234.375 284.614 217.882 271.487 210.768C254.856 201.756 248.775 189.286 253.946 182.598C265.134 168.127 296.644 175.461 303.743 197.026C310.841 218.591 293.439 212.787 334.597 261.839" stroke="#AECD63" stroke-opacity="0.4" stroke-width="1.40947" stroke-linecap="round" stroke-linejoin="round"></path><path d="M342.186 13.6365C338.594 -47.7407 312.069 -61.0794 298.942 -68.193C282.311 -77.205 273.741 -89.9841 278.911 -96.6715C290.099 -111.143 324.099 -103.5 331.198 -81.9347C338.296 -60.3696 343.966 -9.54745 420.402 10.7433" stroke="#AECD63" stroke-opacity="0.4" stroke-width="1.40947" stroke-linecap="round" stroke-linejoin="round"></path><path d="M325.904 -58.3521C337.922 -56.7929 365.15 -45.5969 377.923 -13.287C393.89 27.1004 404.149 54.1635 429.134 60.8579" stroke="#AECD63" stroke-opacity="0.4" stroke-width="1.40947" stroke-linecap="round" stroke-linejoin="round"></path><path d="M269.234 153.133C281.252 154.693 308.48 165.888 321.254 198.198C337.22 238.586 347.479 265.649 372.464 272.343" stroke="#AECD63" stroke-opacity="0.4" stroke-width="1.40946" stroke-linecap="round" stroke-linejoin="round"></path><path d="M270.678 198.379C265.758 195.122 266.077 188.838 272.073 188.167C279.569 187.328 293.402 190.346 290.894 209.281" stroke="#AECD63" stroke-opacity="0.4" stroke-width="1.40947" stroke-linecap="round" stroke-linejoin="round"></path><path d="M173.755 48.114C164.065 44.0408 164.649 35.37 166.153 31.5438C171.881 19.649 186.49 23.0498 192.769 31.6423C199.048 40.2348 185.868 53.2055 173.755 48.114Z" stroke="#AECD63" stroke-opacity="0.4" stroke-width="1.40947" stroke-linecap="round" stroke-linejoin="round"></path><path d="M408.777 183.002C408.455 177.604 403.327 163.298 385.388 149.259C367.449 135.219 366.506 124.237 368.276 120.501" stroke="#AECD63" stroke-opacity="0.4" stroke-width="1.40947" stroke-linecap="round" stroke-linejoin="round"></path><path d="M429.795 193.688C431.68 186.587 430.261 167.587 409.504 148.403C383.558 124.423 364.124 106.136 391.804 79.7336" stroke="#AECD63" stroke-opacity="0.4" stroke-width="1.40942" stroke-linecap="round" stroke-linejoin="round"></path><path d="M400.204 206.192C377.333 194.041 340.801 172.631 334.866 140.503C328.931 108.375 358.046 86.8223 373.346 80.0619" stroke="#AECD63" stroke-opacity="0.4" stroke-width="1.40942" stroke-linecap="round" stroke-linejoin="round"></path><path d="M357.738 139.718C355.465 138.257 350.998 131.204 351.009 126.94" stroke="#AECD63" stroke-opacity="0.4" stroke-width="1.40947" stroke-linecap="round" stroke-linejoin="round"></path><path d="M181.313 74.8196C182.699 73.0158 199.577 66.1356 213.196 75.4125" stroke="#AECD63" stroke-opacity="0.4" stroke-width="1.40943" stroke-linecap="round" stroke-linejoin="round"></path><path d="M176.547 172.302C181.689 177.11 189.439 182.919 188.618 195.255" stroke="#AECD63" stroke-opacity="0.4" stroke-width="1.40945" stroke-linecap="round" stroke-linejoin="round"></path><path d="M385.705 173.334C384.133 168.315 383.821 162.68 365.366 148.294" stroke="#AECD63" stroke-opacity="0.4" stroke-width="1.40947" stroke-linecap="round" stroke-linejoin="round"></path><path d="M320.021 140.286C316.517 132.759 313.781 113.538 330.864 96.87C347.947 80.2017 336.595 68.251 327.388 63.5515C338.388 68.0442 359.8 74.2277 357.445 63.0206" stroke="#AECD63" stroke-opacity="0.4" stroke-width="1.40947" stroke-linecap="round" stroke-linejoin="round"></path><path d="M312.958 96.7067C311.688 87.9569 291.83 77.6945 293.731 70.5992C295.884 62.5643 317.711 85.2409 321.372 78.0053C325.946 68.9628 281.382 47.0159 295.76 43.3868C304.627 41.1486 318.574 57.5013 326.903 50.1207C332.307 45.3321 323.494 29.443 306.074 20.0266" stroke="#AECD63" stroke-opacity="0.4" stroke-width="1.40947" stroke-linecap="round" stroke-linejoin="round"></path><path d="M197.342 24.4972C223.187 36.443 220.994 15.2282 250.117 23.0316" stroke="#AECD63" stroke-opacity="0.4" stroke-width="1.40947" stroke-linecap="round" stroke-linejoin="round"></path><path d="M212.542 17.4263C219.308 16.451 227.44 14.0498 229.157 4.02784" stroke="#AECD63" stroke-opacity="0.4" stroke-width="1.40947" stroke-linecap="round" stroke-linejoin="round"></path><path d="M355.663 153.531C362.95 164.338 366.855 171.178 391.53 188.483C413.973 204.222 441.008 211.205 447.977 202.032C454.947 192.859 448.129 188.248 446.188 182.83C444.247 177.411 445 169.862 458.707 170.634" stroke="#AECD63" stroke-opacity="0.4" stroke-width="1.40942" stroke-linecap="round" stroke-linejoin="round"></path><path d="M163.767 136.964C206.623 159.792 219.894 161.716 241.794 157.871" stroke="#AECD63" stroke-opacity="0.4" stroke-width="1.40947" stroke-linecap="round" stroke-linejoin="round"></path><path d="M185.181 223.641C203.75 214.658 213.182 194.779 198.204 175.035C183.963 156.26 157.234 154.97 130.269 151.834C112.453 149.762 84.5907 140.891 72.4465 138.414C47.6209 133.35 40.0508 143.38 46.0617 152.448C52.0726 161.516 64.318 176.471 116.282 197.115C129.14 202.083 145.454 208.767 150.128 203.044C154.783 197.344 153.663 184.849 125.862 175.077" stroke="#AECD63" stroke-opacity="0.4" stroke-width="1.40946" stroke-linecap="round" stroke-linejoin="round"></path><path d="M171.14 206.24C185.113 174.907 140.825 168.605 129.105 165.464C117.385 162.324 90.3359 154.623 78.2152 150.322C66.0945 146.02 56.1574 152.47 78.5398 165.664C100.922 178.858 124.817 184.863 132.326 191.057" stroke="#AECD63" stroke-opacity="0.4" stroke-width="1.40945" stroke-linecap="round" stroke-linejoin="round"></path><path d="M241.854 12.1569C260.424 3.17456 279.517 -10.7615 261.767 -36.1786C251.737 -50.5409 247.041 -45.9797 189.729 -56.8305C162.385 -62.0076 141.117 -69.8558 129.12 -73.0702C107.471 -78.871 96.7247 -68.1037 102.736 -59.0356C108.746 -49.9676 120.992 -35.0129 172.956 -14.3686C185.814 -9.40093 202.127 -2.71621 206.802 -8.43935C211.457 -14.1395 211.138 -23.2012 183.337 -32.9737" stroke="#AECD63" stroke-opacity="0.4" stroke-width="1.40947" stroke-linecap="round" stroke-linejoin="round"></path><path d="M242.871 217.896C239.414 223.739 230.091 229.919 217.36 226.508C208.75 224.201 218.709 216.875 222.474 207.421C227.328 195.235 222.808 177.579 208.671 166.594" stroke="#AECD63" stroke-opacity="0.4" stroke-width="1.40943" stroke-linecap="round" stroke-linejoin="round"></path><path d="M299.543 6.40904C296.086 12.2524 286.763 18.4322 274.032 15.0211C265.422 12.7141 275.381 5.38758 279.146 -4.06564C284 -16.252 277.465 -41.6448 265.343 -44.8928" stroke="#AECD63" stroke-opacity="0.4" stroke-width="1.40944" stroke-linecap="round" stroke-linejoin="round"></path></g><defs><clipPath id="clip0_581_38290"><rect width="391" height="214" rx="14" fill="white"></rect></clipPath></defs></svg>