<svg xmlns="http://www.w3.org/2000/svg" width="266" height="390" viewBox="0 0 266 390" fill="none"><g opacity="0.24"><path d="M216.407 223.961C215.716 223.293 215.053 222.603 214.385 221.917C213.714 221.237 213.047 220.552 212.385 219.864L208.394 215.763C205.731 213.035 203.044 210.332 200.324 207.659C198.956 206.333 197.583 205.01 196.168 203.734C195.46 203.1 194.75 202.466 194.029 201.857L193.486 201.406L192.945 200.978C192.569 200.705 192.198 200.445 191.8 200.195C191.607 200.067 191.379 199.936 191.132 199.728C190.888 199.518 190.686 199.27 190.539 199.056C190.236 198.618 189.998 198.21 189.745 197.796L189.009 196.564C188.764 196.159 188.515 195.721 188.278 195.396C188.039 195.046 187.747 194.75 187.444 194.481C187.118 194.242 186.783 194.017 186.4 193.888C186.023 193.752 185.624 193.672 185.217 193.657C185.012 193.649 184.809 193.654 184.606 193.678C184.505 193.687 184.404 193.705 184.306 193.721C184.215 193.738 184.1 193.766 184.049 193.78L183.965 193.8C183.887 193.817 183.805 193.82 183.729 193.807C183.639 193.794 183.616 193.786 183.566 193.774C183.52 193.764 183.486 193.754 183.445 193.741C183.365 193.72 183.298 193.694 183.226 193.669C183.082 193.621 182.958 193.56 182.824 193.507C182.571 193.388 182.329 193.261 182.095 193.123C181.629 192.85 181.206 192.538 180.792 192.218C179.97 191.572 179.235 190.851 178.541 190.102C177.844 189.351 177.195 188.58 176.574 187.768C175.961 186.952 175.395 186.133 174.825 185.313C172.563 182.028 170.314 178.756 167.985 175.534C163.31 169.11 158.37 162.871 152.935 157.089C150.21 154.207 147.381 151.422 144.353 148.873C143.584 148.252 142.84 147.599 142.049 147.006L140.878 146.098L139.677 145.228C138.887 144.635 138.051 144.112 137.234 143.557C136.825 143.283 136.395 143.041 135.977 142.781C135.556 142.528 135.142 142.257 134.704 142.031C132.998 141.073 131.198 140.175 129.438 139.252L124.138 136.508C120.597 134.7 117.042 132.924 113.394 131.394C109.747 129.862 105.974 128.649 102.112 127.87C98.2449 127.104 94.3136 126.728 90.3761 126.574L87.4173 126.515C86.4324 126.495 85.4409 126.524 84.4566 126.527C82.4832 126.522 80.5043 126.616 78.5277 126.673C74.5619 126.823 70.5806 127.015 66.6085 127.206L54.6788 127.785C50.6979 127.964 46.7004 128.135 42.6914 128.116C38.68 128.091 34.6729 127.87 30.6892 127.512C26.6843 127.171 22.6873 126.51 18.7961 125.511C17.8254 125.268 16.8566 125.001 15.9139 124.777C15.447 124.667 14.9735 124.564 14.5654 124.533C14.3659 124.517 14.1888 124.535 14.1219 124.556C14.0814 124.566 14.0877 124.572 14.0865 124.57C14.0853 124.567 14.0875 124.579 14.0786 124.573C14.0744 124.585 14.07 124.603 14.058 124.612C13.968 124.852 13.9807 125.224 14.0863 125.616C14.1969 126.013 14.3863 126.427 14.5967 126.832C15.0408 127.643 15.6065 128.427 16.2067 129.181C16.8082 129.939 17.4637 130.668 18.1352 131.383C18.469 131.743 18.816 132.091 19.1591 132.444C19.5076 132.787 19.8668 133.12 20.2205 133.461C20.9161 134.152 21.6747 134.773 22.4172 135.413C22.783 135.739 23.1772 136.03 23.5659 136.329L24.732 137.227C27.9038 139.543 31.3472 141.485 34.9052 143.193C35.8035 143.604 36.6882 144.041 37.5963 144.432L40.3258 145.596L43.0901 146.683C44.0092 147.049 44.9479 147.369 45.8794 147.713L47.2762 148.22L48.6855 148.698C49.6256 149.013 50.56 149.344 51.507 149.646C53.4011 150.245 55.2869 150.86 57.1938 151.417C58.1478 151.7 59.0937 151.994 60.0493 152.267L62.9175 153.081C64.8258 153.635 66.7501 154.133 68.6683 154.659C76.3439 156.716 84.0985 158.508 91.8615 160.278L115.169 165.536C122.934 167.324 130.692 169.166 138.388 171.28C142.236 172.337 146.071 173.468 149.856 174.769C150.805 175.083 151.744 175.444 152.686 175.784C153.619 176.153 154.561 176.5 155.483 176.907C156.412 177.288 157.326 177.727 158.238 178.161L160.912 179.527C164.453 181.392 167.924 183.408 171.239 185.68L172.478 186.535L173.697 187.424C174.108 187.716 174.501 188.03 174.898 188.335C175.298 188.639 175.693 188.951 176.083 189.273C176.474 189.591 176.864 189.908 177.244 190.244L177.817 190.739L178.377 191.25C178.755 191.587 179.117 191.947 179.478 192.304C179.841 192.672 180.183 193.022 180.545 193.45C180.802 193.756 180.766 194.214 180.46 194.472C180.154 194.729 179.695 194.692 179.438 194.386L179.42 194.363C179.14 194.029 178.788 193.664 178.454 193.323C178.109 192.981 177.765 192.639 177.4 192.309L176.86 191.814L176.307 191.332C175.941 191.006 175.56 190.697 175.178 190.384C174.802 190.07 174.416 189.763 174.024 189.464C173.634 189.162 173.25 188.858 172.85 188.57L171.658 187.697L170.44 186.854C167.189 184.614 163.765 182.618 160.266 180.762L157.622 179.404C156.737 178.98 155.855 178.555 154.944 178.178C154.045 177.78 153.117 177.436 152.201 177.068C151.271 176.733 150.35 176.376 149.41 176.061C145.666 174.767 141.862 173.632 138.032 172.572C130.367 170.476 122.62 168.645 114.863 166.869L91.5524 161.638C83.7839 159.877 76.0123 158.089 68.3016 156.033C66.3769 155.506 64.4474 155.011 62.5314 154.454L59.6528 153.638C58.6934 153.364 57.741 153.07 56.7844 152.788C54.8683 152.232 52.9683 151.614 51.0639 151.014C50.1131 150.71 49.1695 150.38 48.2217 150.062L46.8021 149.582L45.391 149.073C44.4519 148.725 43.5067 148.406 42.576 148.035L39.7795 146.941L37.0126 145.766C36.0918 145.368 35.189 144.926 34.2779 144.508C30.6596 142.774 27.1343 140.793 23.8657 138.414L22.6626 137.491C22.2625 137.181 21.8556 136.884 21.4783 136.547C20.7117 135.889 19.9276 135.248 19.2093 134.535C18.8454 134.186 18.471 133.842 18.1111 133.487C17.7579 133.127 17.4033 132.77 17.0582 132.399C16.3652 131.665 15.6883 130.91 15.0504 130.109C14.4126 129.308 13.8042 128.474 13.2896 127.538C13.0424 127.061 12.806 126.566 12.6507 126.005C12.5058 125.445 12.4133 124.777 12.6712 124.072C12.7143 123.972 12.7613 123.873 12.816 123.777C12.8863 123.681 12.9515 123.58 13.0435 123.496C13.2225 123.323 13.4443 123.194 13.6422 123.131C14.0485 123 14.3781 123.007 14.6763 123.022C15.2632 123.066 15.7664 123.178 16.2695 123.29C17.2654 123.518 18.2189 123.773 19.1809 124.004C23.0126 124.951 26.9045 125.565 30.8367 125.86C34.7924 126.15 38.7444 126.301 42.6993 126.259C46.6544 126.211 50.6131 125.991 54.5853 125.752L60.5453 125.383L66.5134 125.045C70.494 124.831 74.4725 124.647 78.4615 124.506C80.4658 124.474 82.4654 124.383 84.4759 124.454L85.98 124.481C86.4809 124.492 86.9821 124.49 87.4847 124.531L90.4943 124.72C94.5022 125.047 98.5021 125.605 102.417 126.557C106.335 127.483 110.154 128.787 113.85 130.337C117.543 131.895 121.117 133.691 124.661 135.513L129.962 138.273C131.726 139.204 133.49 140.087 135.255 141.081C135.7 141.316 136.122 141.59 136.553 141.851C136.98 142.116 137.417 142.368 137.835 142.647C138.667 143.211 139.516 143.751 140.317 144.352L141.534 145.236L142.721 146.16C143.521 146.764 144.275 147.425 145.051 148.06C148.103 150.655 150.982 153.442 153.735 156.339C159.239 162.144 164.224 168.404 168.953 174.828C171.324 178.037 173.616 181.305 175.905 184.558C176.479 185.367 177.056 186.181 177.644 186.951C178.239 187.714 178.878 188.464 179.548 189.161C180.216 189.862 180.921 190.526 181.672 191.102C182.049 191.384 182.432 191.657 182.831 191.882C183.03 191.994 183.229 192.097 183.427 192.187C183.525 192.225 183.626 192.271 183.72 192.301C183.766 192.318 183.815 192.333 183.855 192.344C183.873 192.348 183.9 192.358 183.917 192.36C183.927 192.361 183.963 192.37 183.935 192.364L183.615 192.391L183.617 192.39C183.796 192.339 183.916 192.316 184.059 192.287C184.195 192.263 184.333 192.243 184.471 192.23C184.746 192.202 185.019 192.197 185.294 192.21C185.844 192.236 186.392 192.349 186.914 192.542C187.439 192.73 187.915 193.03 188.355 193.364C188.77 193.721 189.152 194.116 189.456 194.557C189.78 195.012 190.002 195.408 190.254 195.819L190.992 197.05C191.237 197.452 191.486 197.871 191.73 198.218C191.855 198.397 191.96 198.521 192.081 198.622C192.198 198.724 192.382 198.837 192.591 198.97C193.003 199.23 193.421 199.516 193.818 199.805L194.415 200.257L194.983 200.716C195.738 201.329 196.468 201.956 197.197 202.587C198.644 203.857 200.083 205.135 201.497 206.436C204.324 209.043 207.049 211.761 209.641 214.598C210.935 216.02 212.194 217.476 213.404 218.972C214.01 219.717 214.592 220.487 215.176 221.249C215.744 222.025 216.305 222.811 216.842 223.608C216.925 223.733 216.892 223.902 216.768 223.988C216.658 224.062 216.517 224.047 216.428 223.957L216.425 223.952L216.407 223.961Z" fill="#83A642"></path><path d="M28.1963 139.578L32.6428 142.31L37.0758 145.06L45.9417 150.56L63.622 161.643L68.0427 164.414C69.5222 165.34 71.0004 166.269 72.4626 167.212L81.2371 172.867C87.0814 176.616 92.9397 180.327 99.0162 183.584C100.542 184.382 102.053 185.216 103.607 185.95L104.764 186.52C105.15 186.709 105.531 186.909 105.926 187.078L108.272 188.138C109.05 188.506 109.849 188.807 110.64 189.137L111.829 189.625C112.225 189.787 112.62 189.955 113.028 190.089L115.449 190.941L116.055 191.156C116.258 191.222 116.465 191.276 116.67 191.337L117.901 191.694L119.133 192.052C119.339 192.11 119.541 192.18 119.752 192.226L120.376 192.365L122.876 192.925C124.539 193.259 126.234 193.457 127.945 193.613C129.655 193.753 131.381 193.825 133.107 193.874C134.835 193.903 136.565 193.906 138.299 193.878C145.231 193.742 152.173 193.289 159.125 192.92C162.603 192.734 166.084 192.56 169.584 192.524C171.334 192.502 173.087 192.5 174.844 192.59C176.603 192.684 178.37 192.83 180.145 193.215C180.536 193.299 180.786 193.685 180.7 194.077C180.616 194.468 180.229 194.718 179.837 194.632C179.837 194.632 179.831 194.631 179.829 194.629L179.811 194.624C178.191 194.244 176.478 194.077 174.769 193.978C173.055 193.878 171.325 193.866 169.595 193.876C166.135 193.916 162.665 194.094 159.197 194.281C152.257 194.683 145.314 195.224 138.333 195.44C134.842 195.551 131.343 195.602 127.821 195.434C126.063 195.342 124.29 195.202 122.529 194.919L119.913 194.439L119.258 194.318C119.038 194.279 118.828 194.213 118.613 194.163L117.327 193.839L116.039 193.512C115.824 193.456 115.608 193.405 115.396 193.347L114.763 193.148L112.233 192.353C111.807 192.227 111.397 192.069 110.983 191.915L109.742 191.455C108.916 191.145 108.078 190.856 107.278 190.491L104.848 189.447C104.037 189.101 103.254 188.703 102.457 188.324C100.861 187.581 99.3174 186.746 97.7593 185.934C96.9775 185.532 96.227 185.081 95.4575 184.658C94.6961 184.224 93.9238 183.809 93.1733 183.357C91.6695 182.462 90.1509 181.584 88.6739 180.657L86.4439 179.28L84.234 177.878C82.7558 176.949 81.3019 175.989 79.8373 175.041L71.1155 169.313L62.3672 163.646L44.8577 152.27L36.1295 146.543L31.7647 143.678L27.4135 140.793C27.0797 140.571 26.9887 140.12 27.2086 139.788C27.4245 139.46 27.8609 139.366 28.1926 139.571L28.2015 139.576L28.1963 139.578Z" fill="#83A642"></path><path d="M126.089 195.102C121.808 194.764 117.494 194.797 113.235 195.323C108.978 195.845 104.791 196.923 100.837 198.571L100.092 198.876L99.3652 199.22L97.9119 199.908L96.498 200.673L95.7924 201.055L95.1065 201.473C94.6517 201.755 94.1894 202.027 93.7371 202.314L92.4075 203.22C91.9577 203.512 91.5365 203.846 91.1066 204.167C90.683 204.495 90.238 204.798 89.8318 205.149C88.1496 206.488 86.5753 207.955 85.0502 209.473C83.5313 210.998 82.1109 212.625 80.7209 214.275C77.9433 217.582 75.4103 221.098 72.6656 224.482C71.2862 226.169 69.848 227.826 68.193 229.299L67.5709 229.847L66.9445 230.365L65.6993 231.405C64.873 232.099 64.0504 232.801 63.2597 233.524C62.8649 233.886 62.4791 234.254 62.1215 234.635C61.7653 235.012 61.4213 235.415 61.2151 235.811C61.1135 236.006 61.0718 236.191 61.0977 236.282C61.1106 236.33 61.1288 236.376 61.1727 236.429C61.2231 236.483 61.2863 236.543 61.3756 236.598C61.7275 236.824 62.2463 236.977 62.7451 237.107C63.7623 237.361 64.8336 237.538 65.898 237.729C66.9638 237.915 68.0362 238.102 69.1043 238.3C70.175 238.497 71.2441 238.704 72.3101 238.932L75.4879 239.635C77.5959 240.108 79.7195 240.491 81.8454 240.838C90.3617 242.197 99.0207 242.382 107.583 241.56L110.79 241.203C111.326 241.152 111.858 241.071 112.39 240.997L113.988 240.772C114.522 240.694 115.053 240.633 115.586 240.539L117.178 240.267C118.236 240.079 119.303 239.923 120.354 239.7L123.523 239.075L126.674 238.364C127.197 238.242 127.728 238.13 128.247 238.001L129.8 237.603C130.315 237.466 130.836 237.348 131.347 237.194L132.878 236.729C134.923 236.115 136.932 235.39 138.913 234.592C139.417 234.409 139.896 234.173 140.386 233.968C140.874 233.751 141.368 233.547 141.852 233.322L143.293 232.62L144.015 232.272L144.723 231.895L146.139 231.142L147.527 230.334L148.221 229.928L148.902 229.499L150.262 228.637C152.054 227.453 153.783 226.173 155.478 224.841C157.158 223.491 158.795 222.084 160.418 220.645C161.224 219.928 162.045 219.195 162.875 218.495C163.289 218.14 163.707 217.792 164.129 217.446C164.546 217.098 164.963 216.748 165.387 216.407C167.073 215.028 168.774 213.669 170.496 212.334C171.356 211.663 172.226 211.002 173.107 210.356C173.987 209.708 174.876 209.067 175.785 208.447C177.609 207.215 179.468 206.028 181.619 205.128C182.701 204.702 183.865 204.363 185.117 204.287C186.359 204.193 187.687 204.412 188.849 204.931C190.019 205.443 191.007 206.194 191.856 206.98C192.711 207.767 193.459 208.591 194.194 209.375C194.562 209.768 194.924 210.153 195.291 210.524C195.661 210.899 196.016 211.217 196.453 211.654C196.557 211.76 196.663 211.858 196.765 211.967L197.064 212.302C197.162 212.416 197.266 212.522 197.36 212.641L197.641 213.006C197.834 213.243 197.995 213.52 198.17 213.778C198.324 214.055 198.484 214.33 198.608 214.618C198.739 214.9 198.846 215.186 198.938 215.418C198.962 215.484 198.985 215.534 199.003 215.58L199.064 215.724C199.081 215.755 199.099 215.785 199.116 215.816L199.138 215.863C199.138 215.863 199.155 215.878 199.162 215.887C199.176 215.903 199.186 215.924 199.197 215.941C199.215 215.952 199.23 215.964 199.244 215.98C199.25 215.987 199.258 215.996 199.264 216.003L199.303 216.026C199.33 216.042 199.357 216.059 199.381 216.076C199.516 216.145 199.685 216.22 199.905 216.281L200.059 216.331L200.235 216.371L200.586 216.451L201.02 216.553C201.17 216.593 201.311 216.614 201.471 216.67L201.936 216.822C202.096 216.885 202.264 216.964 202.426 217.036C202.588 217.111 202.772 217.237 202.94 217.345C203.027 217.407 203.116 217.49 203.201 217.569C203.288 217.647 203.372 217.723 203.447 217.829C203.522 217.929 203.601 218.03 203.663 218.135C203.719 218.243 203.774 218.355 203.827 218.469C203.909 218.68 203.969 218.899 203.997 219.062C204.06 219.404 204.091 219.601 204.124 219.694C204.154 219.772 204.187 219.808 204.26 219.89C204.315 219.932 204.365 219.963 204.439 220.021C204.595 220.128 204.75 220.235 204.896 220.35C205.464 220.828 205.804 221.326 206.143 221.786C206.475 222.253 206.77 222.695 207.078 223.138C208.285 224.897 209.59 226.569 210.996 228.182C212.392 229.802 213.87 231.365 215.389 232.886L217.687 235.201C218.076 235.584 218.445 235.991 218.821 236.387C219.192 236.787 219.578 237.177 219.939 237.589C221.413 239.205 222.811 240.891 224.163 242.609C225.496 244.342 226.766 246.126 227.959 247.956C229.138 249.798 230.249 251.679 231.276 253.608C232.31 255.531 233.223 257.517 234.089 259.518C234.527 260.517 234.928 261.531 235.326 262.546C235.699 263.57 236.1 264.584 236.447 265.613C237.873 269.722 239.135 273.871 240.697 277.901C242.232 281.937 244.058 285.853 246.193 289.588C246.462 290.055 246.706 290.534 246.989 290.991L247.833 292.366C248.396 293.281 248.943 294.205 249.561 295.086L251.355 297.763L253.248 300.371C253.567 300.803 253.864 301.25 254.196 301.675L255.185 302.95L257.162 305.497L259.212 307.988C259.896 308.819 260.556 309.668 261.277 310.469C264.075 313.723 266.885 317.044 269.607 320.429C272.333 323.81 275.065 327.184 277.905 330.459C280.751 333.733 283.579 337.017 286.458 340.259C287.892 341.884 289.332 343.503 290.791 345.107C292.244 346.713 293.706 348.31 295.199 349.878C296.687 351.449 298.197 352.997 299.761 354.476C300.539 355.215 301.342 355.93 302.164 356.591C302.576 356.919 302.997 357.232 303.42 357.489C303.632 357.621 303.843 357.731 304.034 357.806C304.129 357.845 304.221 357.87 304.278 357.875C304.347 357.894 304.349 357.864 304.307 357.884C304.684 357.75 305.099 357.948 305.235 358.323C305.368 358.7 305.171 359.115 304.795 359.251C304.651 359.292 304.485 359.327 304.369 359.318C304.308 359.317 304.238 359.318 304.179 359.31L304.019 359.282C303.811 359.241 303.643 359.175 303.491 359.108C303.183 358.969 302.921 358.812 302.679 358.65C302.19 358.32 301.754 357.966 301.329 357.603C300.481 356.88 299.697 356.115 298.917 355.345C297.37 353.801 295.885 352.209 294.411 350.612C291.471 347.412 288.595 344.162 285.708 340.924L277.061 331.204C274.175 327.968 271.18 324.828 268.156 321.715C266.648 320.156 265.144 318.592 263.658 317.014L262.549 315.824L261.459 314.602C260.735 313.786 260.021 312.959 259.305 312.134C258.582 311.315 257.917 310.449 257.23 309.597L255.194 307.026L253.268 304.368L252.308 303.039C251.987 302.596 251.695 302.133 251.39 301.676L249.59 298.931L247.903 296.112C247.33 295.182 246.823 294.208 246.302 293.246L245.526 291.802C245.264 291.322 245.041 290.821 244.796 290.333C243.817 288.378 242.932 286.377 242.081 284.366C241.679 283.349 241.26 282.344 240.875 281.322C240.502 280.299 240.101 279.285 239.75 278.254C238.312 274.145 237.059 269.988 235.606 265.917C234.176 261.842 232.464 257.873 230.368 254.107C229.321 252.225 228.207 250.384 226.991 248.607C225.768 246.836 224.475 245.12 223.12 243.451C221.745 241.799 220.315 240.195 218.816 238.651C218.449 238.259 218.059 237.889 217.681 237.508C217.297 237.13 216.926 236.745 216.529 236.379L214.17 234.153C210.989 231.17 207.928 227.978 205.331 224.391C205.008 223.952 204.69 223.501 204.378 223.093C204.068 222.686 203.761 222.301 203.487 222.089C203.417 222.042 203.348 221.997 203.279 221.946C203.134 221.847 202.956 221.731 202.8 221.602C202.473 221.319 202.166 220.92 202.006 220.486C201.856 220.066 201.817 219.722 201.771 219.533C201.751 219.427 201.73 219.389 201.715 219.344C201.705 219.336 201.7 219.325 201.699 219.31C201.695 219.299 201.682 219.299 201.677 219.288C201.678 219.278 201.658 219.268 201.643 219.256C201.625 219.245 201.619 219.232 201.594 219.215C201.526 219.185 201.49 219.148 201.406 219.113L201.15 219.008L200.838 218.916C200.742 218.881 200.612 218.864 200.5 218.836L200.142 218.76L199.698 218.665L199.477 218.618L199.244 218.55C198.94 218.467 198.602 218.346 198.256 218.167L197.986 218.005L197.853 217.919L197.721 217.807C197.635 217.732 197.548 217.654 197.466 217.574C197.39 217.488 197.32 217.399 197.25 217.31L197.148 217.172L197.071 217.041L196.924 216.78C196.857 216.635 196.776 216.461 196.726 216.34C196.614 216.072 196.525 215.851 196.422 215.643C196.328 215.434 196.212 215.241 196.104 215.042C195.969 214.855 195.864 214.657 195.71 214.476L195.494 214.199C195.419 214.106 195.333 214.018 195.254 213.93L195.01 213.659C194.927 213.57 194.833 213.485 194.745 213.398C194.417 213.071 193.962 212.664 193.567 212.269C193.166 211.873 192.784 211.471 192.408 211.076C191.656 210.283 190.937 209.506 190.188 208.831C189.441 208.153 188.67 207.59 187.853 207.221C187.442 207.04 187.023 206.902 186.589 206.816C186.155 206.729 185.705 206.705 185.246 206.714C184.327 206.734 183.366 206.953 182.416 207.263C181.469 207.595 180.509 207.993 179.564 208.473C178.611 208.929 177.674 209.441 176.74 209.965C173.011 212.078 169.429 214.535 166.049 217.219C164.354 218.564 162.734 219.975 161.124 221.428C159.514 222.88 157.906 224.35 156.234 225.754C154.572 227.169 152.85 228.519 151.084 229.814L149.736 230.757L149.062 231.227L148.37 231.673L146.986 232.566L145.569 233.406L144.858 233.826L144.131 234.218L142.676 234.997C142.188 235.249 141.687 235.479 141.191 235.722C140.691 235.954 140.207 236.214 139.696 236.423L138.174 237.066L137.414 237.387L136.64 237.676C135.606 238.054 134.581 238.466 133.526 238.771L131.951 239.266C131.427 239.432 130.889 239.555 130.359 239.702L128.764 240.126C128.232 240.264 127.698 240.368 127.166 240.49L123.97 241.194L120.753 241.812C119.685 242.033 118.6 242.185 117.521 242.357L115.901 242.61C115.363 242.697 114.818 242.752 114.276 242.824L112.65 243.03C112.108 243.096 111.567 243.171 111.02 243.214L107.755 243.508C103.393 243.817 99.0101 243.882 94.6447 243.66C90.278 243.436 85.9287 242.925 81.6395 242.131C79.4972 241.721 77.3623 241.279 75.2449 240.772L72.0842 240.016C71.0342 239.774 69.9786 239.548 68.92 239.336C67.86 239.128 66.7969 238.933 65.7301 238.738C64.6607 238.537 63.5922 238.352 62.5083 238.071C61.9661 237.917 61.4183 237.778 60.8547 237.419C60.7132 237.328 60.5712 237.208 60.4444 237.059C60.3177 236.903 60.2106 236.7 60.1701 236.482C60.0895 236.033 60.2401 235.675 60.378 235.394C60.6786 234.829 61.0594 234.408 61.4439 233.996C61.8308 233.589 62.23 233.209 62.634 232.838C63.4448 232.097 64.2727 231.392 65.1068 230.694L66.3599 229.651L66.9864 229.133L67.5844 228.609C69.1753 227.198 70.5893 225.571 71.9563 223.906C74.6766 220.559 77.2229 217.03 80.0272 213.698C82.8213 210.359 85.8432 207.179 89.2377 204.408C89.6493 204.047 90.0997 203.735 90.5302 203.395C90.9656 203.064 91.3948 202.721 91.8501 202.42L93.2014 201.485C93.6618 201.188 94.1309 200.903 94.595 200.613L95.293 200.18L96.0134 199.782L97.4566 198.989L98.9391 198.275L99.6791 197.918L100.439 197.604C104.479 195.9 108.747 194.727 113.093 194.128C117.438 193.527 121.84 193.434 126.209 193.67C126.609 193.692 126.915 194.033 126.893 194.434C126.871 194.834 126.53 195.14 126.129 195.118C126.127 195.12 126.119 195.117 126.116 195.118L126.111 195.12L126.089 195.102Z" fill="#83A642"></path><path d="M98.3292 242.782C94.6892 243.344 92.3622 243.439 92.2895 243.441C91.8892 243.454 91.5541 243.139 91.5383 242.74C91.5252 242.34 91.8399 242.005 92.239 241.989C92.4691 241.981 115.356 241.038 130.598 227.096C136.464 221.731 144.331 218.482 151.273 215.619C154.471 214.299 157.489 213.054 159.782 211.784C170.235 205.993 181.24 204.477 186.088 204.871C186.487 204.903 186.785 205.255 186.753 205.654C186.72 206.053 186.369 206.35 185.97 206.318C181.478 205.954 170.586 207.459 160.485 213.054C158.12 214.364 155.061 215.625 151.826 216.962C144.995 219.78 137.254 222.977 131.576 228.168C120.811 238.018 106.363 241.539 98.328 242.779L98.3292 242.782Z" fill="#83A642"></path><path d="M289.503 361.355C287.175 359.362 284.695 357.48 282.168 355.707C279.635 353.933 277.027 352.265 274.324 350.772L273.817 350.489C273.734 350.441 273.654 350.398 273.534 350.326C273.424 350.262 273.326 350.189 273.228 350.116C272.85 349.818 272.575 349.488 272.321 349.21C272.068 348.927 271.836 348.696 271.602 348.551C271.495 348.486 271.354 348.417 271.197 348.362C271.046 348.304 270.88 348.257 270.711 348.21C270.027 348.032 269.25 347.951 268.43 347.757C268.225 347.708 268.013 347.646 267.804 347.574C267.576 347.491 267.412 347.42 267.23 347.344L266.148 346.896C264.709 346.298 263.269 345.687 261.84 345.042C260.412 344.393 258.98 343.74 257.596 342.876C256.907 342.447 256.229 341.94 255.638 341.357C255.042 340.776 254.542 340.167 254.028 339.592C253.775 339.301 253.515 339.018 253.258 338.734L252.465 337.915L250.812 336.271C248.593 334.072 246.429 331.798 244.376 329.43C243.868 328.834 243.337 328.255 242.85 327.64L241.36 325.817C240.87 325.203 240.402 324.575 239.921 323.954L239.203 323.021L238.512 322.065L237.136 320.15C236.691 319.502 236.261 318.845 235.823 318.191C234.925 316.899 234.145 315.53 233.322 314.185C232.899 313.517 232.547 312.813 232.171 312.121L231.052 310.036C230.371 308.611 229.682 307.191 229.061 305.738L228.193 303.53C227.913 302.79 227.601 302.064 227.379 301.304L226.658 299.043L226.303 297.912L225.967 296.811C225.091 293.886 223.984 291.034 222.637 288.3C221.295 285.563 219.687 282.963 217.872 280.51C216.064 278.051 214.009 275.77 211.817 273.627C209.623 271.481 207.249 269.512 204.801 267.632C199.887 263.889 194.621 260.579 189.358 257.254C186.73 255.592 184.081 253.933 181.482 252.203C178.879 250.478 176.328 248.68 173.762 246.925C172.479 246.049 171.196 245.176 169.883 244.381C169.227 243.989 168.56 243.614 167.883 243.32C167.546 243.173 167.204 243.05 166.87 242.972C166.536 242.893 166.211 242.868 165.946 242.933C165.681 242.996 165.47 243.142 165.293 243.387C165.115 243.63 164.98 243.946 164.878 244.284C164.68 244.968 164.593 245.723 164.537 246.478C164.443 247.997 164.471 249.546 164.546 251.092C164.666 254.188 164.924 257.278 165.354 260.345C165.78 263.411 166.319 266.466 167.072 269.471L167.341 270.6L167.65 271.72C167.858 272.465 168.059 273.214 168.276 273.957L168.984 276.169C169.106 276.535 169.209 276.91 169.346 277.272L169.744 278.364C170.014 279.089 170.267 279.82 170.55 280.54L171.44 282.683C171.593 283.038 171.731 283.399 171.893 283.753L172.382 284.806L173.368 286.907C176.134 292.442 179.55 297.665 183.493 302.418C185.485 304.779 187.678 306.97 189.983 309.026C192.292 311.083 194.728 312.998 197.258 314.779C202.314 318.353 207.749 321.38 213.368 323.983C216.182 325.28 219.037 326.482 221.942 327.555C223.393 328.1 224.856 328.604 226.327 329.079C227.795 329.552 229.287 330.008 230.759 330.387L230.773 330.39C231.163 330.49 231.394 330.885 231.293 331.275C231.192 331.664 230.798 331.895 230.408 331.794C230.408 331.794 230.401 331.792 230.398 331.793C228.858 331.372 227.379 330.895 225.891 330.392C224.406 329.889 222.937 329.352 221.476 328.789C218.551 327.674 215.676 326.431 212.846 325.092C207.191 322.411 201.742 319.285 196.633 315.658C194.083 313.841 191.622 311.893 189.291 309.795C186.961 307.7 184.745 305.466 182.73 303.057C178.738 298.211 175.342 292.919 172.518 287.325L171.521 285.199L171.021 284.135C170.856 283.78 170.714 283.414 170.564 283.055L169.659 280.887C169.369 280.16 169.114 279.418 168.84 278.684L168.437 277.582C168.298 277.214 168.194 276.838 168.069 276.467L167.35 274.231C167.129 273.479 166.929 272.724 166.716 271.969L166.401 270.838L166.13 269.697C165.366 266.66 164.818 263.573 164.384 260.476C163.946 257.377 163.683 254.254 163.556 251.129C163.48 249.568 163.444 247.997 163.541 246.406C163.597 245.612 163.684 244.807 163.918 243.994C164.04 243.589 164.202 243.174 164.486 242.786C164.757 242.398 165.217 242.06 165.712 241.948C166.207 241.827 166.679 241.879 167.101 241.975C167.527 242.071 167.919 242.212 168.297 242.373C169.051 242.694 169.747 243.082 170.428 243.482C171.788 244.287 173.086 245.159 174.38 246.03C176.961 247.781 179.535 249.52 182.145 251.206C183.451 252.046 184.762 252.877 186.086 253.689L190.08 256.106C195.408 259.324 200.77 262.544 205.843 266.252C210.904 269.955 215.681 274.197 219.549 279.251C221.474 281.774 223.192 284.467 224.632 287.306C226.064 290.145 227.236 293.11 228.171 296.142L228.524 297.274L228.879 298.367L229.582 300.555C229.793 301.292 230.095 301.997 230.365 302.716L231.181 304.865C231.308 305.229 231.472 305.575 231.626 305.926L232.089 306.978C232.396 307.68 232.694 308.39 233.006 309.09L234.029 311.155C234.374 311.843 234.696 312.541 235.084 313.206C237.998 318.623 241.499 323.755 245.555 328.421C247.565 330.771 249.682 333.026 251.871 335.225L253.519 336.885L254.346 337.749C254.608 338.043 254.876 338.338 255.13 338.636C255.648 339.227 256.136 339.823 256.655 340.334C257.168 340.847 257.741 341.282 258.369 341.682C259.624 342.475 261.024 343.139 262.43 343.776C263.839 344.411 265.266 345.018 266.699 345.616L267.775 346.064C268.158 346.228 268.416 346.329 268.776 346.415C269.47 346.585 270.249 346.665 271.074 346.877C271.281 346.931 271.489 346.991 271.7 347.075C271.909 347.151 272.124 347.25 272.347 347.386C272.777 347.657 273.088 347.996 273.355 348.288C273.624 348.585 273.857 348.851 274.093 349.036C274.151 349.079 274.209 349.126 274.267 349.156C274.313 349.186 274.404 349.237 274.491 349.286L275.005 349.572C277.747 351.102 280.408 352.771 282.982 354.558C285.561 356.348 288.058 358.218 290.473 360.261C290.779 360.52 290.816 360.979 290.558 361.284C290.3 361.59 289.841 361.627 289.535 361.369L289.519 361.355L289.503 361.355Z" fill="#83A642"></path><path d="M260.125 344.468C257.231 342.718 254.237 341.129 251.177 339.681C248.113 338.237 244.982 336.939 241.809 335.745C238.643 334.53 235.416 333.479 232.178 332.475C230.549 332 228.929 331.501 227.286 331.071C226.466 330.85 225.649 330.621 224.828 330.411L222.357 329.796L221.121 329.49L219.878 329.207L217.394 328.646C215.736 328.28 214.07 327.946 212.408 327.592L207.4 326.648C205.736 326.366 204.07 326.1 202.39 325.901C195.682 325.052 188.894 324.913 182.095 324.99C178.69 325.033 175.279 325.059 171.886 325.176C170.187 325.223 168.495 325.308 166.799 325.392C165.95 325.431 165.108 325.506 164.263 325.559L162.995 325.649C162.573 325.682 162.152 325.727 161.731 325.766C154.982 326.344 148.291 327.508 141.777 329.372L139.338 330.086C138.531 330.34 137.727 330.614 136.921 330.876L135.714 331.274L134.517 331.708L132.125 332.58L129.758 333.519C128.97 333.834 128.177 334.139 127.401 334.486C125.844 335.165 124.275 335.823 122.741 336.558C119.643 337.963 116.59 339.464 113.684 341.192C112.237 342.059 110.821 342.986 109.561 344.061C108.934 344.599 108.35 345.181 107.896 345.823C107.435 346.457 107.163 347.179 107.286 347.822C107.404 348.468 107.932 349.055 108.575 349.508C109.213 349.973 109.964 350.335 110.723 350.661C112.259 351.301 113.888 351.776 115.522 352.223C117.16 352.669 118.818 353.069 120.473 353.497C122.129 353.928 123.787 354.37 125.424 354.973C125.833 355.129 126.24 355.289 126.64 355.474C126.841 355.563 127.042 355.671 127.235 355.764L127.806 356.049L130.084 357.192C130.466 357.38 130.843 357.579 131.227 357.759L132.385 358.293L134.701 359.361C135.478 359.71 136.266 360.029 137.046 360.364C137.831 360.691 138.606 361.042 139.402 361.344L141.78 362.268C142.177 362.419 142.571 362.579 142.972 362.725L144.175 363.152C150.576 365.448 157.129 367.348 163.795 368.725C165.455 369.09 167.135 369.378 168.806 369.683C169.645 369.828 170.485 369.95 171.326 370.084L172.587 370.279L173.851 370.444C174.696 370.547 175.535 370.679 176.383 370.755L178.921 371.016L181.461 371.209C182.308 371.276 183.156 371.295 184.005 371.339C187.387 371.502 190.772 371.274 194.106 370.688C197.44 370.109 200.716 369.211 203.918 368.107C210.336 365.9 216.452 362.892 222.524 359.802C225.559 358.248 228.58 356.656 231.649 355.134C234.703 353.587 237.814 352.129 241.022 350.83C242.626 350.184 244.262 349.6 245.927 349.086C247.594 348.568 249.301 348.143 251.043 347.842C254.519 347.203 258.182 347.14 261.787 347.827C262.175 347.896 262.496 348.112 262.703 348.413L262.74 348.466C263.345 349.34 264.014 350.236 264.687 351.078C265.36 351.921 266.074 352.747 266.786 353.412L267.048 353.645L267.293 353.835C267.321 353.861 267.407 353.917 267.466 353.96L267.659 354.094C267.788 354.185 267.908 354.279 268.034 354.371C268.526 354.747 268.972 355.142 269.366 355.467C269.766 355.797 270.093 356.026 270.438 356.163C270.61 356.237 270.797 356.281 270.997 356.319C271.097 356.34 271.207 356.344 271.31 356.359L271.79 356.415C273.087 356.555 274.372 357.04 275.428 357.73C276.496 358.415 277.353 359.248 278.165 360.058C278.975 360.872 279.735 361.687 280.529 362.454C281.319 363.224 282.139 363.95 283.001 364.627L283.011 364.636C283.325 364.884 283.381 365.341 283.133 365.654C282.894 365.954 282.468 366.014 282.156 365.804C281.198 365.155 280.275 364.448 279.396 363.707C278.515 362.968 277.678 362.192 276.845 361.468C276.01 360.746 275.181 360.062 274.308 359.594C273.437 359.119 272.537 358.862 271.586 358.827L271.223 358.81C271.047 358.802 270.876 358.801 270.695 358.783C270.339 358.747 269.97 358.681 269.61 358.567C268.882 358.345 268.255 357.945 267.76 357.596C267.259 357.24 266.836 356.915 266.41 356.639L266.091 356.435L265.931 356.34C265.873 356.303 265.839 356.287 265.753 356.231L265.307 355.939L264.913 355.642C263.915 354.838 263.098 354.002 262.298 353.141C261.5 352.277 260.757 351.416 260.01 350.489L260.962 351.126C260.201 350.9 259.432 350.691 258.646 350.544L258.055 350.434L257.46 350.352C257.063 350.29 256.661 350.259 256.26 350.222C254.653 350.082 253.015 350.139 251.379 350.294C249.744 350.468 248.109 350.764 246.486 351.156C244.865 351.551 243.261 352.046 241.665 352.593C240.072 353.138 238.495 353.752 236.935 354.41C235.373 355.065 233.823 355.756 232.278 356.467C229.199 357.914 226.146 359.428 223.081 360.939C216.966 363.969 210.767 366.938 204.243 369.108C200.985 370.19 197.649 371.068 194.249 371.623C190.854 372.173 187.393 372.412 183.959 372.231C183.104 372.183 182.245 372.16 181.39 372.09L178.829 371.888L176.275 371.618C175.425 371.537 174.578 371.402 173.728 371.294L172.455 371.124L171.188 370.925C170.343 370.787 169.496 370.665 168.655 370.515C166.974 370.202 165.288 369.907 163.617 369.534C161.94 369.196 160.279 368.79 158.61 368.401C157.775 368.213 156.953 367.974 156.125 367.763C155.301 367.538 154.465 367.344 153.646 367.097C152.005 366.615 150.354 366.163 148.73 365.621L146.287 364.833L143.867 363.983L142.654 363.557C142.251 363.412 141.854 363.254 141.454 363.101L139.057 362.179C138.256 361.879 137.476 361.525 136.683 361.202C135.894 360.868 135.1 360.549 134.32 360.2L131.985 359.135L130.816 358.603C130.428 358.421 130.048 358.224 129.664 358.037L127.363 356.895L126.789 356.608C126.599 356.517 126.424 356.422 126.233 356.342C125.861 356.169 125.471 356.017 125.08 355.872C123.509 355.3 121.865 354.867 120.219 354.444C118.57 354.023 116.908 353.627 115.252 353.184C113.598 352.736 111.938 352.263 110.321 351.593C109.515 351.25 108.713 350.874 107.968 350.337C107.596 350.068 107.234 349.77 106.927 349.384C106.619 349.005 106.365 348.541 106.268 348.023C106.166 347.507 106.229 346.973 106.383 346.507C106.454 346.266 106.564 346.055 106.665 345.839C106.786 345.638 106.895 345.424 107.035 345.244C107.567 344.488 108.203 343.86 108.866 343.283C110.199 342.136 111.641 341.175 113.113 340.28C114.586 339.387 116.094 338.562 117.619 337.773C118.38 337.378 119.145 336.994 119.913 336.615L122.226 335.505C125.308 334.019 128.454 332.653 131.622 331.345L134.023 330.418L135.223 329.956L136.436 329.53C137.247 329.25 138.055 328.957 138.869 328.685L141.327 327.914C147.899 325.901 154.694 324.581 161.53 323.879C168.367 323.153 175.237 323.027 182.06 322.933C188.899 322.863 195.793 323.01 202.633 323.881C204.343 324.085 206.048 324.358 207.746 324.651L212.796 325.61L215.312 326.141C216.15 326.321 216.991 326.484 217.823 326.69L220.326 327.277L221.577 327.573L222.823 327.893L225.313 328.534C226.142 328.754 226.967 328.995 227.79 329.224C229.445 329.671 231.083 330.187 232.725 330.685C233.547 330.93 234.358 331.216 235.173 331.477C235.989 331.744 236.805 332.005 237.612 332.303L240.037 333.163L242.442 334.084C248.828 336.602 255.076 339.546 260.88 343.263C261.218 343.48 261.316 343.927 261.099 344.265C260.886 344.597 260.449 344.698 260.115 344.495L260.125 344.468Z" fill="#83A642"></path><path d="M264.274 305.073C260.696 301.209 258.023 296.71 255.215 292.318C252.465 287.887 249.791 283.398 247.395 278.744L246.5 276.997C246.202 276.416 245.928 275.82 245.641 275.23C245.066 274.047 244.523 272.872 243.973 271.694C242.865 269.345 241.755 266.996 240.621 264.659C238.357 259.986 236.029 255.34 233.613 250.746C233.312 250.173 233.008 249.594 232.7 249.036L231.76 247.322C231.14 246.174 230.523 245.024 229.924 243.865C228.719 241.548 227.557 239.211 226.435 236.852C224.204 232.132 222.148 227.321 220.373 222.398C219.476 219.944 218.731 217.404 217.886 215.006C217.006 212.595 215.931 210.275 214.626 208.079C213.959 206.987 213.262 205.915 212.522 204.845L211.423 203.224C211.07 202.665 210.691 202.124 210.363 201.541C209.66 200.408 209.096 199.179 208.576 197.942L208.241 196.994C208.134 196.675 208.003 196.365 207.923 196.041L207.654 195.077C207.565 194.754 207.467 194.434 207.409 194.109C206.808 191.528 206.441 188.857 206.561 186.167C206.659 183.478 207.241 180.824 208.076 178.311C208.913 175.794 209.926 173.372 210.942 170.973C211.967 168.577 212.964 166.191 213.9 163.778C217.776 154.198 219.928 144.068 221.014 133.835L221.2 131.915C221.264 131.274 221.3 130.634 221.357 129.993L221.435 129.032L221.494 128.07C221.532 127.428 221.583 126.787 221.608 126.145C221.743 123.577 221.767 121.005 221.758 118.437C221.709 113.298 221.322 108.165 220.55 103.1C220.444 102.467 220.364 101.833 220.242 101.205L219.892 99.3158C219.624 98.0643 219.368 96.8104 219.047 95.5742C218.421 93.097 217.71 90.6433 216.82 88.2533C215.934 85.8647 214.87 83.5593 213.705 81.2523C212.545 78.9558 211.311 76.691 209.997 74.4693C207.373 70.0273 204.512 65.7148 201.409 61.5784C198.308 57.4447 194.998 53.4531 191.393 49.758C189.588 47.9118 187.716 46.135 185.735 44.4953C185.244 44.0799 184.731 43.6977 184.226 43.2989C183.707 42.9256 183.2 42.5306 182.663 42.188C181.61 41.4708 180.512 40.816 179.371 40.3223C178.8 40.0722 178.216 39.8697 177.633 39.7374C177.345 39.6603 177.023 39.6303 176.721 39.5723C176.418 39.5532 176.109 39.495 175.814 39.5073C175.666 39.5121 175.513 39.4934 175.369 39.5126L174.937 39.5535L174.529 39.6469C174.395 39.6833 174.277 39.7448 174.147 39.7892C173.657 40.0101 173.264 40.3883 172.963 40.877C172.664 41.3644 172.434 41.9291 172.272 42.5321C172.097 43.1256 171.981 43.752 171.869 44.3772C171.662 45.6347 171.535 46.9229 171.423 48.213C171.201 50.793 171.043 53.3944 170.851 55.9896C170.659 58.5875 170.442 61.1846 170.196 63.7756C169.949 66.3706 169.657 68.9603 169.331 71.5439C169.009 74.1289 168.631 76.711 168.203 79.2812C167.37 84.4263 166.349 89.5348 165.326 94.6342C164.296 99.7334 163.303 104.835 162.554 109.967C161.817 115.096 161.344 120.27 161.419 125.439C161.438 128.022 161.625 130.601 161.935 133.161C162.241 135.722 162.689 138.263 163.275 140.772C163.869 143.277 164.557 145.763 165.384 148.189C166.231 150.612 167.201 152.983 168.29 155.3C170.511 159.913 173.194 164.292 176.276 168.384C179.358 172.475 182.81 176.296 186.512 179.878C188.354 181.679 190.255 183.429 192.184 185.163C194.106 186.91 196.076 188.603 197.957 190.523C198.426 191.003 198.888 191.508 199.334 192.053C199.755 192.594 200.149 193.14 200.546 193.685L201.649 195.349L202.686 197.037C204.024 199.304 205.266 201.611 206.469 203.932C208.847 208.59 211.067 213.306 213.133 218.104C213.291 218.472 213.121 218.899 212.753 219.058C212.398 219.21 211.989 219.058 211.817 218.715L211.812 218.705C209.513 214.06 207.16 209.422 204.666 204.888C203.421 202.621 202.141 200.375 200.784 198.192L199.748 196.574L198.67 195.005C198.292 194.508 197.917 194.004 197.531 193.524C197.144 193.07 196.722 192.617 196.275 192.178C195.384 191.293 194.428 190.434 193.465 189.573L190.549 186.989C188.596 185.259 186.648 183.505 184.761 181.681C180.994 178.022 177.419 174.122 174.273 169.878C172.702 167.756 171.233 165.552 169.907 163.263C168.576 160.978 167.364 158.623 166.31 156.197C165.26 153.77 164.36 151.283 163.591 148.76C162.839 146.226 162.238 143.67 161.734 141.091C160.758 135.925 160.287 130.675 160.305 125.438C160.339 120.2 160.818 114.978 161.616 109.82C162.406 104.66 163.466 99.5589 164.496 94.4597C165.529 89.362 166.567 84.2682 167.399 79.1426C167.814 76.5784 168.18 74.0116 168.489 71.4327C168.802 68.8553 169.081 66.2742 169.317 63.688C169.556 61.1033 169.743 58.5105 169.911 55.9172C170.082 53.3227 170.218 50.7284 170.416 48.1243C170.518 46.8223 170.635 45.5169 170.836 44.2073C170.947 43.5509 171.062 42.8959 171.25 42.2391C171.419 41.5844 171.672 40.923 172.046 40.3014C172.417 39.681 172.985 39.1066 173.685 38.7878C173.861 38.7188 174.036 38.6343 174.214 38.5836L174.755 38.4537L175.293 38.3926C175.474 38.3692 175.647 38.3819 175.823 38.3766C176.178 38.3621 176.514 38.4173 176.862 38.435C177.198 38.4901 177.531 38.5179 177.87 38.6003C178.558 38.7448 179.21 38.9634 179.832 39.228C181.083 39.7509 182.24 40.4229 183.345 41.1545C183.908 41.507 184.433 41.9064 184.977 42.2843C185.499 42.685 186.034 43.073 186.542 43.4901C188.598 45.1333 190.543 46.9018 192.408 48.7394C196.131 52.4274 199.583 56.3725 202.826 60.4818C206.07 64.591 209.08 68.8857 211.853 73.341C213.24 75.5674 214.548 77.8461 215.785 80.1643C216.101 80.7407 216.401 81.3246 216.697 81.9135C216.997 82.4973 217.298 83.0837 217.574 83.6916C218.157 84.8898 218.668 86.1147 219.172 87.3432C220.148 89.811 220.961 92.339 221.641 94.8969C221.991 96.1743 222.277 97.4653 222.569 98.7539L222.957 100.698C223.092 101.346 223.187 102 223.303 102.65C223.736 105.255 224.079 107.873 224.285 110.501C224.498 113.128 224.645 115.758 224.678 118.392C224.75 123.658 224.477 128.924 223.856 134.147C223.537 136.759 223.152 139.361 222.67 141.946C222.178 144.53 221.612 147.1 220.948 149.646C220.288 152.192 219.523 154.714 218.66 157.202C218.451 157.827 218.223 158.445 217.991 159.061L217.646 159.986L217.284 160.9L216.555 162.727L215.793 164.537C214.772 166.948 213.684 169.325 212.617 171.692C211.559 174.063 210.489 176.416 209.665 178.831C208.835 181.239 208.259 183.711 208.138 186.228C208.01 188.742 208.344 191.278 208.907 193.759C208.963 194.072 209.053 194.376 209.138 194.682L209.388 195.6C209.461 195.908 209.584 196.2 209.682 196.5L209.991 197.393C210.473 198.555 210.989 199.701 211.653 200.784C211.958 201.337 212.326 201.867 212.663 202.408L213.753 204.017C214.494 205.087 215.211 206.197 215.899 207.327C217.253 209.607 218.367 212.027 219.269 214.504C219.695 215.746 220.12 217.011 220.516 218.229C220.72 218.841 220.908 219.458 221.126 220.067L221.774 221.894C223.543 226.756 225.595 231.518 227.823 236.195C228.941 238.533 230.104 240.85 231.305 243.147C231.903 244.296 232.52 245.437 233.14 246.573L234.083 248.279C234.406 248.858 234.708 249.431 235.015 250.009C237.453 254.617 239.801 259.27 242.085 263.953C243.229 266.292 244.351 268.645 245.455 271.006C246.004 272.188 246.551 273.373 247.111 274.531C247.393 275.11 247.661 275.699 247.956 276.273L248.836 278.001C251.203 282.601 253.819 287.082 256.533 291.504C259.218 295.947 262.259 300.15 264.66 304.801C264.72 304.917 264.676 305.056 264.562 305.115C264.469 305.162 264.356 305.14 264.287 305.067L264.274 305.073Z" fill="#83A642"></path><path d="M254.816 291.554C254.618 290.804 254.404 290.062 254.222 289.311L253.979 288.176C253.896 287.798 253.814 287.421 253.76 287.036L253.577 285.892C253.516 285.511 253.486 285.125 253.44 284.743C253.34 283.977 253.3 283.208 253.244 282.441C253.056 279.37 253.18 276.33 252.831 273.375C252.639 271.902 252.307 270.457 251.828 269.053L251.416 268.022C251.343 267.851 251.287 267.676 251.204 267.51L250.956 267.011L250.461 266.008L250.199 265.465C250.156 265.372 250.112 265.284 250.072 265.191L249.967 264.91C249.401 263.416 249.161 261.854 249.043 260.318C248.924 258.78 248.913 257.249 248.888 255.734C248.873 254.979 248.855 254.223 248.804 253.479C248.757 252.732 248.681 251.997 248.532 251.282C248.238 249.85 247.692 248.456 247.061 247.104C245.777 244.402 244.14 241.856 242.414 239.381C241.98 238.764 241.538 238.15 241.094 237.54L240.419 236.631L239.729 235.745C239.282 235.147 238.777 234.591 238.298 234.014C237.798 233.455 237.31 232.885 236.789 232.343C235.768 231.24 234.688 230.183 233.615 229.107C232.534 228.041 231.458 226.951 230.426 225.805C229.384 224.67 228.42 223.444 227.542 222.159C226.653 220.879 225.939 219.48 225.299 218.062C224.681 216.621 224.198 215.162 223.756 213.7C223.31 212.237 222.903 210.768 222.505 209.299C221.709 206.36 220.963 203.417 220.183 200.486C219.402 197.556 218.6 194.633 217.645 191.771C217.161 190.344 216.654 188.922 216.02 187.578C215.713 186.902 215.355 186.255 214.945 185.671C214.841 185.528 214.741 185.376 214.622 185.258C214.509 185.131 214.397 184.994 214.27 184.9L214.084 184.74C214.001 184.679 213.916 184.62 213.838 184.554C213.674 184.428 213.519 184.282 213.373 184.133C213.082 183.823 212.81 183.472 212.662 183.001C212.594 182.766 212.552 182.489 212.638 182.192C212.717 181.893 212.949 181.635 213.197 181.507C213.7 181.248 214.162 181.292 214.579 181.348C214.996 181.414 215.388 181.533 215.763 181.679C217.245 182.273 218.526 183.163 219.743 184.101C222.163 186.004 224.299 188.206 226.319 190.487C227.327 191.631 228.308 192.798 229.265 193.982C230.209 195.175 231.123 196.399 232.052 197.606L233.364 199.479C233.794 200.108 234.253 200.718 234.651 201.368C235.467 202.656 236.31 203.925 237.061 205.253C237.442 205.915 237.843 206.564 238.21 207.231L239.291 209.248C239.667 209.911 239.988 210.604 240.326 211.289C240.655 211.977 241.014 212.652 241.317 213.353C243.895 218.888 245.796 224.751 247.126 230.706L248.103 235.151C248.434 236.62 248.82 238.072 249.222 239.508C249.629 240.942 250.035 242.375 250.656 243.703C250.976 244.358 251.344 244.993 251.824 245.516C252.062 245.779 252.325 246.016 252.614 246.211C252.905 246.402 253.217 246.551 253.547 246.648C253.709 246.701 253.881 246.733 254.049 246.757L254.177 246.771C254.217 246.775 254.276 246.786 254.279 246.778C254.295 246.771 254.31 246.783 254.331 246.773C254.35 246.765 254.366 246.757 254.387 246.754C254.563 246.652 254.768 246.349 254.907 246.035C255.196 245.389 255.392 244.661 255.563 243.935C255.9 242.476 256.138 240.977 256.361 239.481C256.795 236.482 257.154 233.465 257.552 230.451C258.336 224.425 259.183 218.381 260.725 212.458C261.514 209.506 262.457 206.562 263.929 203.814C265.501 201.129 267.347 198.655 269.446 196.416C269.704 196.132 269.951 195.836 270.222 195.565L271.028 194.746L271.835 193.926C272.105 193.654 272.37 193.377 272.654 193.12C273.772 192.076 274.876 191.016 276.036 190.026C276.612 189.524 277.176 189.01 277.763 188.523L279.52 187.057C280.686 186.073 281.892 185.142 283.077 184.188C287.869 180.429 292.757 176.817 297.615 173.175C302.482 169.544 307.334 165.901 312.11 162.156C314.51 160.269 317.037 158.532 319.709 157.016C321.048 156.269 322.423 155.563 323.894 155.052C324.631 154.799 325.395 154.598 326.202 154.543C326.997 154.478 327.87 154.613 328.595 155.073C329.326 155.53 329.81 156.262 330.117 156.999C330.434 157.742 330.602 158.518 330.72 159.289C330.945 160.833 330.973 162.375 330.955 163.906C330.933 165.436 330.857 166.96 330.776 168.479L330.542 173.026C330.264 179.149 329.06 185.245 327.009 191.036C326.879 191.397 326.777 191.771 326.624 192.124L326.19 193.193L325.322 195.327L324.334 197.409C324.002 198.1 323.685 198.801 323.3 199.467L322.192 201.485L321.916 201.991L321.612 202.481L321.005 203.461C320.595 204.109 320.206 204.773 319.779 205.41L318.465 207.3C314.941 212.326 310.778 216.866 306.342 221.067C305.786 221.591 305.234 222.119 304.67 222.634L302.953 224.152C301.82 225.178 300.634 226.138 299.466 227.116L297.707 228.58L295.911 229.996C294.71 230.938 293.522 231.894 292.281 232.784C287.39 236.432 282.271 239.796 276.917 242.75C274.23 244.204 271.497 245.589 268.696 246.82C265.902 248.06 263.045 249.163 260.212 250.243C259.511 250.517 258.801 250.786 258.115 251.08L257.597 251.295C257.555 251.314 257.508 251.33 257.471 251.347L257.373 251.398C257.31 251.434 257.239 251.461 257.178 251.502C256.929 251.656 256.719 251.85 256.533 252.077C256.183 252.55 255.947 253.165 255.843 253.844C255.732 254.519 255.714 255.238 255.742 255.961C255.802 257.412 256.05 258.89 256.346 260.353C256.643 261.818 257.012 263.282 257.399 264.74C257.788 266.198 258.202 267.654 258.629 269.11C259.05 270.568 259.52 271.999 259.908 273.511C260.664 276.507 261.127 279.53 261.598 282.534C262.062 285.538 262.506 288.531 263.145 291.463C263.466 292.927 263.847 294.373 264.324 295.77C264.812 297.16 265.403 298.507 266.202 299.676C267.084 300.968 267.853 302.294 268.611 303.622C269.366 304.951 270.095 306.286 270.822 307.622C272.269 310.297 273.709 312.969 275.196 315.612C276.681 318.257 278.223 320.866 279.821 323.426C281.42 325.985 283.088 328.5 284.894 330.852C285.798 332.019 286.738 333.16 287.761 334.115L289.431 335.665C289.98 336.207 290.547 336.737 291.08 337.286C292.16 338.378 293.206 339.492 294.244 340.61C295.287 341.726 296.307 342.855 297.319 343.992C299.351 346.257 301.344 348.55 303.329 350.847L306.308 354.276C307.302 355.402 308.302 356.569 309.329 357.568L309.353 357.592C309.639 357.871 309.644 358.33 309.366 358.619C309.104 358.888 308.684 358.907 308.397 358.682C307.134 357.678 306.064 356.617 304.968 355.539C303.88 354.464 302.819 353.372 301.765 352.275C299.658 350.08 297.581 347.863 295.508 345.652C293.426 343.451 291.368 341.226 289.247 339.098C288.725 338.554 288.187 338.042 287.656 337.514C287.389 337.254 287.118 337.009 286.847 336.757L286.441 336.379L285.996 335.952C284.83 334.798 283.858 333.567 282.945 332.304C281.135 329.772 279.572 327.132 278.067 324.471C276.562 321.81 275.148 319.11 273.717 316.424C272.29 313.737 270.874 311.048 269.433 308.38C268.713 307.044 267.989 305.713 267.248 304.399C266.504 303.087 265.749 301.78 264.925 300.563C264.011 299.218 263.382 297.753 262.868 296.28C262.369 294.8 261.979 293.301 261.655 291.797C261.009 288.788 260.573 285.769 260.116 282.768C259.658 279.771 259.206 276.778 258.483 273.879C258.119 272.448 257.646 270.99 257.229 269.527C256.799 268.065 256.378 266.6 255.984 265.126C255.593 263.65 255.216 262.164 254.909 260.655C254.604 259.146 254.342 257.616 254.271 256.03C254.239 255.239 254.253 254.429 254.389 253.607C254.518 252.789 254.806 251.928 255.365 251.182C255.658 250.819 256.01 250.496 256.41 250.249C256.509 250.187 256.615 250.138 256.718 250.084L256.873 250.005C256.923 249.982 256.964 249.966 257.01 249.948L257.543 249.726C258.256 249.42 258.966 249.151 259.678 248.872C262.521 247.781 265.331 246.693 268.089 245.466C270.848 244.248 273.542 242.882 276.192 241.443C281.471 238.52 286.525 235.189 291.363 231.565C292.588 230.683 293.766 229.732 294.955 228.799L296.734 227.393L298.474 225.939C299.632 224.965 300.808 224.012 301.924 222.998L303.62 221.496C304.176 220.985 304.72 220.461 305.272 219.948C309.66 215.81 313.764 211.356 317.225 206.436L318.516 204.585C318.938 203.964 319.317 203.314 319.721 202.681L320.317 201.726L320.614 201.249L320.884 200.756L321.97 198.782C322.35 198.132 322.659 197.448 322.985 196.771L323.955 194.74L324.808 192.657L325.233 191.615C325.383 191.27 325.483 190.907 325.611 190.556C327.623 184.898 328.799 178.966 329.295 172.966L329.687 168.422C329.82 166.911 329.947 165.402 330.02 163.899C330.087 162.396 330.123 160.888 329.939 159.418C329.846 158.687 329.7 157.961 329.435 157.3C329.179 156.639 328.78 156.043 328.213 155.682C327.653 155.318 326.949 155.188 326.239 155.236C325.525 155.27 324.808 155.463 324.112 155.706C322.715 156.198 321.396 156.942 320.128 157.739C317.598 159.366 315.238 161.259 312.875 163.141L309.303 165.978L305.706 168.782C303.299 170.64 300.873 172.471 298.445 174.299C293.582 177.945 288.686 181.534 283.911 185.266C281.537 187.147 279.155 189.018 276.883 191.009C275.725 191.982 274.628 193.016 273.518 194.037C273.236 194.29 272.972 194.556 272.706 194.824L271.906 195.622L271.105 196.419C270.836 196.682 270.597 196.972 270.34 197.245C268.269 199.42 266.426 201.825 264.898 204.356C263.461 206.953 262.492 209.826 261.677 212.723C260.874 215.63 260.258 218.595 259.723 221.576C259.192 224.559 258.742 227.559 258.328 230.564C257.914 233.572 257.538 236.586 257.09 239.597C256.863 241.104 256.623 242.607 256.278 244.109C256.098 244.858 255.905 245.607 255.572 246.35C255.485 246.535 255.389 246.72 255.261 246.901C255.134 247.082 254.974 247.268 254.726 247.409C254.589 247.473 254.445 247.52 254.283 247.516C254.193 247.522 254.158 247.509 254.103 247.507L253.947 247.489C253.742 247.46 253.538 247.42 253.338 247.356C252.535 247.121 251.833 246.638 251.257 246.073C250.678 245.507 250.204 244.86 249.782 244.192C248.949 242.848 248.322 241.408 247.838 239.94C246.906 236.99 246.377 233.963 245.775 231.007C245.626 230.267 245.471 229.526 245.305 228.79C245.153 228.051 244.981 227.315 244.803 226.581C244.638 225.846 244.443 225.117 244.251 224.387C244.152 224.023 244.064 223.654 243.96 223.293L243.642 222.209L243.323 221.122L242.971 220.047C242.729 219.334 242.514 218.608 242.243 217.902L241.458 215.777L240.599 213.68C238.233 208.113 235.115 202.877 231.549 197.99C230.621 196.792 229.716 195.58 228.772 194.396C227.817 193.221 226.848 192.058 225.829 190.941C223.803 188.702 221.66 186.548 219.281 184.719C218.091 183.819 216.829 182.975 215.477 182.461C215.14 182.336 214.799 182.242 214.466 182.194C214.14 182.147 213.8 182.165 213.623 182.273C213.535 182.326 213.5 182.374 213.48 182.448C213.456 182.52 213.468 182.636 213.507 182.762C213.588 183.018 213.788 183.29 214.019 183.525C214.14 183.642 214.264 183.757 214.403 183.862C214.47 183.918 214.543 183.964 214.611 184.015L214.864 184.221C215.044 184.355 215.175 184.512 215.317 184.666C215.467 184.817 215.579 184.983 215.702 185.144C216.171 185.796 216.561 186.482 216.895 187.181C217.578 188.576 218.115 190.013 218.623 191.457C219.624 194.349 220.468 197.275 221.287 200.203L223.712 208.984C224.124 210.441 224.549 211.895 225.003 213.332C225.454 214.771 225.953 216.19 226.541 217.539C227.738 220.247 229.455 222.681 231.464 224.897C233.472 227.113 235.691 229.202 237.763 231.465C238.289 232.024 238.783 232.614 239.291 233.19C239.77 233.794 240.275 234.372 240.726 234.998L241.418 235.921L242.081 236.854C242.519 237.48 242.954 238.106 243.38 238.741C245.081 241.278 246.698 243.891 247.983 246.698C248.622 248.101 249.173 249.563 249.488 251.11C249.649 251.883 249.724 252.664 249.77 253.43C249.824 254.202 249.833 254.965 249.854 255.727C249.89 257.25 249.906 258.759 250.032 260.249C250.153 261.735 250.392 263.208 250.916 264.555L251.011 264.809C251.046 264.892 251.087 264.972 251.124 265.051L251.358 265.534L251.878 266.572L252.14 267.094C252.227 267.268 252.291 267.453 252.367 267.632L252.806 268.714C253.314 270.187 253.69 271.705 253.911 273.241C254.318 276.322 254.231 279.377 254.467 282.365C254.712 285.352 255.252 288.298 256.204 291.126L256.213 291.145C256.338 291.525 256.133 291.937 255.754 292.065C255.375 292.193 254.963 291.988 254.835 291.609C254.829 291.596 254.824 291.579 254.82 291.564L254.816 291.554Z" fill="#83A642"></path><path d="M146.215 356.957C146.884 356.634 147.527 356.255 148.159 355.865C148.477 355.676 148.779 355.458 149.093 355.265C149.397 355.053 149.707 354.851 150.003 354.634C150.605 354.207 151.196 353.766 151.77 353.307L152.632 352.619C152.916 352.384 153.189 352.139 153.469 351.9C153.751 351.667 154.023 351.419 154.295 351.171C154.562 350.919 154.848 350.687 155.108 350.428C155.635 349.915 156.18 349.422 156.699 348.899L157.496 348.135L158.283 347.357C158.801 346.847 159.379 346.313 159.929 345.795C160.466 345.258 161.086 344.8 161.652 344.291C161.933 344.035 162.246 343.813 162.544 343.579L163.441 342.871C164.678 341.979 165.96 341.137 167.353 340.484C168.742 339.832 170.214 339.327 171.735 339.033C172.496 338.881 173.269 338.794 174.039 338.731C174.424 338.706 174.809 338.687 175.188 338.677C175.568 338.667 175.935 338.644 176.256 338.613L176.302 338.608C176.703 338.569 177.059 338.861 177.097 339.259C177.136 339.66 176.844 340.016 176.446 340.054C176.419 340.057 176.386 340.056 176.358 340.057C176.154 340.052 175.934 340.055 175.746 340.043L175.18 340.015C174.809 339.996 174.444 339.989 174.081 339.985C173.719 339.984 173.358 339.992 172.996 340.012C172.637 340.045 172.274 340.063 171.919 340.125C170.488 340.323 169.085 340.748 167.754 341.347L166.769 341.824C166.444 341.994 166.137 342.194 165.819 342.377C165.662 342.472 165.502 342.563 165.349 342.659L164.897 342.975L163.993 343.606L163.143 344.311C162.859 344.546 162.579 344.785 162.325 345.05C162.062 345.31 161.802 345.571 161.547 345.834C161.42 345.967 161.286 346.093 161.165 346.232L160.808 346.654L159.368 348.356L158.624 349.221C158.368 349.503 158.1 349.774 157.833 350.046C156.768 351.136 155.592 352.117 154.379 353.039C154.07 353.263 153.763 353.492 153.451 353.707L152.499 354.345C151.85 354.745 151.193 355.137 150.516 355.49C150.179 355.669 149.831 355.828 149.49 355.996C149.141 356.154 148.793 356.307 148.437 356.443C147.73 356.727 147.005 356.964 146.252 357.113C146.207 357.12 146.163 357.093 146.155 357.049C146.147 357.011 146.169 356.975 146.199 356.958L146.204 356.955L146.215 356.957Z" fill="#83A642"></path><path d="M142.504 344.109C144.595 343.56 146.694 343.091 148.803 342.645C150.911 342.2 153.024 341.769 155.146 341.391C159.389 340.633 163.647 339.97 167.923 339.398C176.476 338.301 185.086 337.575 193.716 337.382C198.032 337.262 202.352 337.29 206.668 337.42L209.905 337.539L213.14 337.725C214.219 337.781 215.295 337.892 216.371 337.978C217.446 338.073 218.524 338.149 219.599 338.279L222.824 338.634L226.036 339.068C226.57 339.143 227.107 339.211 227.641 339.292L229.242 339.556C230.308 339.736 231.379 339.898 232.438 340.11L235.618 340.751L236.414 340.913L237.204 341.099L238.783 341.473C240.896 341.931 242.969 342.562 245.054 343.132C245.442 343.237 245.67 343.637 245.564 344.022C245.459 344.403 245.07 344.632 244.688 344.534L244.662 344.527C240.517 343.483 236.347 342.547 232.129 341.844C227.909 341.164 223.676 340.552 219.415 340.183C210.896 339.417 202.328 339.119 193.765 339.325C192.693 339.34 191.623 339.379 190.553 339.418C189.484 339.458 188.413 339.488 187.343 339.547L184.134 339.7L180.926 339.897C176.651 340.194 172.379 340.546 168.115 341.011C163.85 341.447 159.592 341.979 155.346 342.601C151.1 343.207 146.859 343.901 142.652 344.716L142.647 344.718C142.478 344.748 142.315 344.639 142.281 344.469C142.251 344.307 142.351 344.151 142.507 344.108L142.504 344.109Z" fill="#83A642"></path><path d="M183.255 339.054C180.582 338.011 177.889 337.051 175.184 336.112C173.831 335.644 172.48 335.174 171.116 334.732L167.022 333.415C164.368 332.6 161.608 332.045 158.814 331.603C156.018 331.17 153.189 330.846 150.341 330.537C150.274 330.53 150.226 330.469 150.233 330.402C150.239 330.345 150.285 330.301 150.343 330.293C151.779 330.135 153.217 330.088 154.658 330.09C156.098 330.096 157.541 330.159 158.98 330.293C159.341 330.321 159.7 330.369 160.058 330.41C160.419 330.45 160.776 330.496 161.136 330.553C161.494 330.607 161.855 330.654 162.213 330.715L163.283 330.925C164.706 331.233 166.119 331.63 167.479 332.207C168.8 332.758 170.105 333.32 171.445 333.821C172.779 334.331 174.133 334.786 175.488 335.236C178.2 336.129 180.937 336.963 183.705 337.674C184.094 337.775 184.33 338.171 184.229 338.56C184.128 338.949 183.735 339.184 183.345 339.083C183.317 339.077 183.286 339.065 183.262 339.054L183.255 339.054Z" fill="#83A642"></path><path d="M181.401 367.681C182.417 367.34 183.415 366.877 184.366 366.361C185.32 365.845 186.256 365.298 187.145 364.677C188.934 363.458 190.626 362.099 192.21 360.624C192.612 360.265 192.997 359.881 193.386 359.505L193.968 358.94L194.526 358.351L195.646 357.165L196.794 355.966C198.347 354.39 199.952 352.864 201.627 351.414C202.035 351.039 202.466 350.691 202.888 350.332C203.316 349.98 203.726 349.61 204.168 349.273C204.605 348.933 205.034 348.58 205.464 348.233C205.899 347.887 206.346 347.561 206.787 347.222C207.227 346.882 207.672 346.551 208.125 346.232C208.577 345.91 209.025 345.58 209.484 345.264C210.413 344.654 211.337 344.026 212.306 343.467C213.255 342.879 214.262 342.379 215.259 341.868L216.798 341.178L217.184 341.009L217.579 340.86L218.37 340.566C220.489 339.803 222.715 339.255 224.992 339.128C225.391 339.106 225.735 339.413 225.758 339.813C225.777 340.184 225.514 340.508 225.156 340.569L225.145 340.574C223.052 340.932 221.016 341.558 219.027 342.325L218.284 342.619L217.91 342.764L217.544 342.928L216.081 343.588C215.123 344.075 214.151 344.53 213.215 345.064C212.258 345.56 211.339 346.131 210.407 346.679C209.947 346.963 209.494 347.263 209.038 347.555L208.356 347.996L207.691 348.465C205.898 349.689 204.209 351.062 202.556 352.477L201.333 353.557L200.141 354.671L199.547 355.231L198.969 355.804C198.584 356.188 198.189 356.563 197.814 356.955L196.684 358.133L195.514 359.313L194.925 359.904L194.311 360.47C193.9 360.847 193.505 361.235 193.068 361.583C191.373 363.026 189.567 364.345 187.63 365.446C185.695 366.544 183.666 367.499 181.464 367.953C181.385 367.97 181.31 367.919 181.293 367.84C181.278 367.767 181.319 367.697 181.389 367.674L181.402 367.668L181.401 367.681Z" fill="#83A642"></path><path d="M197.669 327.325C198.111 327.884 198.568 328.449 199.047 328.983C199.519 329.525 200.007 330.05 200.499 330.567C201.49 331.598 202.536 332.568 203.624 333.477C204.16 333.941 204.735 334.353 205.294 334.784C205.578 334.995 205.876 335.183 206.165 335.384L206.599 335.685L207.049 335.959L207.948 336.508C208.258 336.674 208.569 336.834 208.876 337.005C209.031 337.09 209.183 337.176 209.339 337.257L209.818 337.476C210.137 337.619 210.455 337.772 210.773 337.925L210.826 337.952C211.186 338.127 211.336 338.56 211.161 338.919C210.995 339.259 210.599 339.411 210.253 339.28C209.904 339.148 209.552 339.011 209.204 338.868L208.681 338.657C208.51 338.58 208.343 338.494 208.172 338.41C207.834 338.247 207.502 338.069 207.165 337.902C206.841 337.714 206.522 337.516 206.2 337.32C204.926 336.526 203.733 335.612 202.644 334.591C201.545 333.582 200.539 332.484 199.631 331.309C198.729 330.132 197.93 328.887 197.284 327.545C197.233 327.435 197.278 327.305 197.386 327.255C197.481 327.211 197.589 327.237 197.652 327.317L197.658 327.33L197.669 327.325Z" fill="#83A642"></path><path d="M181.194 277.34C182.881 279.484 184.53 281.663 186.171 283.838L191.1 290.355C192.755 292.513 194.398 294.685 196.087 296.812C197.775 298.943 199.471 301.064 201.259 303.13L201.261 303.135C201.337 303.221 201.328 303.354 201.241 303.429C201.164 303.497 201.055 303.496 200.976 303.437C200.434 303.014 199.9 302.574 199.366 302.134C198.843 301.683 198.345 301.21 197.833 300.743C196.835 299.793 195.865 298.813 194.935 297.798C193.063 295.779 191.308 293.663 189.623 291.495C187.932 289.33 186.312 287.116 184.764 284.853C183.217 282.59 181.715 280.295 180.349 277.905C180.21 277.66 180.294 277.352 180.538 277.21C180.761 277.084 181.037 277.141 181.192 277.335L181.194 277.34Z" fill="#83A642"></path><path d="M186.085 298.521C188.441 301.161 190.867 303.737 193.334 306.264C193.948 306.897 194.575 307.518 195.201 308.142L196.138 309.076L197.092 309.993C197.732 310.599 198.348 311.23 199.003 311.819L200.946 313.611C202.265 314.777 203.567 315.961 204.932 317.068C206.26 318.224 207.672 319.267 209.047 320.359C211.867 322.448 214.783 324.392 217.852 326.1L217.865 326.106C218.11 326.242 218.197 326.553 218.06 326.796C217.932 327.029 217.643 327.118 217.405 327.011C214.137 325.528 211.071 323.64 208.156 321.567C205.265 319.457 202.537 317.147 199.914 314.731C198.629 313.494 197.338 312.266 196.104 310.98L195.175 310.02L194.265 309.041L193.356 308.062C193.054 307.735 192.765 307.395 192.469 307.062C190.114 304.397 187.853 301.645 185.804 298.735C185.748 298.655 185.766 298.544 185.846 298.488C185.92 298.434 186.022 298.448 186.079 298.514L186.085 298.521Z" fill="#83A642"></path><path d="M206.256 306.089C206.475 306.31 206.685 306.577 206.887 306.833L207.485 307.611C207.684 307.873 207.894 308.125 208.107 308.384C208.323 308.642 208.553 308.884 208.8 309.153L208.803 309.159C208.84 309.199 208.836 309.258 208.799 309.295C208.776 309.315 208.747 309.322 208.72 309.318C208.35 309.266 207.989 309.143 207.656 308.971C207.324 308.799 207.01 308.593 206.726 308.354C206.442 308.114 206.18 307.852 205.953 307.564C205.726 307.269 205.531 306.973 205.387 306.601C205.283 306.336 205.414 306.038 205.679 305.934C205.876 305.856 206.094 305.911 206.233 306.052L206.263 306.082L206.256 306.089Z" fill="#83A642"></path><path d="M213.976 313.798C214.201 313.815 214.401 313.872 214.589 313.945C214.781 314.016 214.958 314.107 215.13 314.209C215.3 314.312 215.465 314.428 215.616 314.559C215.769 314.689 215.915 314.836 216.034 315.018C216.132 315.167 216.09 315.366 215.945 315.466C215.876 315.511 215.797 315.528 215.725 315.517C215.506 315.487 215.315 315.419 215.13 315.338C214.944 315.262 214.77 315.163 214.601 315.053C214.433 314.946 214.274 314.824 214.127 314.681C213.979 314.542 213.841 314.389 213.727 314.192C213.653 314.066 213.695 313.903 213.823 313.827C213.871 313.799 213.926 313.786 213.976 313.791L213.976 313.798Z" fill="#83A642"></path><path d="M220.553 313.673C221.391 314.775 222.253 315.866 223.136 316.934C223.565 317.477 224.029 317.994 224.467 318.53C224.911 319.06 225.377 319.573 225.825 320.104C227.651 322.187 229.559 324.193 231.585 326.075L233.118 327.468L234.706 328.797C235.225 329.254 235.779 329.662 236.327 330.083L237.148 330.713L237.559 331.027L237.986 331.318C240.227 332.927 242.619 334.292 245.08 335.52L245.109 335.533C245.359 335.659 245.462 335.963 245.336 336.214C245.212 336.464 244.91 336.566 244.662 336.444L242.756 335.525C242.443 335.366 242.117 335.223 241.809 335.05L240.894 334.521L239.979 333.989C239.676 333.807 239.359 333.647 239.074 333.44L237.321 332.258C235.033 330.617 232.818 328.868 230.805 326.904C228.776 324.96 226.836 322.927 225.045 320.767C223.264 318.599 221.606 316.333 220.209 313.89C220.154 313.794 220.187 313.67 220.286 313.615C220.374 313.564 220.488 313.588 220.548 313.669L220.55 313.674L220.553 313.673Z" fill="#83A642"></path><path d="M186.024 253.806C188.203 255.223 190.268 256.756 192.295 258.362C193.306 259.162 194.311 259.975 195.283 260.826C196.27 261.657 197.219 262.535 198.172 263.407C200.06 265.17 201.857 267.036 203.562 268.983C205.238 270.957 206.786 273.044 208.12 275.26C208.179 275.36 208.148 275.493 208.048 275.552C207.953 275.609 207.833 275.585 207.767 275.5L207.765 275.495C206.211 273.458 204.549 271.527 202.806 269.664C201.044 267.82 199.214 266.043 197.334 264.318C196.381 263.471 195.433 262.616 194.457 261.789C193.974 261.37 193.486 260.96 192.992 260.553C192.502 260.144 192.018 259.729 191.516 259.331C190.527 258.524 189.521 257.737 188.511 256.954C187.508 256.166 186.477 255.4 185.457 254.652L185.447 254.644C185.222 254.476 185.174 254.159 185.34 253.932C185.501 253.713 185.804 253.662 186.025 253.808L186.024 253.806Z" fill="#83A642"></path><path d="M211.391 280.227C212.531 281.047 213.444 282.041 214.319 283.078C214.754 283.595 215.16 284.137 215.561 284.677C215.949 285.229 216.334 285.783 216.693 286.349C217.408 287.482 218.094 288.607 218.779 289.751C219.469 290.884 220.135 292.043 220.834 293.161L220.84 293.175C220.883 293.238 220.861 293.322 220.798 293.36C220.747 293.394 220.68 293.387 220.635 293.347C219.615 292.425 218.775 291.382 217.947 290.323C217.123 289.266 216.363 288.153 215.622 287.054C215.255 286.505 214.892 285.957 214.509 285.421C214.147 284.87 213.755 284.344 213.381 283.801C212.616 282.739 211.837 281.661 211.017 280.669L211.001 280.648C210.898 280.523 210.915 280.339 211.04 280.236C211.144 280.149 211.291 280.148 211.396 280.224L211.391 280.227Z" fill="#83A642"></path><path d="M94.6055 223.143C98.0062 221.419 101.455 219.804 104.92 218.226C108.383 216.643 111.869 215.122 115.366 213.619L125.875 209.163C127.628 208.425 129.374 207.671 131.136 206.945L133.816 205.902L135.154 205.379C135.599 205.201 136.058 205.065 136.51 204.903L139.229 203.976L139.908 203.744C140.136 203.67 140.365 203.605 140.595 203.536L141.971 203.128C142.888 202.858 143.803 202.574 144.724 202.319L147.504 201.607L148.893 201.249L150.293 200.935L153.091 200.31C154.027 200.115 154.965 199.942 155.905 199.761L157.313 199.494C157.782 199.408 158.255 199.338 158.726 199.257C162.489 198.594 166.287 198.138 170.086 197.775C173.889 197.426 177.693 197.169 181.523 197.168C181.722 197.169 181.886 197.33 181.886 197.531C181.887 197.726 181.733 197.883 181.542 197.892L181.529 197.892C173.965 198.251 166.41 199.223 158.967 200.601C151.516 201.976 144.172 203.906 137.05 206.422C136.605 206.581 136.152 206.721 135.715 206.898L134.399 207.42L131.766 208.461L126.507 210.667L115.983 215.086C112.468 216.543 108.947 217.981 105.396 219.355C101.848 220.734 98.2872 222.078 94.6772 223.311C94.63 223.326 94.5801 223.302 94.562 223.256C94.5477 223.211 94.5684 223.166 94.6067 223.145L94.6055 223.143Z" fill="#83A642"></path><path d="M107.052 225.205C107.04 225.227 107.029 225.245 107.014 225.268C107.002 225.283 106.987 225.3 106.974 225.312L106.963 225.324C106.963 225.324 106.94 225.337 106.929 225.346C106.902 225.358 106.876 225.37 106.85 225.376C106.561 225.389 106.555 225.135 106.55 225.151C106.54 225.101 106.539 225.079 106.537 225.054C106.531 224.958 106.531 224.89 106.536 224.818C106.544 224.677 106.559 224.545 106.578 224.411C106.618 224.146 106.665 223.891 106.726 223.635C106.848 223.127 106.996 222.626 107.177 222.14C107.532 221.162 107.989 220.223 108.53 219.328C109.076 218.438 109.698 217.579 110.456 216.834C111.205 216.092 112.102 215.425 113.137 215.146C113.212 215.127 113.29 215.171 113.308 215.246C113.322 215.303 113.301 215.361 113.256 215.395L113.253 215.396C112.442 215.984 111.798 216.712 111.217 217.494C110.642 218.283 110.121 219.117 109.639 219.974C109.156 220.836 108.701 221.716 108.251 222.6C108.029 223.046 107.796 223.487 107.578 223.934C107.47 224.157 107.354 224.38 107.252 224.603C107.199 224.715 107.145 224.826 107.101 224.933L107.042 225.073C107.042 225.073 107.036 225.088 107.031 225.071C107.026 225.115 107.036 224.902 106.781 224.912C106.763 224.914 106.741 224.921 106.724 224.932C106.716 224.936 106.705 224.941 106.7 224.95L106.697 224.951C106.697 224.951 106.692 224.96 106.69 224.964C106.693 224.963 106.703 224.958 106.711 224.954L106.801 224.913C106.904 224.874 107.023 224.921 107.068 225.025C107.095 225.083 107.085 225.152 107.055 225.204L107.052 225.205Z" fill="#83A642"></path><path d="M107.637 204.863C110.177 204.303 112.739 203.887 115.313 203.552C117.889 203.223 120.481 202.995 123.083 202.877C125.686 202.784 128.296 202.81 130.91 203.007C133.519 203.245 136.124 203.657 138.681 204.367C139.067 204.475 139.293 204.873 139.186 205.262C139.078 205.648 138.68 205.874 138.291 205.767C138.283 205.764 138.277 205.764 138.269 205.761L138.247 205.755C135.836 204.994 133.327 204.499 130.79 204.176C128.246 203.893 125.676 203.775 123.098 203.772C120.523 203.794 117.946 203.929 115.376 204.163C112.806 204.404 110.239 204.726 107.701 205.188L107.699 205.189C107.607 205.206 107.521 205.144 107.505 205.055C107.49 204.966 107.547 204.882 107.634 204.864L107.637 204.863Z" fill="#83A642"></path><path d="M138.311 215.619C140.101 214.112 141.834 212.533 143.514 210.92C145.194 209.301 146.839 207.657 148.417 205.942C148.804 205.522 149.224 205.068 149.655 204.64C150.082 204.208 150.529 203.792 150.987 203.387C151.901 202.579 152.896 201.854 153.939 201.2C154.995 200.566 156.099 200.001 157.274 199.59C157.859 199.382 158.46 199.208 159.077 199.082C159.384 199.019 159.694 198.965 160.011 198.93C160.17 198.913 160.329 198.897 160.491 198.889C160.66 198.881 160.801 198.873 161.013 198.877C161.414 198.885 161.731 199.215 161.722 199.616C161.712 199.989 161.426 200.288 161.064 200.322L160.999 200.327C160.918 200.332 160.763 200.35 160.642 200.371C160.51 200.39 160.378 200.416 160.247 200.443C159.981 200.499 159.716 200.561 159.449 200.634C158.92 200.784 158.394 200.967 157.88 201.177C156.853 201.603 155.86 202.132 154.917 202.746C153.971 203.355 153.072 204.045 152.221 204.795C151.792 205.167 151.376 205.553 150.972 205.958C150.566 206.358 150.189 206.773 149.762 207.205C148.107 208.918 146.379 210.565 144.514 212.053L143.816 212.61L143.102 213.147C142.624 213.503 142.14 213.853 141.644 214.183C140.655 214.85 139.645 215.48 138.565 216.013C138.45 216.07 138.31 216.023 138.253 215.908C138.207 215.808 138.231 215.695 138.312 215.628L138.32 215.625L138.311 215.619Z" fill="#83A642"></path><path d="M71.9972 140.34C76.0466 141.3 80.0552 142.373 84.0643 143.473C88.0695 144.573 92.0584 145.74 96.0333 146.946C100.011 148.145 103.971 149.403 107.922 150.687C109.896 151.335 111.867 151.994 113.832 152.671C114.815 153.015 115.801 153.328 116.778 153.693L119.714 154.777C121.684 155.465 123.593 156.309 125.529 157.093C126.501 157.477 127.445 157.918 128.395 158.351L131.244 159.648L134.049 161.036C134.983 161.504 135.926 161.95 136.834 162.465L139.584 163.962C140.499 164.465 141.39 165.011 142.294 165.532L143.647 166.321C144.095 166.59 144.533 166.873 144.977 167.146C145.86 167.703 146.754 168.244 147.629 168.817L150.23 170.565L152.785 172.38C156.171 174.839 159.425 177.436 162.477 180.367C162.766 180.646 162.774 181.103 162.495 181.392C162.223 181.675 161.779 181.69 161.489 181.431L161.463 181.408C159.959 180.059 158.347 178.746 156.728 177.479L154.266 175.615C153.429 175.012 152.609 174.391 151.762 173.802L149.219 172.046L146.634 170.348C145.773 169.782 144.891 169.247 144.02 168.695C143.584 168.424 143.149 168.143 142.706 167.878L141.373 167.096C137.836 164.973 134.165 163.084 130.486 161.226L127.684 159.913C126.751 159.476 125.82 159.029 124.865 158.64C122.962 157.844 121.083 156.989 119.142 156.288L116.249 155.187C115.286 154.815 114.3 154.489 113.326 154.135C111.375 153.435 109.414 152.769 107.457 152.084C103.537 150.734 99.6098 149.41 95.6613 148.143C87.7683 145.612 79.8335 143.176 71.8365 141.007L71.8339 141.008C71.6497 140.956 71.5396 140.767 71.5904 140.58C71.6384 140.401 71.8246 140.292 72.0039 140.334L71.9972 140.34Z" fill="#83A642"></path><path d="M99.2163 134.487C100.914 136.392 102.659 138.267 104.42 140.114C106.186 141.96 107.973 143.789 109.803 145.565C111.636 147.341 113.484 149.1 115.406 150.771C117.324 152.44 119.286 154.06 121.348 155.502L121.35 155.507C121.683 155.733 121.762 156.186 121.534 156.516C121.305 156.843 120.854 156.925 120.523 156.695C120.518 156.69 120.509 156.685 120.504 156.681C118.419 155.121 116.486 153.412 114.6 151.66C112.712 149.91 110.911 148.081 109.129 146.234C107.348 144.386 105.616 142.496 103.907 140.589C102.2 138.678 100.517 136.75 98.8743 134.777C98.794 134.68 98.8085 134.539 98.9029 134.46C98.9974 134.381 99.1346 134.394 99.2178 134.483L99.2163 134.487Z" fill="#83A642"></path><path d="M138.526 149.225C139.919 151.109 141.267 153.024 142.593 154.955C143.916 156.887 145.213 158.838 146.474 160.816C148.983 164.777 151.381 168.821 153.377 173.119C153.546 173.482 153.388 173.914 153.025 174.083C152.662 174.252 152.23 174.094 152.061 173.731C152.058 173.723 152.054 173.715 152.05 173.707L152.045 173.696C150.266 169.432 148.042 165.32 145.704 161.286C144.528 159.272 143.313 157.276 142.069 155.301C140.822 153.326 139.551 151.363 138.238 149.432C138.183 149.349 138.203 149.24 138.283 149.184C138.364 149.131 138.468 149.149 138.526 149.225Z" fill="#83A642"></path><path d="M198.963 178.57C197.94 177.759 196.997 176.873 196.084 175.943C195.178 175.01 194.308 174.041 193.49 173.03C192.663 172.022 191.885 170.975 191.152 169.892C190.78 169.354 190.431 168.803 190.078 168.25C189.741 167.689 189.407 167.128 189.088 166.553C188.456 165.406 187.846 164.243 187.329 163.034C187.055 162.438 186.824 161.822 186.572 161.213C186.351 160.592 186.104 159.984 185.91 159.354C185.809 159.039 185.7 158.728 185.607 158.413L185.344 157.46C185.16 156.829 185.034 156.18 184.875 155.54L184.697 154.567C184.637 154.243 184.581 153.917 184.541 153.59L184.406 152.609C184.363 152.284 184.344 151.953 184.313 151.625C184.247 150.965 184.227 150.318 184.201 149.668L184.133 147.718C184.125 146.42 184.131 145.124 184.136 143.832C184.163 142.54 184.196 141.247 184.207 139.956L184.261 138.02L184.291 136.086C184.332 134.797 184.357 133.508 184.344 132.219C184.339 130.928 184.323 129.639 184.282 128.346C184.212 125.764 184.15 123.179 184.263 120.604C184.489 115.456 184.878 110.322 185.262 105.19C185.634 100.06 185.936 94.9178 185.772 89.7908L185.699 87.8696C185.679 87.229 185.619 86.5884 185.58 85.9472C185.503 84.6647 185.385 83.385 185.276 82.1042C185.038 79.546 184.758 76.9878 184.389 74.4427C183.673 69.3544 182.772 64.275 181.522 59.2973L181.52 59.292C181.484 59.1456 181.574 58.995 181.72 58.9589C181.867 58.9229 182.016 59.0103 182.053 59.1594C182.66 61.6776 183.189 64.2 183.665 66.7339C184.144 69.2666 184.583 71.8086 184.965 74.3606C185.705 79.4665 186.354 84.5827 186.638 89.7534C186.685 90.4001 186.701 91.0458 186.716 91.6916L186.774 93.6292L186.833 97.5028L186.857 101.377L186.853 105.247C186.839 110.409 186.696 115.564 186.438 120.705C186.3 123.274 186.013 125.837 185.74 128.398C185.61 129.681 185.489 130.963 185.406 132.246C185.324 133.53 185.282 134.816 185.258 136.101C185.162 141.234 185.396 146.405 186.033 151.434C186.694 156.42 188.229 161.272 190.494 165.804C191.059 166.937 191.671 168.047 192.314 169.144C192.962 170.235 193.649 171.307 194.368 172.359C195.818 174.454 197.388 176.489 199.128 178.369L199.131 178.374C199.181 178.427 199.178 178.509 199.124 178.559C199.075 178.605 199.002 178.606 198.951 178.566L198.963 178.57Z" fill="#83A642"></path><path d="M189.828 167.531C189.769 163.801 190.829 160.256 192.35 156.938L192.953 155.708C193.161 155.301 193.398 154.909 193.62 154.511L193.957 153.916C194.075 153.721 194.209 153.534 194.331 153.343L195.09 152.2L195.93 151.115L196.35 150.574C196.496 150.398 196.656 150.233 196.808 150.064L197.734 149.054C198.046 148.72 198.4 148.428 198.73 148.112C199.068 147.807 199.396 147.479 199.743 147.199L200.779 146.35C201.469 145.783 202.18 145.241 202.885 144.693C204.306 143.611 205.78 142.59 207.287 141.63C208.79 140.663 210.354 139.809 211.853 138.895C213.355 137.989 214.745 136.93 216.024 135.722C216.112 135.636 216.255 135.64 216.338 135.73C216.418 135.814 216.42 135.947 216.341 136.032C215.142 137.357 213.764 138.545 212.288 139.556C210.818 140.579 209.33 141.523 207.896 142.541C206.463 143.556 205.073 144.627 203.721 145.748C203.05 146.315 202.376 146.875 201.722 147.464L200.738 148.343C200.405 148.632 200.118 148.945 199.809 149.242C199.509 149.548 199.187 149.832 198.906 150.158L198.071 151.138C197.934 151.304 197.789 151.461 197.66 151.63L197.281 152.151L196.53 153.191C195.608 154.637 194.751 156.127 194.085 157.71C193.411 159.29 192.869 160.921 192.413 162.576C192.19 163.406 191.975 164.239 191.789 165.077C191.596 165.909 191.429 166.774 191.279 167.583L191.269 167.642C191.196 168.038 190.817 168.297 190.422 168.224C190.076 168.161 189.834 167.861 189.827 167.522L189.828 167.531Z" fill="#83A642"></path><path d="M184.29 129.249C185.07 125.741 187.193 122.968 189.328 120.325L190.155 119.349L191.017 118.408C191.587 117.775 192.204 117.188 192.805 116.588L193.741 115.724L194.209 115.293L194.693 114.879C195.341 114.332 195.989 113.778 196.63 113.263C197.92 112.218 199.206 111.17 200.47 110.102C201.733 109.032 202.983 107.955 204.181 106.826C205.374 105.696 206.529 104.532 207.561 103.268C208.593 102.005 209.492 100.64 210.237 99.1774C210.315 99.0161 210.511 98.9542 210.669 99.0341C210.819 99.1085 210.883 99.2869 210.824 99.4423C210.2 101.012 209.371 102.514 208.395 103.905C207.405 105.287 206.305 106.578 205.143 107.797C203.983 109.018 202.781 110.193 201.551 111.325C200.322 112.462 199.082 113.582 197.828 114.684C197.19 115.233 196.591 115.783 195.988 116.332L195.538 116.746L195.103 117.175L194.236 118.036C193.12 119.223 192.007 120.409 191.016 121.698C190.009 122.969 189.088 124.306 188.231 125.67L185.656 129.737L185.615 129.801C185.399 130.141 184.949 130.241 184.61 130.028C184.344 129.86 184.225 129.544 184.288 129.252L184.29 129.249Z" fill="#83A642"></path><path d="M168.391 130.135C168.663 131.264 169.108 132.394 169.623 133.461C170.14 134.533 170.747 135.556 171.418 136.534C172.739 138.509 174.388 140.239 176.172 141.785L176.843 142.363L177.548 142.95L178.257 143.539L178.952 144.147C179.88 144.958 180.773 145.814 181.649 146.687C182.52 147.569 183.371 148.479 184.129 149.477C184.321 149.724 184.508 149.976 184.683 150.241C184.862 150.496 185.03 150.767 185.195 151.04C185.357 151.313 185.512 151.593 185.653 151.883C185.799 152.183 185.917 152.451 186.044 152.821C186.173 153.2 185.97 153.611 185.591 153.739C185.287 153.842 184.963 153.73 184.78 153.488L184.719 153.405L184.229 152.749L183.698 152.061C183.331 151.608 182.967 151.15 182.588 150.699C181.832 149.795 181.072 148.888 180.265 148.012C179.451 147.142 178.617 146.284 177.743 145.464L177.095 144.841L176.43 144.235L175.762 143.623L175.079 142.981C174.854 142.765 174.621 142.56 174.406 142.33L173.767 141.644C173.332 141.197 172.949 140.703 172.546 140.228C172.341 139.993 172.161 139.738 171.975 139.488C171.791 139.237 171.602 138.989 171.42 138.735C171.081 138.211 170.719 137.707 170.414 137.161C169.766 136.098 169.231 134.967 168.783 133.809C168.339 132.646 167.974 131.468 167.814 130.202C167.794 130.041 167.906 129.897 168.066 129.877C168.215 129.859 168.351 129.952 168.386 130.096L168.392 130.122L168.391 130.135Z" fill="#83A642"></path><path d="M78.7479 157.383C81.2816 156.328 83.795 155.435 86.3709 154.629C88.9413 153.832 91.546 153.149 94.1889 152.632L95.1812 152.44C95.5116 152.373 95.8419 152.312 96.1756 152.266L98.1724 151.956C98.8401 151.857 99.5116 151.801 100.181 151.72L101.186 151.609C101.521 151.581 101.859 151.564 102.195 151.543L104.218 151.419L106.246 151.398L107.261 151.391L108.276 151.441L110.307 151.534C110.706 151.554 111.017 151.892 110.998 152.292C110.978 152.691 110.64 153.002 110.24 152.983C110.234 152.983 110.227 152.983 110.221 152.982L110.172 152.98L108.204 152.822L107.218 152.745L106.23 152.727L104.254 152.695L102.275 152.783C101.946 152.798 101.615 152.808 101.286 152.829L100.299 152.923C99.6423 152.991 98.9815 153.036 98.3272 153.122L96.3623 153.405L95.872 153.479L95.3837 153.571L94.4072 153.756C91.8101 154.262 89.2291 154.885 86.71 155.703L84.8271 156.341C84.2065 156.569 83.5856 156.803 82.9747 157.052C81.7531 157.542 80.5273 158.086 79.3894 158.688L79.3658 158.699C79.0123 158.889 78.5709 158.752 78.3837 158.397C78.1966 158.043 78.3313 157.602 78.6859 157.415C78.707 157.405 78.728 157.396 78.7465 157.387L78.7479 157.383Z" fill="#83A642"></path></g></svg>