<svg xmlns="http://www.w3.org/2000/svg" width="615" height="661" viewBox="0 0 615 661" fill="none"><g opacity="0.24"><path d="M329.87 340.56C328.819 339.545 327.811 338.495 326.796 337.453C325.776 336.419 324.761 335.377 323.755 334.332L317.686 328.097C313.638 323.949 309.553 319.838 305.417 315.775C303.337 313.759 301.249 311.746 299.098 309.807C298.022 308.842 296.942 307.879 295.845 306.954L295.02 306.267L294.198 305.617C293.626 305.202 293.062 304.807 292.457 304.426C292.163 304.232 291.817 304.033 291.441 303.716C291.069 303.397 290.763 303.019 290.539 302.695C290.078 302.028 289.717 301.408 289.332 300.779L288.214 298.905C287.84 298.29 287.463 297.624 287.102 297.13C286.738 296.598 286.295 296.147 285.833 295.739C285.338 295.375 284.829 295.033 284.246 294.837C283.673 294.631 283.067 294.508 282.448 294.485C282.136 294.474 281.828 294.481 281.519 294.517C281.365 294.531 281.212 294.558 281.063 294.583C280.924 294.609 280.749 294.651 280.672 294.673L280.544 294.703C280.425 294.729 280.301 294.733 280.185 294.714C280.049 294.694 280.014 294.681 279.937 294.663C279.867 294.648 279.816 294.632 279.753 294.613C279.632 294.582 279.53 294.541 279.421 294.504C279.202 294.431 279.013 294.339 278.81 294.258C278.424 294.077 278.057 293.883 277.702 293.673C276.993 293.258 276.349 292.784 275.72 292.298C274.471 291.316 273.353 290.22 272.298 289.08C271.237 287.938 270.25 286.767 269.307 285.531C268.375 284.291 267.514 283.046 266.648 281.799C263.208 276.804 259.788 271.83 256.247 266.931C249.14 257.164 241.629 247.677 233.365 238.886C229.223 234.504 224.92 230.271 220.317 226.395C219.148 225.45 218.016 224.458 216.814 223.557L215.033 222.175L213.208 220.853C212.006 219.952 210.736 219.155 209.492 218.312C208.871 217.895 208.218 217.527 207.582 217.132C206.941 216.748 206.312 216.335 205.646 215.992C203.053 214.536 200.316 213.17 197.64 211.767L189.581 207.595C184.198 204.846 178.793 202.146 173.245 199.819C167.702 197.49 161.965 195.645 156.092 194.462C150.213 193.296 144.236 192.725 138.249 192.49L133.75 192.4C132.253 192.371 130.745 192.415 129.249 192.419C126.248 192.412 123.239 192.554 120.234 192.642C114.205 192.869 108.151 193.161 102.112 193.451L83.9736 194.332C77.9209 194.604 71.843 194.864 65.7476 194.835C59.6485 194.798 53.5561 194.461 47.4992 193.917C41.41 193.399 35.3328 192.393 29.4165 190.875C27.9406 190.505 26.4676 190.099 25.0343 189.758C24.3245 189.591 23.6045 189.434 22.984 189.387C22.6807 189.362 22.4114 189.39 22.3098 189.423C22.2482 189.437 22.2578 189.447 22.2559 189.443C22.2541 189.439 22.2575 189.457 22.2439 189.449C22.2375 189.466 22.2308 189.494 22.2126 189.507C22.0758 189.872 22.0951 190.437 22.2556 191.034C22.4238 191.637 22.7117 192.267 23.0316 192.883C23.7069 194.116 24.5669 195.308 25.4796 196.455C26.3941 197.607 27.3908 198.715 28.4117 199.803C28.9192 200.35 29.4468 200.879 29.9684 201.415C30.4983 201.937 31.0444 202.443 31.5823 202.962C32.6398 204.013 33.7932 204.956 34.9221 205.93C35.4784 206.426 36.0777 206.867 36.6687 207.323L38.4417 208.688C43.2641 212.209 48.4996 215.162 53.9092 217.758C55.2751 218.383 56.6202 219.048 58.0008 219.642L62.151 221.412L66.3538 223.065C67.7513 223.622 69.1785 224.107 70.5947 224.632L72.7185 225.401L74.8613 226.128C76.2906 226.608 77.7113 227.11 79.1511 227.57C82.0309 228.48 84.8982 229.415 87.7976 230.263C89.248 230.693 90.6862 231.139 92.1391 231.554L96.5 232.793C99.4015 233.634 102.327 234.392 105.244 235.192C116.914 238.319 128.704 241.045 140.507 243.735L175.945 251.73C187.751 254.448 199.547 257.249 211.248 260.463C217.099 262.071 222.929 263.79 228.684 265.768C230.127 266.245 231.554 266.794 232.986 267.311C234.405 267.873 235.837 268.399 237.239 269.018C238.652 269.598 240.042 270.265 241.429 270.925L245.493 273.002C250.878 275.838 256.156 278.903 261.195 282.357L263.079 283.657L264.933 285.009C265.558 285.453 266.154 285.93 266.759 286.394C267.367 286.856 267.968 287.331 268.56 287.82C269.154 288.303 269.748 288.786 270.326 289.296L271.196 290.049L272.048 290.826C272.622 291.338 273.173 291.885 273.722 292.428C274.274 292.988 274.794 293.521 275.344 294.17C275.735 294.635 275.68 295.333 275.214 295.724C274.749 296.115 274.052 296.06 273.66 295.594L273.634 295.558C273.208 295.05 272.673 294.496 272.165 293.978C271.641 293.458 271.117 292.937 270.563 292.436L269.742 291.684L268.9 290.951C268.344 290.455 267.765 289.984 267.184 289.51C266.612 289.031 266.025 288.564 265.43 288.111C264.837 287.652 264.252 287.189 263.645 286.751L261.832 285.423L259.981 284.142C255.037 280.737 249.831 277.701 244.511 274.879L240.492 272.815C239.146 272.17 237.805 271.524 236.419 270.951C235.053 270.345 233.643 269.823 232.249 269.264C230.835 268.753 229.435 268.211 228.005 267.732C222.313 265.764 216.529 264.038 210.706 262.428C199.052 259.24 187.273 256.456 175.48 253.756L140.037 245.802C128.226 243.125 116.41 240.407 104.686 237.281C101.76 236.48 98.8262 235.726 95.9129 234.881L91.5363 233.639C90.0775 233.222 88.6295 232.776 87.175 232.347C84.2618 231.502 81.3729 230.562 78.4774 229.649C77.0318 229.187 75.5972 228.686 74.1561 228.203L71.9976 227.473L69.8522 226.699C68.4243 226.17 66.9873 225.685 65.5722 225.121L61.3203 223.457L57.1134 221.67C55.7133 221.065 54.3408 220.394 52.9555 219.758C47.4542 217.122 42.0941 214.11 37.1245 210.492L35.2952 209.089C34.6869 208.618 34.0682 208.166 33.4946 207.654C32.329 206.653 31.137 205.679 30.0448 204.595C29.4915 204.064 28.9222 203.541 28.3751 203.002C27.8381 202.453 27.2989 201.911 26.7742 201.347C25.7205 200.231 24.6914 199.084 23.7215 197.865C22.7517 196.647 21.8267 195.379 21.0444 193.957C20.6684 193.231 20.309 192.479 20.073 191.625C19.8526 190.774 19.712 189.759 20.1041 188.686C20.1697 188.534 20.2411 188.384 20.3242 188.239C20.4311 188.092 20.5303 187.939 20.6702 187.81C20.9423 187.548 21.2796 187.352 21.5804 187.256C22.1981 187.057 22.6993 187.067 23.1527 187.09C24.045 187.157 24.8101 187.327 25.5751 187.497C27.0892 187.845 28.5389 188.232 30.0015 188.584C35.8274 190.023 41.7447 190.957 47.7234 191.405C53.7378 191.846 59.7465 192.076 65.7596 192.012C71.7731 191.938 77.792 191.604 83.8315 191.24L92.8932 190.679L101.967 190.166C108.02 189.841 114.069 189.56 120.133 189.346C123.181 189.297 126.221 189.159 129.278 189.267L131.565 189.309C132.326 189.325 133.089 189.321 133.853 189.385L138.429 189.672C144.522 190.169 150.604 191.017 156.556 192.465C162.513 193.872 168.319 195.855 173.939 198.212C179.554 200.581 184.988 203.311 190.377 206.082L198.437 210.277C201.119 211.693 203.801 213.035 206.483 214.548C207.16 214.905 207.802 215.322 208.457 215.718C209.107 216.122 209.771 216.504 210.407 216.929C211.671 217.786 212.962 218.607 214.18 219.521L216.031 220.865L217.836 222.269C219.051 223.189 220.199 224.193 221.377 225.158C226.018 229.104 230.395 233.342 234.582 237.746C242.95 246.572 250.529 256.09 257.719 265.858C261.324 270.737 264.809 275.705 268.29 280.652C269.163 281.881 270.039 283.118 270.933 284.289C271.838 285.45 272.81 286.59 273.828 287.649C274.843 288.715 275.916 289.725 277.057 290.601C277.631 291.03 278.214 291.445 278.82 291.786C279.123 291.957 279.424 292.114 279.726 292.251C279.875 292.308 280.029 292.378 280.172 292.424C280.242 292.449 280.316 292.473 280.377 292.489C280.404 292.495 280.446 292.51 280.471 292.513C280.487 292.515 280.542 292.529 280.498 292.52L280.012 292.561L280.016 292.559C280.286 292.482 280.469 292.446 280.687 292.403C280.894 292.365 281.104 292.336 281.314 292.316C281.732 292.273 282.146 292.265 282.564 292.285C283.4 292.325 284.234 292.497 285.027 292.79C285.827 293.076 286.55 293.533 287.218 294.039C287.85 294.583 288.431 295.184 288.894 295.855C289.385 296.546 289.723 297.148 290.106 297.773L291.229 299.645C291.6 300.256 291.979 300.892 292.35 301.42C292.54 301.692 292.7 301.88 292.883 302.034C293.063 302.189 293.342 302.361 293.66 302.563C294.286 302.958 294.921 303.393 295.524 303.833L296.433 304.521L297.297 305.219C298.445 306.15 299.555 307.104 300.662 308.063C302.863 309.994 305.05 311.936 307.2 313.915C311.499 317.878 315.642 322.011 319.583 326.325C321.55 328.486 323.465 330.701 325.304 332.975C326.225 334.109 327.11 335.279 327.998 336.438C328.863 337.617 329.715 338.813 330.531 340.024C330.657 340.214 330.607 340.471 330.419 340.602C330.252 340.713 330.038 340.691 329.901 340.555L329.898 340.547L329.87 340.56Z" fill="#83A642" fill-opacity="0.48"></path><path d="M43.7091 212.265L50.4697 216.417L57.2097 220.599L70.6898 228.962L97.5714 245.812L104.293 250.026C106.542 251.433 108.79 252.846 111.013 254.28L124.354 262.878C133.24 268.578 142.147 274.22 151.386 279.172C153.706 280.385 156.003 281.654 158.366 282.77L160.125 283.636C160.711 283.923 161.291 284.228 161.892 284.484L165.458 286.097C166.642 286.656 167.857 287.113 169.059 287.616L170.867 288.357C171.468 288.603 172.069 288.859 172.689 289.062L176.371 290.359L177.291 290.685C177.6 290.785 177.916 290.867 178.227 290.961L180.099 291.502L181.972 292.048C182.286 292.136 182.593 292.241 182.912 292.312L183.862 292.522L187.663 293.374C190.191 293.883 192.769 294.184 195.37 294.421C197.97 294.634 200.594 294.742 203.218 294.818C205.846 294.862 208.475 294.866 211.112 294.824C221.652 294.617 232.206 293.927 242.776 293.367C248.065 293.084 253.358 292.82 258.679 292.765C261.34 292.731 264.005 292.729 266.676 292.865C269.351 293.009 272.037 293.23 274.737 293.815C275.331 293.943 275.711 294.53 275.579 295.126C275.452 295.721 274.864 296.101 274.268 295.969C274.268 295.969 274.258 295.969 274.256 295.965L274.229 295.958C271.766 295.38 269.161 295.126 266.562 294.976C263.956 294.824 261.325 294.806 258.695 294.821C253.434 294.881 248.16 295.152 242.886 295.437C232.335 296.047 221.779 296.869 211.164 297.198C205.857 297.367 200.536 297.445 195.182 297.189C192.509 297.049 189.812 296.837 187.136 296.407L183.157 295.677L182.162 295.492C181.828 295.433 181.509 295.333 181.181 295.257L179.225 294.764L177.267 294.268C176.94 294.181 176.613 294.105 176.29 294.016L175.327 293.714L171.481 292.504C170.833 292.314 170.21 292.073 169.581 291.84L167.694 291.14C166.438 290.667 165.163 290.228 163.948 289.674L160.252 288.087C159.02 287.56 157.829 286.955 156.617 286.38C154.19 285.25 151.844 283.98 149.475 282.745C148.286 282.135 147.145 281.448 145.975 280.805C144.817 280.146 143.643 279.514 142.502 278.828C140.216 277.467 137.907 276.131 135.661 274.722L132.27 272.629L128.91 270.497C126.663 269.084 124.452 267.625 122.226 266.183L108.965 257.475L95.6636 248.858L69.0417 231.562L55.7709 222.853L49.1346 218.497L42.5189 214.112C42.0114 213.774 41.8731 213.089 42.2075 212.583C42.5357 212.085 43.1991 211.942 43.7035 212.253L43.7171 212.261L43.7091 212.265Z" fill="#83A642" fill-opacity="0.48"></path><path d="M192.549 296.685C186.039 296.172 179.479 296.222 173.005 297.021C166.533 297.814 160.166 299.454 154.154 301.96L153.021 302.423L151.917 302.946L149.707 303.992L147.557 305.156L146.484 305.737L145.441 306.372C144.75 306.801 144.047 307.215 143.36 307.651L141.338 309.028C140.654 309.472 140.014 309.979 139.36 310.468C138.716 310.966 138.039 311.427 137.422 311.962C134.864 313.997 132.47 316.228 130.152 318.536C127.842 320.854 125.683 323.327 123.569 325.837C119.346 330.864 115.495 336.21 111.322 341.355C109.225 343.92 107.038 346.44 104.522 348.679L103.576 349.513L102.623 350.301L100.73 351.881C99.4737 352.937 98.223 354.004 97.0207 355.103C96.4205 355.654 95.8339 356.214 95.2902 356.792C94.7486 357.365 94.2256 357.978 93.9121 358.581C93.7576 358.876 93.6942 359.159 93.7337 359.296C93.7533 359.37 93.7809 359.44 93.8477 359.521C93.9243 359.602 94.0204 359.693 94.1562 359.776C94.6911 360.121 95.48 360.353 96.2383 360.551C97.7848 360.937 99.4137 361.206 101.032 361.496C102.653 361.779 104.283 362.063 105.907 362.364C107.535 362.664 109.16 362.979 110.781 363.326L115.613 364.394C118.818 365.114 122.047 365.697 125.279 366.224C138.227 368.29 151.393 368.571 164.411 367.321L169.287 366.778C170.102 366.7 170.911 366.578 171.72 366.465L174.15 366.124C174.961 366.005 175.769 365.912 176.579 365.769L178.999 365.355C180.608 365.07 182.23 364.832 183.829 364.493L188.648 363.544L193.438 362.461C194.233 362.277 195.04 362.107 195.829 361.91L198.19 361.305C198.974 361.096 199.766 360.918 200.543 360.683L202.871 359.976C205.98 359.043 209.034 357.941 212.046 356.726C212.812 356.448 213.541 356.09 214.286 355.778C215.028 355.448 215.779 355.138 216.515 354.796L218.706 353.729L219.803 353.2L220.879 352.627L223.033 351.481L225.143 350.252L226.199 349.635L227.234 348.984L229.301 347.673C232.026 345.872 234.654 343.926 237.232 341.901C239.786 339.849 242.276 337.709 244.743 335.522C245.969 334.432 247.217 333.317 248.479 332.253C249.109 331.713 249.744 331.184 250.385 330.657C251.02 330.129 251.653 329.596 252.298 329.078C254.861 326.982 257.447 324.914 260.066 322.885C261.373 321.865 262.697 320.86 264.036 319.878C265.373 318.892 266.726 317.918 268.107 316.975C270.881 315.102 273.707 313.298 276.978 311.929C278.623 311.281 280.393 310.766 282.295 310.65C284.185 310.507 286.203 310.84 287.971 311.629C289.749 312.408 291.252 313.549 292.542 314.745C293.842 315.941 294.979 317.194 296.098 318.387C296.657 318.983 297.207 319.57 297.765 320.133C298.327 320.704 298.868 321.187 299.532 321.852C299.689 322.012 299.851 322.161 300.006 322.327L300.461 322.836C300.61 323.01 300.767 323.17 300.91 323.352L301.338 323.907C301.632 324.267 301.876 324.689 302.142 325.081C302.376 325.503 302.619 325.92 302.808 326.358C303.007 326.786 303.17 327.221 303.31 327.575C303.346 327.674 303.382 327.75 303.409 327.82L303.502 328.04C303.528 328.086 303.554 328.132 303.581 328.179L303.614 328.251C303.614 328.251 303.639 328.273 303.651 328.287C303.672 328.312 303.686 328.344 303.703 328.37C303.731 328.386 303.754 328.405 303.775 328.429C303.784 328.439 303.796 328.453 303.805 328.463L303.866 328.499C303.906 328.524 303.947 328.548 303.984 328.575C304.188 328.68 304.445 328.794 304.78 328.886L305.015 328.962L305.282 329.023L305.815 329.145L306.476 329.3C306.703 329.36 306.917 329.392 307.162 329.478L307.868 329.709C308.112 329.805 308.367 329.925 308.613 330.035C308.86 330.149 309.139 330.34 309.395 330.503C309.526 330.598 309.663 330.724 309.792 330.845C309.924 330.963 310.051 331.079 310.165 331.24C310.279 331.392 310.399 331.545 310.493 331.706C310.579 331.87 310.663 332.04 310.743 332.212C310.868 332.534 310.96 332.866 311.002 333.114C311.097 333.634 311.144 333.933 311.195 334.075C311.241 334.195 311.291 334.25 311.402 334.373C311.485 334.437 311.561 334.484 311.674 334.573C311.911 334.735 312.147 334.898 312.369 335.072C313.232 335.8 313.75 336.557 314.264 337.257C314.769 337.966 315.218 338.638 315.686 339.311C317.522 341.986 319.506 344.528 321.643 346.98C323.765 349.444 326.013 351.82 328.323 354.133L331.817 357.653C332.408 358.234 332.969 358.855 333.54 359.455C334.105 360.064 334.692 360.657 335.24 361.283C337.481 363.74 339.607 366.304 341.662 368.916C343.689 371.551 345.621 374.263 347.434 377.046C349.227 379.847 350.915 382.707 352.478 385.64C354.05 388.563 355.438 391.582 356.754 394.625C357.421 396.144 358.03 397.686 358.635 399.229C359.203 400.785 359.812 402.327 360.339 403.892C362.507 410.139 364.426 416.448 366.801 422.575C369.136 428.711 371.912 434.666 375.158 440.344C375.566 441.055 375.938 441.782 376.368 442.477L377.651 444.567C378.507 445.96 379.339 447.364 380.278 448.704L383.006 452.774L385.884 456.74C386.369 457.395 386.821 458.076 387.326 458.722L388.83 460.66L391.836 464.533L394.953 468.32C395.992 469.584 396.996 470.874 398.092 472.092C402.346 477.039 406.619 482.09 410.757 487.237C414.901 492.376 419.055 497.506 423.374 502.486C427.7 507.463 432.001 512.457 436.378 517.386C438.557 519.857 440.747 522.318 442.965 524.757C445.175 527.199 447.397 529.626 449.668 532.011C451.931 534.4 454.226 536.754 456.604 539.002C457.788 540.125 459.008 541.213 460.258 542.218C460.884 542.716 461.523 543.192 462.168 543.584C462.49 543.784 462.81 543.952 463.101 544.065C463.246 544.124 463.385 544.162 463.471 544.17C463.577 544.199 463.581 544.153 463.516 544.183C464.089 543.98 464.72 544.281 464.927 544.851C465.129 545.424 464.829 546.055 464.258 546.262C464.039 546.324 463.787 546.378 463.61 546.363C463.517 546.363 463.41 546.363 463.322 546.351L463.078 546.309C462.762 546.246 462.507 546.146 462.274 546.045C461.807 545.834 461.409 545.595 461.041 545.348C460.297 544.847 459.634 544.308 458.988 543.757C457.699 542.658 456.507 541.494 455.32 540.323C452.969 537.975 450.711 535.555 448.469 533.128C444 528.261 439.627 523.321 435.237 518.397L422.09 503.618C417.702 498.699 413.149 493.925 408.551 489.191C406.258 486.821 403.971 484.444 401.713 482.043L400.025 480.234L398.369 478.376C397.268 477.136 396.182 475.879 395.093 474.624C393.994 473.378 392.983 472.062 391.939 470.766L388.843 466.857L385.915 462.817L384.455 460.795C383.967 460.122 383.523 459.418 383.06 458.724L380.323 454.551L377.757 450.264C376.886 448.849 376.115 447.368 375.324 445.906L374.143 443.711C373.746 442.98 373.407 442.219 373.033 441.477C371.545 438.505 370.199 435.462 368.905 432.404C368.294 430.858 367.657 429.33 367.072 427.777C366.505 426.221 365.895 424.68 365.362 423.112C363.175 416.865 361.27 410.544 359.061 404.355C356.887 398.158 354.283 392.124 351.098 386.398C349.506 383.537 347.811 380.738 345.962 378.036C344.103 375.343 342.137 372.734 340.077 370.197C337.986 367.685 335.811 365.246 333.534 362.898C332.974 362.302 332.382 361.74 331.807 361.161C331.223 360.585 330.66 360 330.056 359.444L326.469 356.06C321.633 351.525 316.979 346.671 313.029 341.217C312.539 340.549 312.055 339.864 311.582 339.243C311.11 338.625 310.643 338.039 310.226 337.717C310.119 337.645 310.015 337.577 309.91 337.499C309.69 337.348 309.418 337.173 309.181 336.977C308.684 336.546 308.218 335.94 307.974 335.28C307.746 334.641 307.688 334.118 307.617 333.83C307.586 333.669 307.554 333.611 307.533 333.543C307.517 333.531 307.51 333.515 307.508 333.491C307.501 333.475 307.481 333.475 307.474 333.459C307.476 333.443 307.445 333.428 307.422 333.41C307.395 333.393 307.386 333.373 307.349 333.347C307.245 333.302 307.19 333.245 307.063 333.192L306.673 333.033L306.199 332.893C306.052 332.84 305.856 332.814 305.685 332.772L305.14 332.655L304.465 332.512L304.129 332.439L303.775 332.336C303.313 332.21 302.799 332.026 302.274 331.754L301.862 331.507L301.661 331.377L301.46 331.207C301.329 331.093 301.196 330.975 301.072 330.853C300.957 330.721 300.85 330.586 300.744 330.45L300.588 330.241L300.471 330.042L300.248 329.644C300.145 329.424 300.023 329.16 299.947 328.976C299.777 328.569 299.641 328.233 299.484 327.917C299.341 327.599 299.166 327.306 299.001 327.003C298.796 326.718 298.637 326.418 298.402 326.143L298.074 325.72C297.96 325.579 297.829 325.445 297.709 325.311L297.338 324.9C297.211 324.764 297.069 324.635 296.934 324.503C296.436 324.005 295.745 323.387 295.144 322.786C294.534 322.184 293.953 321.573 293.382 320.972C292.238 319.767 291.145 318.586 290.005 317.558C288.87 316.529 287.699 315.672 286.455 315.111C285.831 314.837 285.194 314.627 284.534 314.495C283.875 314.364 283.191 314.326 282.491 314.34C281.095 314.371 279.634 314.704 278.189 315.176C276.75 315.679 275.289 316.285 273.853 317.015C272.404 317.708 270.98 318.486 269.559 319.283C263.89 322.496 258.444 326.232 253.305 330.313C250.727 332.357 248.264 334.503 245.816 336.711C243.368 338.919 240.923 341.155 238.382 343.289C235.855 345.441 233.237 347.494 230.551 349.462L228.502 350.896L227.477 351.61L226.425 352.289L224.321 353.646L222.166 354.924L221.085 355.563L219.98 356.159L217.767 357.343C217.025 357.726 216.263 358.075 215.51 358.444C214.75 358.798 214.014 359.193 213.237 359.51L210.923 360.488L209.768 360.976L208.59 361.416C207.018 361.991 205.46 362.617 203.856 363.081L201.461 363.833C200.664 364.086 199.846 364.272 199.04 364.496L196.615 365.141C195.807 365.351 194.995 365.509 194.186 365.695L189.327 366.765L184.436 367.705C182.811 368.041 181.162 368.272 179.522 368.533L177.059 368.918C176.24 369.05 175.412 369.133 174.588 369.244L172.115 369.556C171.291 369.656 170.468 369.771 169.637 369.836L164.673 370.284C158.04 370.752 151.377 370.851 144.739 370.514C138.1 370.173 131.487 369.397 124.966 368.189C121.709 367.566 118.463 366.895 115.243 366.123L110.438 364.974C108.841 364.606 107.236 364.262 105.627 363.94C104.015 363.623 102.399 363.328 100.777 363.03C99.1509 362.725 97.5264 362.443 95.8784 362.017C95.054 361.782 94.2211 361.571 93.3642 361.025C93.149 360.886 92.9331 360.704 92.7402 360.478C92.5477 360.241 92.3848 359.933 92.3232 359.601C92.2007 358.918 92.4296 358.374 92.6393 357.946C93.0964 357.087 93.6754 356.448 94.26 355.821C94.8483 355.202 95.4551 354.623 96.0695 354.061C97.3022 352.933 98.5609 351.862 99.8292 350.801L101.734 349.215L102.687 348.427L103.596 347.63C106.015 345.484 108.165 343.011 110.243 340.479C114.379 335.39 118.251 330.025 122.515 324.96C126.763 319.882 131.357 315.047 136.518 310.834C137.144 310.286 137.829 309.812 138.484 309.294C139.146 308.791 139.798 308.269 140.49 307.811L142.545 306.39C143.245 305.938 143.958 305.504 144.664 305.065L145.725 304.406L146.82 303.8L149.015 302.596L151.269 301.51L152.394 300.967L153.549 300.489C159.692 297.898 166.181 296.114 172.789 295.205C179.395 294.291 186.087 294.15 192.73 294.508C193.339 294.542 193.804 295.06 193.77 295.669C193.737 296.278 193.218 296.743 192.609 296.71C192.605 296.712 192.594 296.708 192.59 296.709L192.582 296.713L192.549 296.685Z" fill="#83A642" fill-opacity="0.48"></path><path d="M150.341 369.177C144.806 370.03 141.268 370.176 141.158 370.178C140.549 370.198 140.04 369.72 140.016 369.113C139.996 368.504 140.474 367.995 141.081 367.971C141.431 367.959 176.229 366.525 199.403 345.327C208.322 337.17 220.283 332.231 230.837 327.877C235.7 325.871 240.289 323.977 243.776 322.046C259.668 313.242 276.4 310.937 283.772 311.536C284.379 311.585 284.831 312.119 284.782 312.726C284.733 313.332 284.199 313.785 283.592 313.736C276.762 313.182 260.202 315.47 244.844 323.978C241.249 325.969 236.598 327.886 231.679 329.919C221.292 334.204 209.523 339.064 200.89 346.957C184.522 361.933 162.556 367.287 150.339 369.173L150.341 369.177Z" fill="#83A642" fill-opacity="0.48"></path><path d="M441.007 549.459C437.468 546.428 433.697 543.567 429.855 540.871C426.004 538.174 422.038 535.638 417.928 533.368L417.159 532.937C417.032 532.864 416.91 532.8 416.727 532.69C416.56 532.592 416.412 532.481 416.263 532.371C415.687 531.918 415.27 531.416 414.883 530.992C414.498 530.563 414.145 530.211 413.79 529.992C413.627 529.892 413.413 529.787 413.175 529.703C412.944 529.616 412.692 529.544 412.435 529.473C411.395 529.202 410.214 529.079 408.967 528.783C408.655 528.709 408.334 528.615 408.015 528.505C407.669 528.379 407.42 528.271 407.143 528.156L405.498 527.475C403.309 526.565 401.121 525.636 398.948 524.655C396.777 523.669 394.599 522.677 392.494 521.363C391.447 520.711 390.417 519.939 389.519 519.052C388.612 518.169 387.851 517.243 387.071 516.37C386.685 515.927 386.29 515.497 385.9 515.065L384.694 513.82L382.18 511.32C378.807 507.977 375.517 504.519 372.395 500.919C371.623 500.013 370.815 499.132 370.074 498.197L367.809 495.425C367.064 494.492 366.353 493.538 365.622 492.593L364.529 491.174L363.479 489.72L361.388 486.809C360.711 485.825 360.057 484.825 359.39 483.83C358.025 481.866 356.84 479.785 355.588 477.739C354.946 476.724 354.41 475.654 353.838 474.601L352.136 471.431C351.101 469.266 350.054 467.105 349.11 464.897L347.789 461.54C347.364 460.415 346.89 459.311 346.552 458.155L345.456 454.718L344.915 452.998L344.405 451.323C343.074 446.877 341.39 442.541 339.342 438.383C337.302 434.223 334.857 430.269 332.098 426.54C329.348 422.801 326.224 419.333 322.891 416.075C319.555 412.812 315.946 409.818 312.224 406.959C304.753 401.268 296.746 396.235 288.744 391.18C284.748 388.653 280.721 386.131 276.769 383.5C272.811 380.877 268.933 378.144 265.032 375.476C263.08 374.144 261.131 372.817 259.134 371.609C258.136 371.011 257.122 370.441 256.093 369.995C255.58 369.771 255.06 369.584 254.552 369.465C254.044 369.346 253.55 369.308 253.148 369.407C252.745 369.502 252.425 369.724 252.155 370.097C251.884 370.466 251.679 370.946 251.524 371.461C251.223 372.501 251.09 373.648 251.005 374.796C250.862 377.106 250.905 379.46 251.019 381.811C251.202 386.518 251.594 391.216 252.247 395.88C252.895 400.542 253.715 405.187 254.859 409.755L255.268 411.472L255.738 413.176C256.055 414.308 256.36 415.446 256.691 416.577L257.767 419.94C257.952 420.496 258.109 421.065 258.317 421.616L258.922 423.276C259.333 424.38 259.718 425.49 260.148 426.584L261.502 429.843C261.733 430.383 261.944 430.932 262.189 431.47L262.933 433.071L264.432 436.266C268.638 444.681 273.831 452.622 279.826 459.85C282.856 463.439 286.189 466.771 289.694 469.896C293.205 473.023 296.908 475.935 300.755 478.643C308.442 484.078 316.706 488.68 325.249 492.637C329.528 494.61 333.869 496.436 338.286 498.067C340.491 498.897 342.716 499.664 344.953 500.385C347.185 501.105 349.453 501.798 351.691 502.373L351.713 502.378C352.305 502.531 352.657 503.132 352.503 503.723C352.35 504.315 351.75 504.667 351.158 504.514C351.158 504.514 351.146 504.51 351.142 504.511C348.802 503.872 346.552 503.146 344.29 502.382C342.032 501.616 339.799 500.8 337.577 499.944C333.13 498.249 328.759 496.358 324.456 494.324C315.857 490.247 307.572 485.494 299.805 479.98C295.928 477.217 292.187 474.255 288.642 471.066C285.099 467.88 281.73 464.483 278.667 460.821C272.597 453.453 267.433 445.406 263.141 436.9L261.625 433.669L260.864 432.052C260.613 431.511 260.398 430.955 260.168 430.409L258.792 427.112C258.352 426.008 257.964 424.879 257.548 423.764L256.935 422.088C256.724 421.529 256.565 420.956 256.376 420.392L255.283 416.992C254.947 415.85 254.642 414.702 254.318 413.553L253.84 411.834L253.428 410.099C252.266 405.481 251.433 400.788 250.773 396.079C250.107 391.367 249.706 386.62 249.513 381.868C249.398 379.494 249.344 377.106 249.49 374.687C249.576 373.48 249.708 372.256 250.064 371.02C250.249 370.404 250.496 369.773 250.928 369.183C251.34 368.593 252.04 368.078 252.793 367.908C253.544 367.725 254.262 367.805 254.904 367.949C255.551 368.096 256.147 368.311 256.722 368.554C257.869 369.043 258.926 369.632 259.963 370.241C262.03 371.465 264.004 372.791 265.971 374.115C269.895 376.778 273.808 379.421 277.778 381.985C279.763 383.263 281.756 384.526 283.769 385.76L289.841 389.435C297.942 394.327 306.095 399.224 313.808 404.861C321.503 410.491 328.767 416.94 334.648 424.625C337.574 428.462 340.186 432.556 342.376 436.872C344.552 441.188 346.335 445.697 347.757 450.306L348.293 452.027L348.832 453.689L349.901 457.017C350.222 458.138 350.681 459.209 351.092 460.303L352.333 463.57C352.526 464.122 352.775 464.649 353.009 465.183L353.713 466.782C354.18 467.85 354.633 468.929 355.107 469.993L356.664 473.133C357.188 474.178 357.677 475.241 358.268 476.251C362.698 484.488 368.021 492.291 374.188 499.385C377.244 502.958 380.462 506.386 383.791 509.73L386.297 512.253L387.554 513.567C387.952 514.015 388.359 514.463 388.745 514.916C389.533 515.815 390.275 516.721 391.064 517.498C391.845 518.278 392.716 518.939 393.67 519.547C395.578 520.752 397.707 521.763 399.844 522.731C401.986 523.696 404.157 524.62 406.336 525.529L407.971 526.21C408.554 526.459 408.946 526.613 409.493 526.743C410.548 527.002 411.733 527.123 412.987 527.446C413.303 527.528 413.618 527.62 413.94 527.747C414.256 527.863 414.584 528.013 414.923 528.22C415.577 528.631 416.049 529.146 416.455 529.59C416.865 530.042 417.218 530.448 417.577 530.728C417.666 530.794 417.753 530.866 417.843 530.912C417.912 530.957 418.05 531.034 418.182 531.109L418.963 531.544C423.133 533.869 427.178 536.407 431.092 539.124C435.013 541.846 438.811 544.69 442.483 547.796C442.947 548.188 443.004 548.887 442.612 549.351C442.219 549.816 441.521 549.873 441.056 549.48L441.031 549.458L441.007 549.459Z" fill="#83A642" fill-opacity="0.48"></path><path d="M396.34 523.785C391.941 521.124 387.389 518.709 382.736 516.507C378.076 514.312 373.316 512.339 368.492 510.522C363.679 508.676 358.772 507.078 353.849 505.551C351.372 504.828 348.908 504.071 346.41 503.416C345.164 503.08 343.923 502.733 342.674 502.413L338.917 501.478L337.037 501.013L335.148 500.582L331.37 499.729C328.85 499.173 326.318 498.666 323.79 498.127L316.176 496.692C313.645 496.262 311.112 495.858 308.559 495.555C298.36 494.265 288.039 494.054 277.701 494.171C272.525 494.236 267.337 494.276 262.18 494.454C259.595 494.525 257.023 494.655 254.445 494.782C253.155 494.842 251.874 494.955 250.589 495.036L248.662 495.173C248.019 495.223 247.379 495.292 246.74 495.35C236.478 496.23 226.304 497.999 216.401 500.833L212.692 501.919C211.465 502.304 210.243 502.721 209.017 503.12L207.182 503.725L205.362 504.385L201.725 505.71L198.127 507.139C196.929 507.618 195.723 508.08 194.543 508.609C192.176 509.641 189.79 510.642 187.458 511.76C182.748 513.895 178.106 516.178 173.687 518.805C171.488 520.123 169.335 521.532 167.418 523.167C166.465 523.984 165.577 524.869 164.887 525.846C164.187 526.809 163.772 527.907 163.959 528.885C164.138 529.868 164.942 530.759 165.919 531.449C166.89 532.156 168.031 532.706 169.185 533.201C171.52 534.174 173.997 534.897 176.482 535.576C178.972 536.254 181.493 536.863 184.009 537.514C186.527 538.169 189.049 538.841 191.538 539.758C192.159 539.995 192.777 540.238 193.385 540.52C193.691 540.655 193.996 540.82 194.291 540.96L195.159 541.394L198.623 543.132C199.203 543.417 199.776 543.72 200.361 543.993L202.12 544.806L205.643 546.429C206.824 546.961 208.022 547.445 209.208 547.955C210.402 548.451 211.579 548.985 212.789 549.444L216.405 550.849C217.009 551.079 217.608 551.321 218.217 551.544L220.046 552.193C229.779 555.685 239.743 558.573 249.877 560.667C252.402 561.221 254.956 561.659 257.497 562.123C258.772 562.344 260.05 562.528 261.327 562.733L263.245 563.029L265.167 563.28C266.452 563.437 267.727 563.637 269.017 563.753L272.875 564.151L276.738 564.443C278.026 564.545 279.314 564.574 280.605 564.641C285.747 564.89 290.893 564.542 295.963 563.651C301.032 562.77 306.013 561.405 310.882 559.727C320.64 556.371 329.939 551.798 339.171 547.1C343.786 544.737 348.378 542.316 353.044 540.003C357.688 537.651 362.419 535.433 367.296 533.459C369.735 532.477 372.222 531.589 374.754 530.807C377.288 530.019 379.882 529.373 382.531 528.916C387.816 527.945 393.386 527.848 398.868 528.892C399.457 528.998 399.945 529.326 400.26 529.783L400.317 529.864C401.236 531.193 402.253 532.555 403.276 533.836C404.3 535.117 405.385 536.374 406.467 537.384L406.866 537.739L407.238 538.028C407.281 538.067 407.412 538.152 407.501 538.217L407.796 538.421C407.991 538.559 408.174 538.703 408.366 538.842C409.113 539.415 409.791 540.014 410.391 540.509C410.998 541.011 411.496 541.359 412.021 541.567C412.282 541.679 412.566 541.747 412.871 541.805C413.022 541.837 413.189 541.841 413.347 541.866L414.077 541.95C416.049 542.163 418.002 542.9 419.608 543.949C421.23 544.99 422.534 546.258 423.768 547.49C425 548.727 426.155 549.967 427.363 551.132C428.564 552.302 429.811 553.406 431.122 554.437L431.137 554.449C431.614 554.826 431.699 555.521 431.322 555.998C430.959 556.453 430.311 556.545 429.837 556.226C428.381 555.238 426.976 554.164 425.64 553.037C424.301 551.913 423.028 550.733 421.762 549.633C420.493 548.534 419.232 547.495 417.904 546.784C416.58 546.061 415.211 545.67 413.766 545.617L413.214 545.591C412.946 545.579 412.687 545.578 412.412 545.55C411.87 545.495 411.309 545.396 410.761 545.222C409.655 544.885 408.701 544.277 407.949 543.746C407.186 543.205 406.543 542.711 405.896 542.291L405.411 541.981L405.169 541.836C405.079 541.78 405.029 541.755 404.897 541.67L404.219 541.226L403.62 540.775C402.103 539.553 400.86 538.281 399.644 536.973C398.431 535.659 397.302 534.349 396.165 532.94L397.612 533.908C396.455 533.565 395.286 533.247 394.092 533.023L393.193 532.857L392.288 532.732C391.685 532.638 391.074 532.591 390.464 532.534C388.02 532.321 385.53 532.408 383.042 532.644C380.557 532.908 378.07 533.358 375.603 533.954C373.138 534.555 370.7 535.308 368.273 536.139C365.851 536.967 363.453 537.901 361.081 538.901C358.707 539.897 356.349 540.948 354.001 542.03C349.32 544.229 344.678 546.532 340.018 548.828C330.719 553.435 321.295 557.949 311.375 561.249C306.422 562.894 301.35 564.228 296.181 565.073C291.018 565.91 285.756 566.272 280.535 565.997C279.236 565.925 277.93 565.889 276.63 565.782L272.736 565.475L268.853 565.065C267.559 564.941 266.272 564.737 264.98 564.573L263.045 564.314L261.119 564.012C259.834 563.801 258.546 563.616 257.267 563.388C254.711 562.912 252.147 562.463 249.607 561.897C247.057 561.383 244.532 560.766 241.995 560.174C240.724 559.888 239.475 559.525 238.216 559.204C236.963 558.862 235.692 558.567 234.447 558.192C231.951 557.459 229.442 556.771 226.972 555.948L223.258 554.749L219.578 553.457L217.735 552.81C217.121 552.589 216.518 552.348 215.909 552.116L212.265 550.714C211.046 550.258 209.862 549.719 208.656 549.228C207.456 548.72 206.248 548.235 205.063 547.706L201.513 546.085L199.736 545.276C199.145 545.001 198.568 544.7 197.984 544.417L194.486 542.679L193.612 542.244C193.324 542.105 193.058 541.961 192.767 541.838C192.202 541.575 191.608 541.345 191.015 541.125C188.625 540.255 186.125 539.596 183.623 538.954C181.116 538.313 178.589 537.712 176.071 537.037C173.556 536.357 171.032 535.637 168.574 534.619C167.349 534.098 166.13 533.526 164.996 532.71C164.432 532.3 163.88 531.846 163.413 531.26C162.946 530.684 162.56 529.978 162.412 529.19C162.257 528.406 162.352 527.594 162.587 526.886C162.695 526.52 162.862 526.199 163.015 525.869C163.2 525.565 163.365 525.24 163.578 524.966C164.387 523.816 165.354 522.861 166.363 521.984C168.389 520.239 170.581 518.778 172.819 517.417C175.059 516.06 177.352 514.806 179.67 513.607C180.827 513.006 181.99 512.422 183.158 511.845L186.675 510.158C191.361 507.898 196.143 505.822 200.96 503.833L204.611 502.423L206.436 501.722L208.281 501.074C209.513 500.647 210.742 500.203 211.98 499.788L215.717 498.616C225.709 495.555 236.04 493.548 246.433 492.481C256.829 491.378 267.274 491.187 277.649 491.043C288.046 490.937 298.528 491.161 308.927 492.484C311.528 492.794 314.12 493.21 316.701 493.655L324.38 495.114L328.205 495.921C329.48 496.194 330.758 496.442 332.022 496.755L335.829 497.648L337.731 498.097L339.626 498.584L343.412 499.56C344.672 499.894 345.926 500.26 347.178 500.608C349.693 501.288 352.184 502.072 354.681 502.829C355.93 503.202 357.163 503.637 358.403 504.033C359.643 504.44 360.883 504.837 362.11 505.289L365.798 506.597L369.455 507.997C379.165 511.826 388.664 516.302 397.488 521.953C398.002 522.283 398.152 522.963 397.821 523.476C397.497 523.982 396.833 524.135 396.325 523.826L396.34 523.785Z" fill="#83A642" fill-opacity="0.48"></path><path d="M402.649 463.888C397.209 458.013 393.145 451.172 388.876 444.495C384.694 437.758 380.628 430.933 376.986 423.857L375.625 421.201C375.171 420.317 374.755 419.411 374.318 418.514C373.444 416.716 372.619 414.929 371.782 413.138C370.098 409.566 368.41 405.996 366.686 402.442C363.244 395.337 359.704 388.272 356.032 381.289C355.573 380.417 355.111 379.537 354.643 378.688L353.214 376.083C352.271 374.336 351.332 372.588 350.422 370.826C348.59 367.303 346.823 363.75 345.118 360.163C341.725 352.987 338.599 345.671 335.9 338.187C334.536 334.456 333.404 330.593 332.119 326.948C330.781 323.283 329.147 319.755 327.162 316.415C326.148 314.756 325.089 313.126 323.963 311.499L322.293 309.034C321.757 308.184 321.18 307.362 320.68 306.475C319.612 304.752 318.754 302.884 317.963 301.003L317.454 299.561C317.292 299.077 317.092 298.605 316.97 298.112L316.562 296.648C316.426 296.156 316.279 295.67 316.19 295.176C315.276 291.251 314.718 287.19 314.901 283.101C315.05 279.012 315.933 274.977 317.204 271.156C318.477 267.329 320.016 263.646 321.562 259.999C323.12 256.356 324.635 252.728 326.059 249.059C331.952 234.493 335.224 219.092 336.875 203.534L337.159 200.614C337.256 199.64 337.309 198.666 337.396 197.692L337.515 196.23L337.605 194.768C337.663 193.792 337.74 192.817 337.778 191.841C337.983 187.936 338.02 184.027 338.006 180.121C337.932 172.307 337.343 164.504 336.169 156.803C336.009 155.841 335.887 154.876 335.701 153.921L335.17 151.049C334.762 149.146 334.373 147.24 333.884 145.36C332.932 141.594 331.851 137.863 330.498 134.229C329.152 130.598 327.533 127.093 325.762 123.585C323.999 120.093 322.122 116.65 320.124 113.272C316.135 106.518 311.785 99.9612 307.068 93.6722C302.353 87.3872 297.319 81.3182 291.838 75.7002C289.094 72.893 286.248 70.1915 283.236 67.6985C282.49 67.067 281.709 66.4859 280.941 65.8795C280.152 65.3119 279.381 64.7114 278.565 64.1904C276.964 63.1001 275.295 62.1045 273.559 61.3538C272.692 60.9735 271.804 60.6657 270.918 60.4645C270.479 60.3473 269.991 60.3017 269.531 60.2135C269.07 60.1844 268.601 60.0959 268.152 60.1146C267.927 60.122 267.695 60.0936 267.475 60.1228L266.818 60.1848L266.198 60.3269C265.995 60.3823 265.814 60.4758 265.617 60.5432C264.873 60.8791 264.274 61.4542 263.816 62.1971C263.363 62.9382 263.012 63.7968 262.767 64.7136C262.5 65.6161 262.325 66.5685 262.153 67.519C261.84 69.4309 261.645 71.3896 261.476 73.351C261.138 77.2738 260.898 81.229 260.605 85.1749C260.314 89.1247 259.984 93.0734 259.61 97.0129C259.234 100.958 258.791 104.896 258.295 108.824C257.805 112.754 257.23 116.68 256.579 120.588C255.314 128.411 253.76 136.178 252.205 143.931C250.64 151.684 249.13 159.441 247.991 167.243C246.871 175.043 246.151 182.909 246.265 190.767C246.294 194.695 246.578 198.615 247.049 202.508C247.516 206.403 248.196 210.266 249.087 214.08C249.991 217.889 251.037 221.669 252.293 225.358C253.581 229.041 255.057 232.647 256.713 236.169C260.088 243.183 264.169 249.841 268.854 256.062C273.54 262.283 278.788 268.092 284.418 273.538C287.218 276.276 290.108 278.937 293.041 281.574C295.964 284.23 298.959 286.804 301.819 289.723C302.532 290.452 303.235 291.221 303.912 292.049C304.552 292.871 305.151 293.702 305.755 294.531L307.432 297.06L309.009 299.627C311.043 303.075 312.931 306.582 314.76 310.111C318.377 317.193 321.752 324.364 324.892 331.658C325.133 332.217 324.875 332.867 324.315 333.108C323.776 333.339 323.153 333.108 322.891 332.587L322.884 332.571C319.389 325.51 315.811 318.458 312.02 311.564C310.127 308.118 308.18 304.702 306.117 301.383L304.541 298.924L302.902 296.537C302.328 295.782 301.758 295.016 301.171 294.286C300.582 293.596 299.941 292.907 299.261 292.24C297.906 290.894 296.453 289.589 294.988 288.279L290.555 284.349C287.586 281.719 284.625 279.052 281.755 276.279C276.028 270.717 270.592 264.786 265.808 258.334C263.419 255.108 261.186 251.757 259.17 248.276C257.148 244.803 255.304 241.222 253.702 237.533C252.105 233.843 250.737 230.061 249.568 226.225C248.425 222.372 247.51 218.486 246.744 214.566C245.26 206.711 244.544 198.729 244.571 190.766C244.622 182.802 245.352 174.863 246.564 167.021C247.765 159.174 249.378 151.419 250.943 143.666C252.514 135.915 254.093 128.17 255.357 120.377C255.989 116.479 256.545 112.576 257.015 108.655C257.491 104.736 257.915 100.812 258.273 96.8797C258.637 92.9498 258.922 89.0077 259.177 85.0647C259.437 81.1199 259.643 77.1756 259.944 73.2162C260.1 71.2366 260.277 69.2517 260.583 67.2607C260.752 66.2627 260.927 65.2668 261.212 64.2682C261.47 63.2728 261.854 62.2671 262.422 61.322C262.986 60.3788 263.85 59.5054 264.914 59.0207C265.182 58.9158 265.448 58.7873 265.719 58.7102L266.542 58.5127L267.36 58.4198C267.635 58.3842 267.897 58.4036 268.166 58.3955C268.706 58.3735 269.216 58.4573 269.745 58.4843C270.256 58.5681 270.762 58.6103 271.277 58.7357C272.323 58.9552 273.315 59.2878 274.261 59.69C276.162 60.485 277.922 61.5068 279.601 62.6191C280.459 63.1551 281.256 63.7624 282.083 64.3369C282.877 64.946 283.691 65.536 284.462 66.1702C287.589 68.6685 290.546 71.3574 293.381 74.1514C299.042 79.7588 304.291 85.757 309.222 92.0048C314.154 98.2526 318.73 104.782 322.947 111.556C325.055 114.941 327.044 118.406 328.925 121.931C329.405 122.807 329.861 123.695 330.311 124.59C330.768 125.478 331.226 126.37 331.645 127.294C332.531 129.116 333.308 130.978 334.074 132.846C335.559 136.598 336.795 140.441 337.828 144.331C338.361 146.273 338.796 148.236 339.239 150.195L339.829 153.151C340.034 154.136 340.179 155.13 340.356 156.118C341.014 160.079 341.535 164.06 341.849 168.055C342.172 172.05 342.395 176.048 342.446 180.053C342.555 188.06 342.14 196.067 341.197 204.007C340.712 207.979 340.126 211.935 339.393 215.866C338.645 219.795 337.784 223.702 336.775 227.572C335.771 231.444 334.609 235.278 333.296 239.061C332.978 240.011 332.631 240.95 332.279 241.888L331.755 243.294L331.204 244.684L330.095 247.461L328.936 250.214C327.384 253.878 325.73 257.493 324.109 261.093C322.499 264.697 320.872 268.274 319.619 271.946C318.357 275.607 317.481 279.367 317.298 283.193C317.104 287.015 317.611 290.872 318.468 294.643C318.553 295.12 318.69 295.581 318.818 296.047L319.199 297.442C319.31 297.911 319.496 298.355 319.645 298.811L320.115 300.169C320.848 301.935 321.633 303.677 322.642 305.325C323.106 306.165 323.665 306.971 324.178 307.793L325.835 310.24C326.961 311.867 328.052 313.555 329.098 315.273C331.156 318.739 332.851 322.418 334.221 326.185C334.87 328.073 335.515 329.997 336.118 331.848C336.428 332.779 336.713 333.717 337.046 334.643L338.03 337.421C340.72 344.812 343.84 352.052 347.227 359.164C348.927 362.719 350.695 366.242 352.522 369.734C353.431 371.481 354.368 373.216 355.312 374.943L356.745 377.537C357.237 378.417 357.696 379.289 358.162 380.167C361.87 387.174 365.439 394.249 368.912 401.369C370.652 404.925 372.358 408.502 374.035 412.092C374.87 413.888 375.703 415.691 376.554 417.451C376.983 418.332 377.389 419.228 377.838 420.099L379.176 422.728C382.776 429.721 386.753 436.534 390.879 443.258C394.961 450.012 399.585 456.403 403.235 463.475C403.327 463.651 403.259 463.863 403.087 463.952C402.945 464.023 402.774 463.991 402.669 463.879L402.649 463.888Z" fill="#83A642" fill-opacity="0.48"></path><path d="M388.267 443.333C387.967 442.193 387.642 441.064 387.365 439.923L386.996 438.197C386.87 437.623 386.744 437.049 386.662 436.464L386.385 434.725C386.291 434.146 386.247 433.558 386.176 432.978C386.024 431.813 385.963 430.644 385.878 429.477C385.592 424.808 385.78 420.186 385.25 415.693C384.959 413.454 384.453 411.256 383.725 409.123L383.099 407.555C382.988 407.295 382.903 407.028 382.776 406.776L382.399 406.017L381.647 404.493L381.248 403.666C381.183 403.526 381.116 403.392 381.055 403.25L380.895 402.823C380.035 400.551 379.671 398.176 379.491 395.841C379.309 393.503 379.293 391.175 379.255 388.872C379.233 387.724 379.205 386.574 379.127 385.443C379.056 384.307 378.941 383.189 378.713 382.102C378.266 379.926 377.437 377.806 376.477 375.75C374.524 371.641 372.036 367.772 369.412 364.008C368.752 363.07 368.08 362.136 367.405 361.209L366.379 359.827L365.33 358.48C364.649 357.57 363.882 356.725 363.153 355.847C362.394 354.998 361.651 354.132 360.859 353.308C359.306 351.63 357.665 350.024 356.034 348.387C354.39 346.767 352.754 345.109 351.185 343.366C349.6 341.641 348.136 339.776 346.8 337.823C345.448 335.877 344.363 333.749 343.39 331.593C342.45 329.403 341.716 327.184 341.044 324.962C340.365 322.737 339.747 320.504 339.141 318.27C337.931 313.801 336.797 309.327 335.612 304.871C334.423 300.416 333.204 295.971 331.752 291.62C331.017 289.451 330.246 287.289 329.282 285.245C328.814 284.217 328.27 283.234 327.648 282.346C327.488 282.128 327.337 281.896 327.157 281.718C326.984 281.525 326.815 281.317 326.621 281.173L326.338 280.93C326.212 280.838 326.083 280.747 325.963 280.647C325.714 280.456 325.48 280.234 325.257 280.007C324.815 279.536 324.402 279.003 324.175 278.286C324.073 277.929 324.008 277.507 324.14 277.057C324.259 276.602 324.612 276.21 324.989 276.015C325.754 275.621 326.457 275.688 327.09 275.773C327.725 275.873 328.32 276.054 328.89 276.275C331.144 277.179 333.092 278.532 334.942 279.959C338.621 282.852 341.869 286.199 344.94 289.667C346.474 291.407 347.964 293.181 349.419 294.982C350.855 296.796 352.245 298.656 353.657 300.491L355.652 303.34C356.306 304.297 357.003 305.223 357.609 306.211C358.85 308.17 360.131 310.1 361.273 312.119C361.852 313.124 362.461 314.111 363.02 315.126L364.664 318.192C365.235 319.201 365.724 320.254 366.237 321.295C366.738 322.342 367.283 323.368 367.744 324.434C371.663 332.85 374.554 341.763 376.576 350.818L378.062 357.576C378.564 359.81 379.152 362.018 379.763 364.201C380.381 366.381 380.999 368.56 381.942 370.579C382.429 371.574 382.99 372.54 383.719 373.335C384.08 373.736 384.481 374.095 384.92 374.392C385.362 374.683 385.837 374.91 386.338 375.057C386.585 375.137 386.846 375.186 387.102 375.223L387.296 375.244C387.357 375.25 387.448 375.266 387.452 375.254C387.476 375.243 387.499 375.262 387.531 375.247C387.559 375.234 387.583 375.223 387.615 375.218C387.884 375.064 388.195 374.603 388.406 374.125C388.845 373.143 389.144 372.036 389.404 370.932C389.916 368.714 390.278 366.434 390.618 364.16C391.278 359.601 391.822 355.013 392.428 350.43C393.621 341.269 394.907 332.079 397.253 323.073C398.452 318.585 399.885 314.109 402.124 309.931C404.513 305.848 407.32 302.087 410.511 298.682C410.905 298.251 411.279 297.8 411.692 297.389L412.918 296.143L414.144 294.897C414.555 294.483 414.958 294.062 415.389 293.672C417.089 292.084 418.768 290.472 420.531 288.967C421.408 288.204 422.265 287.422 423.157 286.681L425.829 284.452C427.602 282.958 429.435 281.541 431.237 280.091C438.522 274.376 445.955 268.884 453.341 263.346C460.741 257.825 468.118 252.287 475.379 246.592C479.028 243.724 482.871 241.083 486.933 238.777C488.969 237.641 491.059 236.568 493.297 235.792C494.417 235.407 495.579 235.101 496.805 235.018C498.014 234.918 499.341 235.124 500.444 235.823C501.555 236.518 502.291 237.631 502.759 238.752C503.239 239.881 503.496 241.061 503.675 242.233C504.016 244.581 504.06 246.925 504.032 249.254C503.999 251.58 503.883 253.897 503.759 256.207L503.405 263.12C502.981 272.43 501.151 281.697 498.032 290.503C497.834 291.052 497.68 291.62 497.447 292.156L496.787 293.782L495.467 297.027L493.965 300.192C493.461 301.243 492.978 302.309 492.393 303.321L490.709 306.39L490.288 307.16L489.827 307.905L488.903 309.394C488.281 310.379 487.689 311.389 487.04 312.357L485.042 315.231C479.684 322.873 473.354 329.775 466.61 336.163C465.764 336.96 464.925 337.763 464.068 338.545L461.457 340.853C459.734 342.413 457.931 343.873 456.155 345.36L453.481 347.585L450.75 349.739C448.924 351.171 447.118 352.624 445.231 353.977C437.795 359.524 430.012 364.638 421.872 369.131C417.785 371.341 413.63 373.446 409.371 375.318C405.124 377.203 400.78 378.881 396.473 380.522C395.406 380.94 394.327 381.349 393.283 381.795L392.496 382.121C392.432 382.151 392.36 382.175 392.304 382.201L392.156 382.279C392.06 382.334 391.952 382.374 391.859 382.437C391.481 382.671 391.161 382.965 390.879 383.311C390.347 384.03 389.988 384.965 389.83 385.997C389.661 387.025 389.633 388.118 389.676 389.216C389.767 391.422 390.145 393.67 390.594 395.894C391.045 398.122 391.607 400.347 392.195 402.565C392.787 404.781 393.416 406.995 394.065 409.208C394.706 411.426 395.419 413.6 396.011 415.9C397.159 420.455 397.864 425.052 398.58 429.619C399.286 434.186 399.96 438.738 400.932 443.195C401.421 445.421 401.999 447.619 402.724 449.744C403.466 451.856 404.365 453.905 405.579 455.681C406.921 457.647 408.091 459.662 409.243 461.681C410.391 463.702 411.499 465.732 412.604 467.764C414.805 471.83 416.993 475.893 419.255 479.912C421.512 483.933 423.856 487.9 426.287 491.791C428.718 495.683 431.253 499.507 433.999 503.082C435.374 504.857 436.803 506.592 438.358 508.044L440.898 510.401C441.733 511.225 442.594 512.031 443.405 512.866C445.048 514.526 446.638 516.22 448.215 517.92C449.801 519.616 451.353 521.332 452.89 523.061C455.98 526.505 459.011 529.992 462.029 533.484L466.558 538.698C468.069 540.409 469.589 542.184 471.15 543.702L471.187 543.739C471.623 544.164 471.63 544.861 471.207 545.301C470.809 545.71 470.17 545.739 469.734 545.397C467.813 543.871 466.188 542.256 464.521 540.617C462.866 538.983 461.254 537.323 459.651 535.655C456.446 532.317 453.29 528.947 450.137 525.585C446.972 522.239 443.843 518.856 440.618 515.621C439.824 514.792 439.006 514.015 438.2 513.212C437.792 512.817 437.381 512.444 436.969 512.061L436.352 511.487L435.676 510.837C433.902 509.083 432.424 507.21 431.036 505.291C428.284 501.441 425.908 497.427 423.62 493.381C421.331 489.335 419.181 485.23 417.006 481.147C414.836 477.061 412.683 472.972 410.492 468.915C409.397 466.884 408.297 464.86 407.169 462.864C406.038 460.869 404.891 458.881 403.637 457.031C402.249 454.986 401.293 452.759 400.51 450.519C399.751 448.269 399.16 445.989 398.667 443.703C397.685 439.128 397.021 434.537 396.327 429.975C395.631 425.418 394.942 420.867 393.843 416.459C393.289 414.283 392.571 412.068 391.936 409.842C391.284 407.62 390.643 405.393 390.044 403.151C389.449 400.907 388.876 398.648 388.409 396.354C387.946 394.059 387.547 391.733 387.439 389.322C387.39 388.118 387.412 386.887 387.62 385.637C387.815 384.393 388.254 383.085 389.104 381.951C389.548 381.399 390.083 380.907 390.692 380.532C390.843 380.437 391.003 380.363 391.159 380.281L391.396 380.161C391.472 380.126 391.534 380.102 391.603 380.074L392.415 379.736C393.498 379.272 394.578 378.863 395.66 378.438C399.984 376.779 404.256 375.125 408.449 373.26C412.644 371.408 416.739 369.331 420.768 367.143C428.794 362.698 436.479 357.634 443.835 352.125C445.698 350.783 447.489 349.338 449.296 347.919L452.001 345.781L454.647 343.569C456.407 342.09 458.196 340.641 459.892 339.099L462.471 336.816C463.317 336.038 464.143 335.241 464.983 334.462C471.655 328.17 477.894 321.398 483.157 313.918L485.119 311.104C485.76 310.159 486.337 309.17 486.951 308.209L487.858 306.756L488.309 306.031L488.719 305.281L490.371 302.28C490.948 301.292 491.419 300.251 491.914 299.223L493.389 296.134L494.686 292.967L495.332 291.383C495.56 290.859 495.712 290.306 495.907 289.773C498.965 281.17 500.754 272.151 501.508 263.028L502.104 256.12C502.306 253.822 502.5 251.527 502.611 249.243C502.712 246.957 502.766 244.665 502.487 242.43C502.345 241.319 502.124 240.215 501.721 239.21C501.331 238.204 500.726 237.298 499.863 236.75C499.012 236.197 497.942 235.998 496.862 236.072C495.776 236.123 494.686 236.416 493.627 236.786C491.503 237.535 489.499 238.665 487.571 239.877C483.723 242.351 480.136 245.229 476.542 248.091L471.111 252.404L465.643 256.667C461.983 259.492 458.294 262.276 454.603 265.056C447.209 270.598 439.765 276.056 432.505 281.73C428.895 284.59 425.274 287.435 421.819 290.461C420.059 291.94 418.391 293.513 416.704 295.066C416.274 295.45 415.874 295.855 415.469 296.262L414.252 297.475L413.034 298.688C412.626 299.086 412.262 299.528 411.871 299.943C408.722 303.25 405.92 306.907 403.596 310.755C401.412 314.703 399.938 319.071 398.7 323.476C397.48 327.896 396.543 332.404 395.729 336.937C394.922 341.472 394.238 346.033 393.607 350.602C392.978 355.176 392.406 359.758 391.726 364.336C391.38 366.628 391.016 368.913 390.491 371.196C390.217 372.335 389.924 373.474 389.417 374.604C389.285 374.885 389.139 375.167 388.945 375.441C388.752 375.716 388.509 375.999 388.131 376.214C387.923 376.31 387.704 376.383 387.457 376.376C387.321 376.386 387.268 376.367 387.183 376.362L386.947 376.336C386.635 376.291 386.324 376.231 386.021 376.133C384.8 375.776 383.733 375.041 382.857 374.183C381.976 373.322 381.256 372.338 380.614 371.323C379.348 369.279 378.394 367.09 377.659 364.857C376.242 360.373 375.437 355.77 374.521 351.276C374.295 350.15 374.059 349.024 373.807 347.905C373.577 346.781 373.315 345.662 373.045 344.547C372.792 343.428 372.497 342.32 372.205 341.21C372.055 340.657 371.921 340.097 371.763 339.547L371.279 337.899L370.794 336.246L370.258 334.612C369.891 333.527 369.563 332.424 369.152 331.35L367.957 328.12L366.651 324.932C363.055 316.468 358.315 308.506 352.892 301.075C351.482 299.254 350.105 297.412 348.67 295.612C347.217 293.825 345.744 292.057 344.196 290.358C341.115 286.953 337.857 283.679 334.24 280.898C332.431 279.53 330.512 278.247 328.455 277.465C327.944 277.275 327.425 277.131 326.919 277.06C326.424 276.988 325.906 277.015 325.637 277.179C325.504 277.26 325.45 277.333 325.42 277.445C325.383 277.554 325.402 277.731 325.461 277.922C325.584 278.312 325.888 278.726 326.239 279.083C326.424 279.26 326.612 279.436 326.823 279.596C326.925 279.679 327.035 279.75 327.14 279.828L327.524 280.141C327.798 280.344 327.996 280.583 328.213 280.818C328.441 281.048 328.612 281.299 328.798 281.544C329.512 282.535 330.104 283.579 330.612 284.642C331.651 286.762 332.467 288.947 333.239 291.143C334.761 295.54 336.044 299.989 337.29 304.441L340.977 317.792C341.603 320.007 342.25 322.217 342.939 324.402C343.625 326.59 344.384 328.747 345.278 330.799C347.099 334.916 349.709 338.617 352.763 341.986C355.817 345.355 359.19 348.531 362.341 351.972C363.139 352.822 363.892 353.718 364.664 354.595C365.392 355.513 366.16 356.392 366.845 357.343L367.897 358.747L368.906 360.166C369.572 361.117 370.233 362.07 370.881 363.034C373.467 366.893 375.925 370.864 377.879 375.133C378.85 377.266 379.688 379.489 380.168 381.84C380.412 383.016 380.526 384.204 380.595 385.368C380.678 386.541 380.692 387.703 380.724 388.86C380.778 391.176 380.803 393.47 380.994 395.736C381.178 397.996 381.542 400.235 382.338 402.284L382.483 402.669C382.537 402.795 382.598 402.917 382.654 403.037L383.01 403.772L383.802 405.35L384.199 406.143C384.332 406.408 384.429 406.689 384.545 406.961L385.212 408.607C385.985 410.846 386.556 413.154 386.892 415.489C387.512 420.174 387.378 424.819 387.737 429.362C388.11 433.904 388.931 438.383 390.379 442.683L390.392 442.711C390.583 443.289 390.27 443.916 389.694 444.11C389.118 444.305 388.491 443.993 388.297 443.417C388.287 443.397 388.28 443.371 388.275 443.349L388.267 443.333Z" fill="#83A642" fill-opacity="0.48"></path><path d="M223.15 542.775C224.168 542.283 225.145 541.707 226.106 541.115C226.59 540.827 227.05 540.497 227.526 540.202C227.989 539.88 228.46 539.574 228.91 539.243C229.825 538.594 230.725 537.923 231.597 537.226L232.907 536.18C233.34 535.823 233.755 535.45 234.18 535.087C234.609 534.732 235.022 534.355 235.436 533.978C235.842 533.595 236.276 533.242 236.672 532.849C237.473 532.068 238.302 531.318 239.09 530.524L240.302 529.362L241.499 528.179C242.287 527.404 243.166 526.592 244.002 525.804C244.819 524.987 245.761 524.291 246.622 523.517C247.05 523.128 247.525 522.791 247.978 522.434L249.341 521.358C251.222 520.003 253.172 518.722 255.289 517.729C257.402 516.737 259.639 515.97 261.952 515.524C263.109 515.292 264.284 515.16 265.455 515.064C266.041 515.025 266.626 514.997 267.203 514.982C267.78 514.967 268.338 514.931 268.827 514.884L268.896 514.876C269.506 514.817 270.048 515.261 270.105 515.867C270.165 516.476 269.721 517.018 269.115 517.076C269.073 517.081 269.024 517.079 268.981 517.08C268.671 517.073 268.337 517.077 268.051 517.059L267.19 517.017C266.626 516.987 266.072 516.977 265.519 516.971C264.968 516.969 264.419 516.98 263.869 517.012C263.323 517.061 262.772 517.089 262.232 517.184C260.056 517.485 257.923 518.13 255.899 519.041L254.401 519.766C253.908 520.025 253.441 520.329 252.958 520.607C252.719 520.752 252.476 520.89 252.242 521.037L251.556 521.517L250.182 522.476L248.889 523.548C248.457 523.905 248.032 524.268 247.645 524.671C247.245 525.067 246.85 525.464 246.462 525.863C246.268 526.065 246.065 526.257 245.882 526.469L245.338 527.11L243.149 529.699L242.018 531.013C241.629 531.442 241.222 531.854 240.815 532.267C239.196 533.924 237.408 535.417 235.563 536.819C235.094 537.159 234.628 537.506 234.152 537.834L232.705 538.803C231.718 539.413 230.72 540.008 229.69 540.545C229.179 540.816 228.648 541.058 228.13 541.313C227.6 541.555 227.07 541.786 226.529 541.994C225.455 542.425 224.352 542.786 223.207 543.012C223.139 543.024 223.071 542.982 223.06 542.915C223.047 542.857 223.081 542.803 223.127 542.777L223.135 542.773L223.15 542.775Z" fill="#83A642" fill-opacity="0.48"></path><path d="M217.509 523.239C220.688 522.404 223.879 521.691 227.086 521.013C230.29 520.337 233.503 519.681 236.729 519.107C243.181 517.954 249.655 516.945 256.155 516.076C269.16 514.408 282.251 513.304 295.373 513.012C301.935 512.829 308.504 512.872 315.066 513.068L319.986 513.249L324.906 513.533C326.546 513.617 328.181 513.787 329.818 513.917C331.452 514.062 333.092 514.177 334.726 514.376L339.629 514.915L344.513 515.575C345.325 515.689 346.142 515.791 346.954 515.915L349.388 516.317C351.009 516.591 352.636 516.837 354.246 517.159L359.082 518.133L360.291 518.379L361.493 518.663L363.893 519.231C367.107 519.928 370.258 520.887 373.429 521.754C374.019 521.913 374.364 522.521 374.203 523.107C374.045 523.686 373.452 524.035 372.872 523.886L372.833 523.875C366.53 522.288 360.19 520.864 353.777 519.795C347.361 518.762 340.925 517.831 334.446 517.27C321.493 516.106 308.467 515.652 295.446 515.965C293.817 515.987 292.191 516.047 290.564 516.107C288.938 516.167 287.31 516.213 285.682 516.302L280.803 516.535L275.927 516.836C269.427 517.286 262.932 517.822 256.448 518.528C249.964 519.191 243.489 520 237.034 520.946C230.578 521.867 224.129 522.922 217.733 524.161L217.725 524.165C217.469 524.211 217.221 524.044 217.169 523.786C217.123 523.54 217.276 523.303 217.513 523.237L217.509 523.239Z" fill="#83A642" fill-opacity="0.48"></path><path d="M279.467 515.556C275.403 513.97 271.309 512.51 267.196 511.083C265.138 510.37 263.083 509.656 261.01 508.984L254.786 506.981C250.751 505.742 246.554 504.899 242.306 504.226C238.054 503.569 233.753 503.076 229.423 502.606C229.321 502.595 229.249 502.502 229.26 502.4C229.268 502.314 229.339 502.246 229.426 502.235C231.611 501.994 233.796 501.922 235.987 501.926C238.176 501.936 240.371 502.03 242.558 502.235C243.108 502.277 243.653 502.35 244.198 502.413C244.747 502.474 245.29 502.543 245.836 502.63C246.38 502.712 246.929 502.784 247.473 502.876L249.101 503.195C251.265 503.664 253.413 504.267 255.48 505.146C257.49 505.983 259.473 506.838 261.51 507.599C263.539 508.374 265.598 509.067 267.657 509.75C271.781 511.108 275.942 512.377 280.151 513.457C280.743 513.61 281.101 514.213 280.948 514.804C280.795 515.396 280.196 515.752 279.604 515.599C279.561 515.59 279.514 515.573 279.477 515.556L279.467 515.556Z" fill="#83A642" fill-opacity="0.48"></path><path d="M276.65 559.077C278.195 558.559 279.711 557.855 281.157 557.071C282.607 556.285 284.031 555.454 285.382 554.509C288.103 552.657 290.675 550.591 293.083 548.348C293.695 547.801 294.28 547.218 294.871 546.647L295.756 545.788L296.605 544.892L298.308 543.089L300.054 541.266C302.415 538.87 304.854 536.549 307.401 534.344C308.022 533.774 308.676 533.246 309.318 532.7C309.969 532.164 310.593 531.601 311.265 531.089C311.93 530.572 312.581 530.036 313.236 529.508C313.896 528.982 314.576 528.486 315.246 527.97C315.916 527.454 316.592 526.951 317.281 526.465C317.969 525.976 318.65 525.474 319.347 524.995C320.76 524.066 322.165 523.111 323.638 522.261C325.081 521.367 326.612 520.607 328.128 519.83L330.468 518.782L331.054 518.524L331.655 518.298L332.858 517.851C336.08 516.69 339.464 515.858 342.926 515.665C343.533 515.631 344.057 516.098 344.09 516.705C344.12 517.271 343.72 517.763 343.175 517.856L343.159 517.863C339.977 518.407 336.882 519.359 333.857 520.525L332.727 520.973L332.158 521.193L331.602 521.442L329.378 522.446C327.921 523.186 326.443 523.878 325.02 524.69C323.565 525.443 322.168 526.311 320.75 527.145C320.051 527.577 319.362 528.033 318.668 528.477L317.633 529.148L316.621 529.861C313.895 531.722 311.327 533.81 308.814 535.96L306.954 537.603L305.143 539.296L304.24 540.148L303.36 541.019C302.774 541.603 302.174 542.174 301.604 542.769L299.886 544.56L298.107 546.355L297.211 547.253L296.278 548.114C295.653 548.687 295.052 549.277 294.387 549.805C291.811 551.999 289.065 554.005 286.121 555.68C283.179 557.348 280.093 558.801 276.744 559.491C276.625 559.517 276.511 559.439 276.485 559.319C276.462 559.208 276.525 559.101 276.63 559.067L276.65 559.058L276.65 559.077Z" fill="#83A642" fill-opacity="0.48"></path><path d="M301.382 497.72C302.054 498.571 302.75 499.43 303.477 500.241C304.196 501.065 304.937 501.864 305.686 502.649C307.193 504.217 308.783 505.692 310.437 507.074C311.252 507.78 312.126 508.405 312.976 509.062C313.407 509.382 313.861 509.667 314.3 509.974L314.96 510.431L315.645 510.848L317.011 511.683C317.483 511.935 317.956 512.178 318.422 512.438C318.658 512.567 318.889 512.698 319.126 512.821L319.855 513.154C320.34 513.372 320.823 513.605 321.306 513.838L321.388 513.877C321.935 514.144 322.163 514.802 321.896 515.349C321.644 515.865 321.042 516.096 320.516 515.898C319.985 515.697 319.45 515.488 318.921 515.271L318.125 514.95C317.866 514.832 317.611 514.703 317.352 514.575C316.838 514.327 316.333 514.056 315.821 513.802C315.327 513.516 314.843 513.216 314.354 512.917C312.416 511.711 310.602 510.32 308.947 508.768C307.276 507.234 305.746 505.565 304.366 503.778C302.995 501.988 301.78 500.095 300.798 498.055C300.72 497.887 300.789 497.69 300.953 497.613C301.097 497.546 301.261 497.587 301.357 497.708L301.366 497.728L301.382 497.72Z" fill="#83A642" fill-opacity="0.48"></path><path d="M276.334 421.72C278.9 424.98 281.407 428.292 283.902 431.599L291.395 441.508C293.913 444.79 296.41 448.092 298.978 451.326C301.544 454.566 304.122 457.791 306.841 460.931L306.845 460.939C306.96 461.071 306.946 461.272 306.815 461.387C306.697 461.49 306.531 461.489 306.411 461.399C305.587 460.755 304.775 460.086 303.963 459.417C303.168 458.731 302.41 458.013 301.633 457.303C300.115 455.858 298.64 454.368 297.227 452.826C294.38 449.755 291.713 446.537 289.15 443.242C286.579 439.95 284.116 436.584 281.763 433.143C279.41 429.702 277.127 426.213 275.05 422.58C274.838 422.207 274.966 421.738 275.337 421.522C275.676 421.33 276.096 421.418 276.331 421.712L276.334 421.72Z" fill="#83A642" fill-opacity="0.48"></path><path d="M283.77 453.925C287.352 457.939 291.04 461.855 294.791 465.698C295.724 466.661 296.679 467.604 297.63 468.553L299.054 469.974L300.505 471.368C301.477 472.288 302.415 473.249 303.41 474.144L306.364 476.869C308.37 478.642 310.35 480.442 312.426 482.124C314.444 483.882 316.592 485.468 318.682 487.129C322.97 490.304 327.403 493.261 332.069 495.857L332.088 495.867C332.461 496.073 332.594 496.547 332.386 496.916C332.19 497.27 331.752 497.405 331.389 497.243C326.42 494.987 321.759 492.117 317.326 488.966C312.931 485.758 308.784 482.245 304.795 478.571C302.841 476.691 300.879 474.824 299.003 472.869L297.59 471.409L296.207 469.92L294.825 468.431C294.365 467.934 293.926 467.418 293.477 466.912C289.895 462.859 286.458 458.675 283.342 454.251C283.257 454.13 283.285 453.961 283.406 453.875C283.519 453.794 283.674 453.814 283.76 453.915L283.77 453.925Z" fill="#83A642" fill-opacity="0.48"></path><path d="M314.439 465.43C314.771 465.767 315.091 466.173 315.398 466.561L316.307 467.744C316.61 468.144 316.928 468.526 317.253 468.92C317.581 469.312 317.932 469.68 318.307 470.089L318.31 470.097C318.368 470.158 318.361 470.249 318.305 470.305C318.27 470.335 318.226 470.346 318.185 470.341C317.623 470.261 317.073 470.074 316.568 469.812C316.062 469.551 315.585 469.237 315.153 468.874C314.722 468.51 314.322 468.111 313.978 467.673C313.633 467.225 313.336 466.774 313.118 466.209C312.959 465.806 313.158 465.354 313.561 465.195C313.861 465.076 314.192 465.16 314.403 465.374L314.449 465.42L314.439 465.43Z" fill="#83A642" fill-opacity="0.48"></path><path d="M326.176 477.152C326.519 477.177 326.822 477.265 327.107 477.376C327.401 477.483 327.669 477.621 327.931 477.777C328.189 477.934 328.441 478.109 328.67 478.309C328.903 478.507 329.124 478.731 329.305 479.007C329.455 479.234 329.391 479.536 329.169 479.688C329.065 479.756 328.945 479.782 328.835 479.765C328.503 479.72 328.212 479.617 327.931 479.494C327.648 479.378 327.384 479.228 327.126 479.06C326.87 478.897 326.629 478.713 326.406 478.495C326.181 478.283 325.971 478.05 325.798 477.751C325.685 477.56 325.749 477.311 325.944 477.197C326.016 477.153 326.1 477.134 326.177 477.142L326.176 477.152Z" fill="#83A642" fill-opacity="0.48"></path><path d="M336.175 476.963C337.45 478.639 338.76 480.297 340.103 481.921C340.755 482.747 341.461 483.533 342.126 484.348C342.802 485.153 343.51 485.934 344.191 486.741C346.967 489.908 349.868 492.959 352.948 495.819L355.28 497.937L357.694 499.959C358.483 500.653 359.326 501.273 360.159 501.913L361.407 502.871L362.032 503.349L362.681 503.792C366.089 506.237 369.725 508.314 373.468 510.18L373.511 510.199C373.892 510.392 374.049 510.854 373.856 511.236C373.667 511.615 373.209 511.77 372.831 511.585L369.934 510.187C369.457 509.947 368.962 509.729 368.494 509.465L367.103 508.661L365.711 507.853C365.251 507.575 364.769 507.332 364.335 507.018L361.671 505.22C358.191 502.725 354.824 500.066 351.763 497.08C348.678 494.125 345.728 491.033 343.006 487.749C340.297 484.453 337.776 481.007 335.652 477.294C335.57 477.147 335.618 476.959 335.769 476.875C335.903 476.798 336.076 476.834 336.167 476.957L336.171 476.965L336.175 476.963Z" fill="#83A642" fill-opacity="0.48"></path><path d="M283.678 385.939C286.99 388.093 290.131 390.424 293.211 392.866C294.75 394.083 296.278 395.319 297.755 396.613C299.256 397.876 300.699 399.211 302.147 400.538C305.018 403.218 307.751 406.055 310.343 409.015C312.89 412.016 315.245 415.189 317.273 418.558C317.363 418.711 317.316 418.913 317.163 419.003C317.018 419.09 316.836 419.053 316.737 418.924L316.733 418.916C314.37 415.819 311.843 412.882 309.194 410.05C306.515 407.247 303.732 404.545 300.874 401.922C299.424 400.635 297.983 399.334 296.499 398.077C295.765 397.44 295.023 396.817 294.273 396.197C293.526 395.576 292.79 394.944 292.028 394.34C290.523 393.112 288.994 391.916 287.459 390.727C285.934 389.528 284.366 388.363 282.816 387.225L282.8 387.213C282.458 386.958 282.385 386.476 282.638 386.13C282.882 385.798 283.343 385.72 283.68 385.943L283.678 385.939Z" fill="#83A642" fill-opacity="0.48"></path><path d="M322.245 426.109C323.978 427.357 325.366 428.868 326.697 430.444C327.359 431.231 327.975 432.054 328.585 432.875C329.175 433.715 329.761 434.557 330.307 435.418C331.395 437.141 332.437 438.851 333.479 440.591C334.527 442.313 335.54 444.075 336.603 445.776L336.612 445.796C336.677 445.892 336.643 446.02 336.549 446.078C336.47 446.129 336.368 446.118 336.301 446.057C334.75 444.656 333.473 443.07 332.214 441.461C330.961 439.853 329.806 438.162 328.679 436.491C328.121 435.655 327.568 434.822 326.986 434.008C326.435 433.169 325.84 432.37 325.272 431.544C324.108 429.929 322.923 428.29 321.677 426.782L321.653 426.75C321.496 426.56 321.522 426.28 321.712 426.124C321.87 425.992 322.093 425.99 322.253 426.106L322.245 426.109Z" fill="#83A642" fill-opacity="0.48"></path><path d="M144.683 339.318C149.853 336.697 155.096 334.242 160.365 331.843C165.63 329.436 170.93 327.124 176.247 324.839L192.225 318.063C194.891 316.941 197.545 315.795 200.224 314.692L204.299 313.105L206.334 312.311C207.011 312.04 207.708 311.833 208.396 311.586L212.529 310.177L213.562 309.824C213.908 309.711 214.257 309.613 214.607 309.508L216.698 308.887C218.093 308.477 219.484 308.045 220.885 307.657L225.111 306.575L227.223 306.031L229.351 305.553L233.605 304.604C235.029 304.307 236.454 304.044 237.884 303.769L240.025 303.363C240.738 303.231 241.457 303.126 242.174 303.002C247.894 301.994 253.669 301.301 259.445 300.748C265.227 300.218 271.011 299.827 276.834 299.827C277.136 299.827 277.386 300.072 277.387 300.378C277.388 300.674 277.154 300.914 276.864 300.927L276.844 300.927C265.343 301.473 253.856 302.951 242.539 305.046C231.211 307.137 220.046 310.071 209.216 313.896C208.54 314.137 207.851 314.35 207.187 314.619L205.187 315.413L201.183 316.996L193.186 320.351L177.186 327.069C171.841 329.284 166.488 331.47 161.09 333.559C155.695 335.657 150.28 337.701 144.792 339.574C144.72 339.598 144.644 339.56 144.616 339.49C144.595 339.422 144.626 339.354 144.684 339.322L144.683 339.318Z" fill="#83A642" fill-opacity="0.48"></path><path d="M163.608 342.457C163.589 342.49 163.572 342.517 163.55 342.552C163.531 342.575 163.509 342.6 163.488 342.619L163.472 342.636C163.472 342.636 163.438 342.657 163.42 342.67C163.38 342.689 163.34 342.707 163.3 342.716C162.861 342.735 162.853 342.35 162.844 342.373C162.828 342.298 162.827 342.264 162.825 342.227C162.815 342.08 162.816 341.978 162.823 341.867C162.835 341.653 162.859 341.452 162.886 341.249C162.947 340.846 163.019 340.458 163.112 340.069C163.298 339.297 163.523 338.535 163.797 337.795C164.337 336.308 165.031 334.881 165.854 333.521C166.685 332.167 167.631 330.861 168.782 329.728C169.922 328.6 171.286 327.587 172.86 327.162C172.973 327.134 173.092 327.2 173.12 327.314C173.141 327.401 173.109 327.489 173.04 327.54L173.036 327.542C171.803 328.437 170.823 329.544 169.94 330.732C169.067 331.931 168.274 333.2 167.542 334.503C166.807 335.813 166.115 337.151 165.431 338.496C165.094 339.173 164.739 339.844 164.407 340.523C164.244 340.862 164.066 341.202 163.912 341.541C163.83 341.711 163.749 341.88 163.683 342.042L163.592 342.255C163.592 342.255 163.583 342.278 163.576 342.252C163.568 342.319 163.583 341.996 163.196 342.01C163.168 342.014 163.134 342.024 163.108 342.041C163.096 342.047 163.08 342.054 163.072 342.068L163.068 342.07C163.068 342.07 163.06 342.084 163.058 342.089C163.062 342.088 163.078 342.08 163.09 342.074L163.226 342.011C163.383 341.953 163.563 342.025 163.631 342.183C163.672 342.271 163.657 342.375 163.612 342.455L163.608 342.457Z" fill="#83A642" fill-opacity="0.48"></path><path d="M164.495 311.524C168.357 310.673 172.252 310.041 176.166 309.532C180.083 309.03 184.024 308.683 187.979 308.505C191.937 308.364 195.906 308.403 199.879 308.703C203.847 309.063 207.807 309.691 211.695 310.77C212.282 310.935 212.626 311.539 212.463 312.13C212.298 312.718 211.694 313.062 211.102 312.899C211.091 312.894 211.081 312.894 211.069 312.89L211.036 312.881C207.369 311.723 203.555 310.97 199.698 310.48C195.829 310.049 191.922 309.87 188.003 309.866C184.087 309.899 180.169 310.105 176.262 310.46C172.354 310.826 168.451 311.316 164.593 312.018L164.589 312.02C164.45 312.045 164.318 311.951 164.295 311.816C164.271 311.681 164.358 311.553 164.491 311.525L164.495 311.524Z" fill="#83A642" fill-opacity="0.48"></path><path d="M211.134 327.879C213.855 325.589 216.49 323.187 219.044 320.735C221.598 318.274 224.1 315.773 226.499 313.165C227.088 312.527 227.725 311.836 228.382 311.186C229.03 310.529 229.71 309.898 230.407 309.282C231.796 308.052 233.309 306.951 234.895 305.956C236.5 304.991 238.179 304.133 239.966 303.508C240.855 303.192 241.769 302.928 242.706 302.736C243.173 302.64 243.645 302.557 244.126 302.504C244.368 302.479 244.61 302.455 244.857 302.442C245.114 302.43 245.327 302.418 245.651 302.423C246.26 302.437 246.742 302.938 246.728 303.548C246.714 304.114 246.278 304.57 245.728 304.621L245.629 304.628C245.506 304.636 245.271 304.663 245.086 304.695C244.886 304.725 244.685 304.765 244.485 304.804C244.082 304.89 243.678 304.984 243.272 305.095C242.468 305.323 241.668 305.602 240.887 305.921C239.325 306.569 237.815 307.373 236.381 308.307C234.943 309.233 233.576 310.281 232.282 311.422C231.63 311.988 230.997 312.574 230.383 313.19C229.766 313.798 229.193 314.429 228.544 315.086C226.027 317.69 223.401 320.195 220.564 322.457L219.503 323.305L218.418 324.121C217.691 324.662 216.956 325.194 216.201 325.695C214.697 326.71 213.161 327.667 211.519 328.479C211.345 328.564 211.132 328.493 211.046 328.319C210.975 328.167 211.012 327.994 211.135 327.893L211.147 327.888L211.134 327.879Z" fill="#83A642" fill-opacity="0.48"></path><path d="M110.308 213.425C116.465 214.886 122.559 216.516 128.655 218.189C134.744 219.861 140.809 221.636 146.853 223.47C152.901 225.292 158.922 227.204 164.929 229.158C167.931 230.142 170.926 231.144 173.915 232.174C175.408 232.696 176.909 233.172 178.393 233.728L182.857 235.376C185.853 236.422 188.756 237.705 191.699 238.897C193.176 239.481 194.612 240.152 196.056 240.809L200.388 242.782L204.653 244.892C206.073 245.604 207.507 246.281 208.888 247.065L213.069 249.341C214.46 250.105 215.815 250.936 217.189 251.728L219.246 252.928C219.927 253.336 220.594 253.766 221.269 254.182C222.61 255.028 223.971 255.851 225.3 256.722L229.255 259.381L233.14 262.14C238.287 265.879 243.236 269.827 247.875 274.284C248.315 274.707 248.327 275.402 247.903 275.842C247.49 276.272 246.815 276.294 246.374 275.901L246.333 275.866C244.047 273.814 241.597 271.819 239.135 269.893L235.391 267.059C234.118 266.142 232.872 265.198 231.585 264.302L227.717 261.633L223.788 259.05C222.478 258.189 221.137 257.377 219.813 256.537C219.15 256.125 218.489 255.698 217.815 255.295L215.789 254.106C210.411 250.877 204.83 248.007 199.235 245.181L194.975 243.185C193.557 242.52 192.141 241.84 190.689 241.249C187.797 240.039 184.94 238.739 181.987 237.673L177.59 235.999C176.125 235.433 174.625 234.938 173.145 234.4C170.178 233.336 167.197 232.322 164.222 231.281C158.262 229.229 152.291 227.215 146.287 225.29C134.286 221.441 122.222 217.738 110.063 214.439L110.059 214.441C109.779 214.362 109.612 214.075 109.689 213.791C109.762 213.518 110.045 213.353 110.318 213.416L110.308 213.425Z" fill="#83A642" fill-opacity="0.48"></path><path d="M151.693 204.523C154.275 207.42 156.927 210.27 159.604 213.079C162.29 215.885 165.007 218.666 167.79 221.367C170.577 224.067 173.386 226.742 176.308 229.282C179.224 231.819 182.207 234.282 185.342 236.474L185.346 236.482C185.851 236.827 185.972 237.515 185.626 238.016C185.278 238.514 184.591 238.638 184.088 238.288C184.08 238.282 184.067 238.274 184.059 238.268C180.889 235.896 177.95 233.297 175.083 230.634C172.212 227.973 169.475 225.192 166.764 222.384C164.057 219.574 161.423 216.701 158.826 213.801C156.23 210.896 153.671 207.964 151.173 204.964C151.051 204.817 151.073 204.602 151.216 204.482C151.36 204.361 151.569 204.381 151.695 204.517L151.693 204.523Z" fill="#83A642" fill-opacity="0.48"></path><path d="M211.46 226.933C213.579 229.798 215.628 232.709 217.644 235.645C219.656 238.584 221.628 241.55 223.545 244.557C227.36 250.579 231.005 256.728 234.041 263.263C234.298 263.815 234.058 264.472 233.506 264.728C232.953 264.985 232.297 264.745 232.04 264.193C232.035 264.181 232.029 264.169 232.024 264.157L232.016 264.141C229.31 257.657 225.929 251.404 222.374 245.271C220.586 242.209 218.739 239.175 216.847 236.171C214.951 233.169 213.019 230.184 211.023 227.249C210.94 227.122 210.97 226.957 211.091 226.872C211.214 226.79 211.373 226.818 211.46 226.933Z" fill="#83A642" fill-opacity="0.48"></path><path d="M303.35 271.549C301.795 270.316 300.361 268.968 298.974 267.554C297.595 266.137 296.274 264.663 295.029 263.125C293.772 261.593 292.59 260.001 291.474 258.354C290.909 257.536 290.379 256.698 289.842 255.857C289.33 255.006 288.821 254.152 288.337 253.277C287.376 251.534 286.448 249.766 285.662 247.927C285.246 247.021 284.893 246.085 284.511 245.158C284.175 244.215 283.799 243.29 283.505 242.332C283.351 241.854 283.185 241.381 283.044 240.901L282.644 239.453C282.364 238.493 282.173 237.506 281.93 236.534L281.661 235.054C281.568 234.561 281.484 234.065 281.423 233.568L281.217 232.078C281.153 231.582 281.124 231.08 281.077 230.581C280.975 229.577 280.946 228.593 280.906 227.605L280.803 224.641C280.791 222.666 280.8 220.696 280.807 218.732C280.848 216.767 280.898 214.802 280.915 212.839L280.998 209.896L281.043 206.955C281.105 204.995 281.144 203.036 281.123 201.075C281.116 199.112 281.092 197.153 281.03 195.187C280.923 191.261 280.829 187.33 281.001 183.416C281.344 175.589 281.936 167.782 282.519 159.979C283.085 152.18 283.544 144.362 283.295 136.566L283.183 133.645C283.154 132.671 283.061 131.697 283.003 130.722C282.885 128.772 282.706 126.827 282.541 124.879C282.179 120.99 281.754 117.1 281.192 113.231C280.103 105.494 278.734 97.7714 276.833 90.2031L276.829 90.1951C276.775 89.9724 276.911 89.7434 277.134 89.6886C277.357 89.6338 277.584 89.7667 277.641 89.9934C278.563 93.8222 279.367 97.6573 280.091 101.51C280.82 105.361 281.486 109.226 282.068 113.106C283.193 120.869 284.18 128.648 284.611 136.509C284.684 137.493 284.707 138.474 284.73 139.456L284.819 142.402L284.908 148.292L284.944 154.182L284.939 160.067C284.917 167.915 284.699 175.752 284.307 183.569C284.098 187.475 283.66 191.372 283.246 195.267C283.048 197.217 282.864 199.166 282.739 201.117C282.614 203.068 282.549 205.024 282.513 206.978C282.368 214.781 282.722 222.645 283.691 230.291C284.697 237.871 287.03 245.248 290.474 252.138C291.333 253.861 292.263 255.55 293.242 257.217C294.227 258.875 295.272 260.507 296.365 262.105C298.569 265.29 300.956 268.385 303.602 271.243L303.606 271.251C303.682 271.332 303.677 271.456 303.596 271.533C303.521 271.601 303.41 271.604 303.333 271.543L303.35 271.549Z" fill="#83A642" fill-opacity="0.48"></path><path d="M289.461 254.764C289.371 249.094 290.983 243.703 293.296 238.659L294.212 236.788C294.528 236.169 294.889 235.574 295.226 234.969L295.74 234.064C295.918 233.767 296.122 233.483 296.308 233.192L297.461 231.454L298.738 229.805L299.378 228.983C299.599 228.715 299.843 228.465 300.073 228.207L301.482 226.672C301.956 226.165 302.494 225.72 302.996 225.239C303.51 224.776 304.008 224.277 304.536 223.852L306.111 222.561C307.16 221.699 308.242 220.875 309.314 220.041C311.474 218.395 313.716 216.843 316.006 215.385C318.291 213.914 320.67 212.615 322.948 211.225C325.232 209.848 327.346 208.238 329.29 206.401C329.424 206.271 329.641 206.277 329.767 206.413C329.89 206.541 329.892 206.744 329.772 206.873C327.949 208.887 325.854 210.693 323.61 212.231C321.374 213.786 319.112 215.221 316.932 216.77C314.753 218.312 312.639 219.941 310.585 221.645C309.565 222.508 308.54 223.359 307.545 224.254L306.049 225.591C305.543 226.031 305.107 226.506 304.636 226.958C304.18 227.423 303.69 227.855 303.263 228.35L301.995 229.84C301.786 230.092 301.566 230.331 301.369 230.588L300.794 231.38L299.65 232.962C298.249 235.161 296.946 237.425 295.933 239.832C294.909 242.235 294.085 244.715 293.391 247.231C293.053 248.493 292.726 249.759 292.443 251.034C292.15 252.299 291.895 253.614 291.668 254.844L291.651 254.934C291.541 255.535 290.966 255.929 290.365 255.819C289.838 255.723 289.47 255.266 289.46 254.751L289.461 254.764Z" fill="#83A642" fill-opacity="0.48"></path><path d="M281.04 196.559C282.226 191.225 285.454 187.01 288.701 182.991L289.957 181.507L291.268 180.076C292.134 179.114 293.072 178.221 293.987 177.31L295.41 175.996L296.122 175.34L296.857 174.711C297.842 173.879 298.828 173.037 299.802 172.253C301.764 170.665 303.719 169.071 305.641 167.448C307.561 165.821 309.462 164.184 311.282 162.467C313.097 160.749 314.853 158.979 316.423 157.058C317.992 155.137 319.359 153.062 320.49 150.838C320.61 150.592 320.907 150.498 321.148 150.62C321.376 150.733 321.473 151.004 321.383 151.24C320.434 153.628 319.174 155.911 317.69 158.026C316.184 160.127 314.513 162.09 312.746 163.943C310.981 165.799 309.155 167.587 307.284 169.308C305.416 171.037 303.531 172.739 301.623 174.414C300.653 175.249 299.743 176.085 298.827 176.92L298.141 177.549L297.481 178.202L296.162 179.51C294.466 181.315 292.774 183.118 291.266 185.079C289.736 187.011 288.335 189.044 287.032 191.118L283.117 197.302L283.055 197.398C282.726 197.916 282.043 198.068 281.527 197.743C281.122 197.489 280.942 197.008 281.038 196.565L281.04 196.559Z" fill="#83A642" fill-opacity="0.48"></path><path d="M256.867 197.907C257.28 199.623 257.957 201.342 258.739 202.964C259.525 204.593 260.448 206.15 261.469 207.636C263.478 210.639 265.984 213.27 268.696 215.62L269.718 216.498L270.789 217.392L271.867 218.287L272.925 219.212C274.334 220.445 275.693 221.745 277.024 223.073C278.348 224.414 279.643 225.797 280.796 227.315C281.087 227.69 281.372 228.074 281.637 228.476C281.91 228.865 282.165 229.277 282.415 229.691C282.662 230.107 282.898 230.532 283.113 230.972C283.335 231.429 283.514 231.837 283.707 232.399C283.902 232.975 283.594 233.6 283.018 233.795C282.555 233.951 282.063 233.781 281.785 233.414L281.692 233.287L280.947 232.29L280.14 231.244C279.581 230.555 279.029 229.858 278.452 229.172C277.303 227.799 276.147 226.419 274.919 225.087C273.682 223.764 272.415 222.46 271.086 221.214L270.101 220.266L269.089 219.344L268.073 218.415L267.035 217.438C266.693 217.11 266.339 216.798 266.011 216.449L265.04 215.406C264.379 214.726 263.796 213.975 263.183 213.252C262.872 212.896 262.599 212.507 262.316 212.128C262.036 211.747 261.749 211.369 261.472 210.982C260.956 210.186 260.405 209.42 259.942 208.589C258.958 206.973 258.144 205.254 257.463 203.493C256.787 201.725 256.232 199.934 255.989 198.008C255.959 197.765 256.129 197.545 256.373 197.514C256.599 197.487 256.806 197.629 256.859 197.848L256.867 197.888L256.867 197.907Z" fill="#83A642" fill-opacity="0.48"></path><path d="M120.569 239.335C124.421 237.731 128.243 236.374 132.159 235.148C136.067 233.935 140.028 232.898 144.046 232.111L145.555 231.819C146.057 231.717 146.559 231.625 147.067 231.555L150.103 231.083C151.118 230.933 152.139 230.848 153.157 230.725L154.684 230.556C155.195 230.513 155.709 230.488 156.219 230.456L159.294 230.268L162.379 230.236L163.921 230.225L165.464 230.301L168.552 230.443C169.159 230.472 169.632 230.987 169.602 231.594C169.573 232.201 169.058 232.674 168.451 232.645C168.441 232.645 168.431 232.644 168.421 232.644L168.346 232.64L165.355 232.4L163.856 232.284L162.354 232.257L159.349 232.208L156.34 232.34C155.84 232.364 155.336 232.379 154.836 232.412L153.335 232.554C152.338 232.658 151.333 232.726 150.338 232.857L147.35 233.286L146.605 233.399L145.863 233.54L144.378 233.821C140.429 234.59 136.505 235.537 132.675 236.781L129.812 237.751C128.868 238.097 127.924 238.453 126.996 238.831C125.138 239.577 123.274 240.404 121.544 241.32L121.508 241.337C120.971 241.625 120.3 241.416 120.015 240.877C119.731 240.338 119.936 239.669 120.475 239.384C120.507 239.369 120.539 239.354 120.567 239.341L120.569 239.335Z" fill="#83A642" fill-opacity="0.48"></path></g></svg>